%TF.GenerationSoftware,KiCad,Pcbnew,8.0.3*%
%TF.CreationDate,2024-07-09T16:52:22+05:30*%
%TF.ProjectId,ECG,4543472e-6b69-4636-9164-5f7063625858,rev?*%
%TF.SameCoordinates,Original*%
%TF.FileFunction,Soldermask,Bot*%
%TF.FilePolarity,Negative*%
%FSLAX46Y46*%
G04 Gerber Fmt 4.6, Leading zero omitted, Abs format (unit mm)*
G04 Created by KiCad (PCBNEW 8.0.3) date 2024-07-09 16:52:22*
%MOMM*%
%LPD*%
G01*
G04 APERTURE LIST*
%ADD10C,2.000000*%
%ADD11C,1.600000*%
%ADD12O,1.600000X1.600000*%
%ADD13C,3.800000*%
%ADD14R,2.600000X2.600000*%
%ADD15C,2.600000*%
%ADD16R,1.600000X1.600000*%
%ADD17R,1.700000X1.700000*%
%ADD18O,1.700000X1.700000*%
G04 APERTURE END LIST*
D10*
%TO.C,C3*%
X161000000Y-97000000D03*
X153500000Y-97000000D03*
%TD*%
D11*
%TO.C,R2*%
X114000000Y-79880000D03*
D12*
X114000000Y-95120000D03*
%TD*%
D11*
%TO.C,R9*%
X129380000Y-78000000D03*
D12*
X144620000Y-78000000D03*
%TD*%
D10*
%TO.C,C2*%
X173000000Y-97000000D03*
X180500000Y-97000000D03*
%TD*%
D13*
%TO.C,V3*%
X166850000Y-125500000D03*
X198650000Y-125500000D03*
D14*
X154950000Y-125500000D03*
D15*
X210550000Y-125500000D03*
%TD*%
D11*
%TO.C,R8*%
X129380000Y-72500000D03*
D12*
X144620000Y-72500000D03*
%TD*%
D16*
%TO.C,U1*%
X91700000Y-94300000D03*
D12*
X91700000Y-96840000D03*
X91700000Y-99380000D03*
X91700000Y-101920000D03*
X99320000Y-101920000D03*
X99320000Y-99380000D03*
X99320000Y-96840000D03*
X99320000Y-94300000D03*
%TD*%
D11*
%TO.C,R11*%
X191320000Y-74180000D03*
D12*
X191320000Y-89420000D03*
%TD*%
D11*
%TO.C,C4*%
X194000000Y-98500000D03*
X196500000Y-98500000D03*
%TD*%
%TO.C,R3*%
X109250000Y-79880000D03*
D12*
X109250000Y-95120000D03*
%TD*%
D10*
%TO.C,C1*%
X153500000Y-77500000D03*
X161000000Y-77500000D03*
%TD*%
D13*
%TO.C,V2*%
X98350000Y-125500000D03*
X130150000Y-125500000D03*
D14*
X86450000Y-125500000D03*
D15*
X142050000Y-125500000D03*
%TD*%
D16*
%TO.C,U5*%
X210120000Y-78000000D03*
D12*
X207580000Y-78000000D03*
X205040000Y-78000000D03*
X202500000Y-78000000D03*
X202500000Y-85620000D03*
X205040000Y-85620000D03*
X207580000Y-85620000D03*
X210120000Y-85620000D03*
%TD*%
D11*
%TO.C,R6*%
X144620000Y-102000000D03*
D12*
X129380000Y-102000000D03*
%TD*%
D11*
%TO.C,R12*%
X196320000Y-89420000D03*
D12*
X196320000Y-74180000D03*
%TD*%
D16*
%TO.C,U4*%
X177800000Y-75200000D03*
D12*
X175260000Y-75200000D03*
X172720000Y-75200000D03*
X170180000Y-75200000D03*
X170180000Y-82820000D03*
X172720000Y-82820000D03*
X175260000Y-82820000D03*
X177800000Y-82820000D03*
%TD*%
D16*
%TO.C,U2*%
X92000000Y-76960000D03*
D12*
X92000000Y-79500000D03*
X92000000Y-82040000D03*
X92000000Y-84580000D03*
X99620000Y-84580000D03*
X99620000Y-82040000D03*
X99620000Y-79500000D03*
X99620000Y-76960000D03*
%TD*%
D17*
%TO.C,V1*%
X86000000Y-94725000D03*
D18*
X86000000Y-97265000D03*
%TD*%
D11*
%TO.C,R10*%
X186320000Y-89420000D03*
D12*
X186320000Y-74180000D03*
%TD*%
D11*
%TO.C,R1*%
X104500000Y-95120000D03*
D12*
X104500000Y-79880000D03*
%TD*%
D11*
%TO.C,C5*%
X205250000Y-98500000D03*
X202750000Y-98500000D03*
%TD*%
%TO.C,R4*%
X119000000Y-95120000D03*
D12*
X119000000Y-79880000D03*
%TD*%
D16*
%TO.C,U3*%
X140300000Y-83700000D03*
D12*
X137760000Y-83700000D03*
X135220000Y-83700000D03*
X132680000Y-83700000D03*
X132680000Y-91320000D03*
X135220000Y-91320000D03*
X137760000Y-91320000D03*
X140300000Y-91320000D03*
%TD*%
D11*
%TO.C,R7*%
X144620000Y-97000000D03*
D12*
X129380000Y-97000000D03*
%TD*%
D11*
%TO.C,R5*%
X124000000Y-95120000D03*
D12*
X124000000Y-79880000D03*
%TD*%
M02*
