%TF.GenerationSoftware,KiCad,Pcbnew,8.0.3*%
%TF.CreationDate,2024-07-09T16:52:22+05:30*%
%TF.ProjectId,ECG,4543472e-6b69-4636-9164-5f7063625858,rev?*%
%TF.SameCoordinates,Original*%
%TF.FileFunction,Legend,Bot*%
%TF.FilePolarity,Positive*%
%FSLAX46Y46*%
G04 Gerber Fmt 4.6, Leading zero omitted, Abs format (unit mm)*
G04 Created by KiCad (PCBNEW 8.0.3) date 2024-07-09 16:52:22*
%MOMM*%
%LPD*%
G01*
G04 APERTURE LIST*
%ADD10C,0.010000*%
G04 APERTURE END LIST*
D10*
%TO.C,REF\u002A\u002A*%
X144855406Y-111274949D02*
X144881127Y-111290647D01*
X144907778Y-111312227D01*
X144907778Y-111959684D01*
X144881127Y-111981264D01*
X144849767Y-111998739D01*
X144813966Y-111999575D01*
X144782528Y-111979082D01*
X144778652Y-111974416D01*
X144773186Y-111964949D01*
X144768979Y-111951267D01*
X144765867Y-111930748D01*
X144763687Y-111900768D01*
X144762276Y-111858704D01*
X144761471Y-111801932D01*
X144761107Y-111727830D01*
X144761022Y-111633773D01*
X144761022Y-111312227D01*
X144787673Y-111290647D01*
X144811386Y-111275877D01*
X144834400Y-111269067D01*
X144855406Y-111274949D01*
G36*
X144855406Y-111274949D02*
G01*
X144881127Y-111290647D01*
X144907778Y-111312227D01*
X144907778Y-111959684D01*
X144881127Y-111981264D01*
X144849767Y-111998739D01*
X144813966Y-111999575D01*
X144782528Y-111979082D01*
X144778652Y-111974416D01*
X144773186Y-111964949D01*
X144768979Y-111951267D01*
X144765867Y-111930748D01*
X144763687Y-111900768D01*
X144762276Y-111858704D01*
X144761471Y-111801932D01*
X144761107Y-111727830D01*
X144761022Y-111633773D01*
X144761022Y-111312227D01*
X144787673Y-111290647D01*
X144811386Y-111275877D01*
X144834400Y-111269067D01*
X144855406Y-111274949D01*
G37*
X151986137Y-111273463D02*
X152020291Y-111296776D01*
X152048000Y-111324485D01*
X152048000Y-111637537D01*
X152047959Y-111721567D01*
X152047701Y-111795789D01*
X152047030Y-111852541D01*
X152045752Y-111894512D01*
X152043673Y-111924389D01*
X152040599Y-111944861D01*
X152036334Y-111958614D01*
X152030684Y-111968337D01*
X152023455Y-111976717D01*
X151991991Y-111998181D01*
X151956826Y-111999947D01*
X151923822Y-111980267D01*
X151918516Y-111974398D01*
X151913066Y-111965314D01*
X151908900Y-111951973D01*
X151905846Y-111931757D01*
X151903732Y-111902049D01*
X151902386Y-111860232D01*
X151901638Y-111803689D01*
X151901314Y-111729802D01*
X151901245Y-111635956D01*
X151901284Y-111560294D01*
X151901539Y-111482385D01*
X151902183Y-111422375D01*
X151903387Y-111377648D01*
X151905324Y-111345585D01*
X151908164Y-111323571D01*
X151912079Y-111308987D01*
X151917242Y-111299218D01*
X151923822Y-111291645D01*
X151953006Y-111272623D01*
X151986137Y-111273463D01*
G36*
X151986137Y-111273463D02*
G01*
X152020291Y-111296776D01*
X152048000Y-111324485D01*
X152048000Y-111637537D01*
X152047959Y-111721567D01*
X152047701Y-111795789D01*
X152047030Y-111852541D01*
X152045752Y-111894512D01*
X152043673Y-111924389D01*
X152040599Y-111944861D01*
X152036334Y-111958614D01*
X152030684Y-111968337D01*
X152023455Y-111976717D01*
X151991991Y-111998181D01*
X151956826Y-111999947D01*
X151923822Y-111980267D01*
X151918516Y-111974398D01*
X151913066Y-111965314D01*
X151908900Y-111951973D01*
X151905846Y-111931757D01*
X151903732Y-111902049D01*
X151902386Y-111860232D01*
X151901638Y-111803689D01*
X151901314Y-111729802D01*
X151901245Y-111635956D01*
X151901284Y-111560294D01*
X151901539Y-111482385D01*
X151902183Y-111422375D01*
X151903387Y-111377648D01*
X151905324Y-111345585D01*
X151908164Y-111323571D01*
X151912079Y-111308987D01*
X151917242Y-111299218D01*
X151923822Y-111291645D01*
X151953006Y-111272623D01*
X151986137Y-111273463D01*
G37*
X151454562Y-106032850D02*
X151537313Y-106060053D01*
X151612406Y-106105484D01*
X151684298Y-106171302D01*
X151722846Y-106215567D01*
X151762256Y-106273961D01*
X151787446Y-106334586D01*
X151800861Y-106403865D01*
X151804948Y-106488222D01*
X151804669Y-106534307D01*
X151802460Y-106575450D01*
X151796894Y-106607582D01*
X151786586Y-106638122D01*
X151770148Y-106674489D01*
X151756200Y-106701728D01*
X151697665Y-106787429D01*
X151625619Y-106856617D01*
X151541947Y-106907741D01*
X151448531Y-106939250D01*
X151415434Y-106946225D01*
X151374960Y-106953094D01*
X151341999Y-106954919D01*
X151307698Y-106951947D01*
X151263200Y-106944426D01*
X151211934Y-106932002D01*
X151121434Y-106894112D01*
X151042345Y-106839836D01*
X150976528Y-106771770D01*
X150925840Y-106692511D01*
X150892140Y-106604654D01*
X150877286Y-106510795D01*
X150883136Y-106413530D01*
X150909399Y-106317220D01*
X150954418Y-106228494D01*
X151015373Y-106153419D01*
X151090184Y-106093641D01*
X151176768Y-106050809D01*
X151273043Y-106026571D01*
X151376928Y-106022576D01*
X151454562Y-106032850D01*
G36*
X151454562Y-106032850D02*
G01*
X151537313Y-106060053D01*
X151612406Y-106105484D01*
X151684298Y-106171302D01*
X151722846Y-106215567D01*
X151762256Y-106273961D01*
X151787446Y-106334586D01*
X151800861Y-106403865D01*
X151804948Y-106488222D01*
X151804669Y-106534307D01*
X151802460Y-106575450D01*
X151796894Y-106607582D01*
X151786586Y-106638122D01*
X151770148Y-106674489D01*
X151756200Y-106701728D01*
X151697665Y-106787429D01*
X151625619Y-106856617D01*
X151541947Y-106907741D01*
X151448531Y-106939250D01*
X151415434Y-106946225D01*
X151374960Y-106953094D01*
X151341999Y-106954919D01*
X151307698Y-106951947D01*
X151263200Y-106944426D01*
X151211934Y-106932002D01*
X151121434Y-106894112D01*
X151042345Y-106839836D01*
X150976528Y-106771770D01*
X150925840Y-106692511D01*
X150892140Y-106604654D01*
X150877286Y-106510795D01*
X150883136Y-106413530D01*
X150909399Y-106317220D01*
X150954418Y-106228494D01*
X151015373Y-106153419D01*
X151090184Y-106093641D01*
X151176768Y-106050809D01*
X151273043Y-106026571D01*
X151376928Y-106022576D01*
X151454562Y-106032850D01*
G37*
X144155767Y-111269068D02*
X144249890Y-111269158D01*
X144324405Y-111269498D01*
X144381811Y-111270239D01*
X144424611Y-111271535D01*
X144455304Y-111273537D01*
X144476391Y-111276396D01*
X144490373Y-111280266D01*
X144499750Y-111285298D01*
X144507022Y-111291645D01*
X144525828Y-111324362D01*
X144527275Y-111361939D01*
X144510917Y-111395178D01*
X144509557Y-111396631D01*
X144498354Y-111404992D01*
X144481252Y-111410547D01*
X144454082Y-111413840D01*
X144412678Y-111415418D01*
X144352873Y-111415822D01*
X144213511Y-111415822D01*
X144213511Y-111679589D01*
X144213436Y-111755417D01*
X144213028Y-111822083D01*
X144212046Y-111871867D01*
X144210250Y-111907784D01*
X144207399Y-111932850D01*
X144203253Y-111950081D01*
X144197571Y-111962492D01*
X144190114Y-111973100D01*
X144187824Y-111975906D01*
X144156646Y-111998548D01*
X144122266Y-112000112D01*
X144089334Y-111980267D01*
X144082355Y-111972191D01*
X144076883Y-111961593D01*
X144072863Y-111945749D01*
X144070072Y-111921773D01*
X144068288Y-111886774D01*
X144067289Y-111837864D01*
X144066852Y-111772154D01*
X144066756Y-111686756D01*
X144066756Y-111415822D01*
X143920820Y-111415822D01*
X143909720Y-111415821D01*
X143853202Y-111415596D01*
X143814358Y-111414457D01*
X143788965Y-111411657D01*
X143772804Y-111406450D01*
X143761652Y-111398089D01*
X143751289Y-111385826D01*
X143735441Y-111355138D01*
X143738543Y-111321358D01*
X143764187Y-111288822D01*
X143769129Y-111285105D01*
X143779338Y-111280269D01*
X143794764Y-111276506D01*
X143817886Y-111273683D01*
X143851183Y-111271670D01*
X143897137Y-111270333D01*
X143958228Y-111269542D01*
X144036935Y-111269163D01*
X144135740Y-111269067D01*
X144155767Y-111269068D01*
G36*
X144155767Y-111269068D02*
G01*
X144249890Y-111269158D01*
X144324405Y-111269498D01*
X144381811Y-111270239D01*
X144424611Y-111271535D01*
X144455304Y-111273537D01*
X144476391Y-111276396D01*
X144490373Y-111280266D01*
X144499750Y-111285298D01*
X144507022Y-111291645D01*
X144525828Y-111324362D01*
X144527275Y-111361939D01*
X144510917Y-111395178D01*
X144509557Y-111396631D01*
X144498354Y-111404992D01*
X144481252Y-111410547D01*
X144454082Y-111413840D01*
X144412678Y-111415418D01*
X144352873Y-111415822D01*
X144213511Y-111415822D01*
X144213511Y-111679589D01*
X144213436Y-111755417D01*
X144213028Y-111822083D01*
X144212046Y-111871867D01*
X144210250Y-111907784D01*
X144207399Y-111932850D01*
X144203253Y-111950081D01*
X144197571Y-111962492D01*
X144190114Y-111973100D01*
X144187824Y-111975906D01*
X144156646Y-111998548D01*
X144122266Y-112000112D01*
X144089334Y-111980267D01*
X144082355Y-111972191D01*
X144076883Y-111961593D01*
X144072863Y-111945749D01*
X144070072Y-111921773D01*
X144068288Y-111886774D01*
X144067289Y-111837864D01*
X144066852Y-111772154D01*
X144066756Y-111686756D01*
X144066756Y-111415822D01*
X143920820Y-111415822D01*
X143909720Y-111415821D01*
X143853202Y-111415596D01*
X143814358Y-111414457D01*
X143788965Y-111411657D01*
X143772804Y-111406450D01*
X143761652Y-111398089D01*
X143751289Y-111385826D01*
X143735441Y-111355138D01*
X143738543Y-111321358D01*
X143764187Y-111288822D01*
X143769129Y-111285105D01*
X143779338Y-111280269D01*
X143794764Y-111276506D01*
X143817886Y-111273683D01*
X143851183Y-111271670D01*
X143897137Y-111270333D01*
X143958228Y-111269542D01*
X144036935Y-111269163D01*
X144135740Y-111269067D01*
X144155767Y-111269068D01*
G37*
X143479734Y-111291645D02*
X143485366Y-111297835D01*
X143490456Y-111306041D01*
X143494543Y-111317817D01*
X143497721Y-111335276D01*
X143500087Y-111360530D01*
X143501738Y-111395690D01*
X143502769Y-111442869D01*
X143503277Y-111504177D01*
X143503359Y-111581727D01*
X143503109Y-111677631D01*
X143502625Y-111794000D01*
X143502557Y-111808175D01*
X143501971Y-111869937D01*
X143500648Y-111913620D01*
X143498103Y-111943001D01*
X143493848Y-111961855D01*
X143487396Y-111973959D01*
X143478262Y-111983089D01*
X143444804Y-112000506D01*
X143409856Y-111997604D01*
X143378953Y-111973100D01*
X143369944Y-111959897D01*
X143362492Y-111941361D01*
X143358124Y-111915333D01*
X143356069Y-111876787D01*
X143355556Y-111820700D01*
X143355556Y-111698045D01*
X142858845Y-111698045D01*
X142858845Y-111832871D01*
X142858772Y-111868662D01*
X142858009Y-111914992D01*
X142855833Y-111945526D01*
X142851536Y-111964557D01*
X142844412Y-111976374D01*
X142833755Y-111985271D01*
X142801504Y-112000341D01*
X142766217Y-111997673D01*
X142735486Y-111973100D01*
X142730831Y-111966845D01*
X142724895Y-111956321D01*
X142720364Y-111942391D01*
X142717048Y-111922317D01*
X142714759Y-111893360D01*
X142713308Y-111852780D01*
X142712505Y-111797840D01*
X142712162Y-111725799D01*
X142712089Y-111633920D01*
X142712089Y-111324485D01*
X142739798Y-111296776D01*
X142771177Y-111274533D01*
X142804406Y-111271844D01*
X142836267Y-111291645D01*
X142844553Y-111301415D01*
X142851965Y-111317307D01*
X142856302Y-111341275D01*
X142858338Y-111378148D01*
X142858845Y-111432756D01*
X142858845Y-111551289D01*
X143355556Y-111551289D01*
X143355556Y-111435776D01*
X143355994Y-111384078D01*
X143357958Y-111349554D01*
X143362474Y-111326978D01*
X143370567Y-111311126D01*
X143383265Y-111296776D01*
X143414643Y-111274533D01*
X143447872Y-111271844D01*
X143479734Y-111291645D01*
G36*
X143479734Y-111291645D02*
G01*
X143485366Y-111297835D01*
X143490456Y-111306041D01*
X143494543Y-111317817D01*
X143497721Y-111335276D01*
X143500087Y-111360530D01*
X143501738Y-111395690D01*
X143502769Y-111442869D01*
X143503277Y-111504177D01*
X143503359Y-111581727D01*
X143503109Y-111677631D01*
X143502625Y-111794000D01*
X143502557Y-111808175D01*
X143501971Y-111869937D01*
X143500648Y-111913620D01*
X143498103Y-111943001D01*
X143493848Y-111961855D01*
X143487396Y-111973959D01*
X143478262Y-111983089D01*
X143444804Y-112000506D01*
X143409856Y-111997604D01*
X143378953Y-111973100D01*
X143369944Y-111959897D01*
X143362492Y-111941361D01*
X143358124Y-111915333D01*
X143356069Y-111876787D01*
X143355556Y-111820700D01*
X143355556Y-111698045D01*
X142858845Y-111698045D01*
X142858845Y-111832871D01*
X142858772Y-111868662D01*
X142858009Y-111914992D01*
X142855833Y-111945526D01*
X142851536Y-111964557D01*
X142844412Y-111976374D01*
X142833755Y-111985271D01*
X142801504Y-112000341D01*
X142766217Y-111997673D01*
X142735486Y-111973100D01*
X142730831Y-111966845D01*
X142724895Y-111956321D01*
X142720364Y-111942391D01*
X142717048Y-111922317D01*
X142714759Y-111893360D01*
X142713308Y-111852780D01*
X142712505Y-111797840D01*
X142712162Y-111725799D01*
X142712089Y-111633920D01*
X142712089Y-111324485D01*
X142739798Y-111296776D01*
X142771177Y-111274533D01*
X142804406Y-111271844D01*
X142836267Y-111291645D01*
X142844553Y-111301415D01*
X142851965Y-111317307D01*
X142856302Y-111341275D01*
X142858338Y-111378148D01*
X142858845Y-111432756D01*
X142858845Y-111551289D01*
X143355556Y-111551289D01*
X143355556Y-111435776D01*
X143355994Y-111384078D01*
X143357958Y-111349554D01*
X143362474Y-111326978D01*
X143370567Y-111311126D01*
X143383265Y-111296776D01*
X143414643Y-111274533D01*
X143447872Y-111271844D01*
X143479734Y-111291645D01*
G37*
X148185133Y-111880396D02*
X148183163Y-111913175D01*
X148180235Y-111936095D01*
X148176158Y-111951897D01*
X148170743Y-111963319D01*
X148163803Y-111973100D01*
X148140406Y-112002845D01*
X147974714Y-112002251D01*
X147939918Y-112001953D01*
X147841435Y-111998522D01*
X147760473Y-111990839D01*
X147693379Y-111978282D01*
X147636496Y-111960227D01*
X147586169Y-111936052D01*
X147582810Y-111934135D01*
X147524998Y-111897417D01*
X147482644Y-111860451D01*
X147449828Y-111816966D01*
X147420628Y-111760689D01*
X147416346Y-111751073D01*
X147393769Y-111687887D01*
X147388034Y-111642333D01*
X147537279Y-111642333D01*
X147542892Y-111667061D01*
X147548618Y-111682939D01*
X147581548Y-111742847D01*
X147628886Y-111788600D01*
X147692652Y-111821736D01*
X147774861Y-111843790D01*
X147777655Y-111844292D01*
X147823940Y-111850255D01*
X147880336Y-111854483D01*
X147935274Y-111856089D01*
X148029156Y-111856089D01*
X148029156Y-111415822D01*
X147941667Y-111416270D01*
X147874747Y-111418746D01*
X147782349Y-111429998D01*
X147703034Y-111449537D01*
X147641060Y-111476511D01*
X147610120Y-111497240D01*
X147582000Y-111527006D01*
X147558660Y-111569434D01*
X147551533Y-111585400D01*
X147539709Y-111617902D01*
X147537279Y-111642333D01*
X147388034Y-111642333D01*
X147386797Y-111632509D01*
X147395399Y-111577483D01*
X147419541Y-111515351D01*
X147420337Y-111513658D01*
X147460788Y-111444236D01*
X147511473Y-111387638D01*
X147574198Y-111343070D01*
X147650774Y-111309741D01*
X147743009Y-111286861D01*
X147852712Y-111273636D01*
X147981691Y-111269275D01*
X147985263Y-111269270D01*
X148045283Y-111269410D01*
X148087214Y-111270446D01*
X148115328Y-111273040D01*
X148133897Y-111277853D01*
X148147194Y-111285544D01*
X148159491Y-111296776D01*
X148187200Y-111324485D01*
X148187200Y-111633920D01*
X148187175Y-111695526D01*
X148186950Y-111774311D01*
X148186332Y-111835021D01*
X148185775Y-111856089D01*
X148185133Y-111880396D01*
G36*
X148185133Y-111880396D02*
G01*
X148183163Y-111913175D01*
X148180235Y-111936095D01*
X148176158Y-111951897D01*
X148170743Y-111963319D01*
X148163803Y-111973100D01*
X148140406Y-112002845D01*
X147974714Y-112002251D01*
X147939918Y-112001953D01*
X147841435Y-111998522D01*
X147760473Y-111990839D01*
X147693379Y-111978282D01*
X147636496Y-111960227D01*
X147586169Y-111936052D01*
X147582810Y-111934135D01*
X147524998Y-111897417D01*
X147482644Y-111860451D01*
X147449828Y-111816966D01*
X147420628Y-111760689D01*
X147416346Y-111751073D01*
X147393769Y-111687887D01*
X147388034Y-111642333D01*
X147537279Y-111642333D01*
X147542892Y-111667061D01*
X147548618Y-111682939D01*
X147581548Y-111742847D01*
X147628886Y-111788600D01*
X147692652Y-111821736D01*
X147774861Y-111843790D01*
X147777655Y-111844292D01*
X147823940Y-111850255D01*
X147880336Y-111854483D01*
X147935274Y-111856089D01*
X148029156Y-111856089D01*
X148029156Y-111415822D01*
X147941667Y-111416270D01*
X147874747Y-111418746D01*
X147782349Y-111429998D01*
X147703034Y-111449537D01*
X147641060Y-111476511D01*
X147610120Y-111497240D01*
X147582000Y-111527006D01*
X147558660Y-111569434D01*
X147551533Y-111585400D01*
X147539709Y-111617902D01*
X147537279Y-111642333D01*
X147388034Y-111642333D01*
X147386797Y-111632509D01*
X147395399Y-111577483D01*
X147419541Y-111515351D01*
X147420337Y-111513658D01*
X147460788Y-111444236D01*
X147511473Y-111387638D01*
X147574198Y-111343070D01*
X147650774Y-111309741D01*
X147743009Y-111286861D01*
X147852712Y-111273636D01*
X147981691Y-111269275D01*
X147985263Y-111269270D01*
X148045283Y-111269410D01*
X148087214Y-111270446D01*
X148115328Y-111273040D01*
X148133897Y-111277853D01*
X148147194Y-111285544D01*
X148159491Y-111296776D01*
X148187200Y-111324485D01*
X148187200Y-111633920D01*
X148187175Y-111695526D01*
X148186950Y-111774311D01*
X148186332Y-111835021D01*
X148185775Y-111856089D01*
X148185133Y-111880396D01*
G37*
X155276817Y-111454427D02*
X155276870Y-111535041D01*
X155276622Y-111635956D01*
X155276583Y-111711617D01*
X155276328Y-111789526D01*
X155275684Y-111849536D01*
X155274480Y-111894264D01*
X155272543Y-111926326D01*
X155269703Y-111948340D01*
X155265788Y-111962924D01*
X155260626Y-111972694D01*
X155254045Y-111980267D01*
X155247077Y-111986501D01*
X155234079Y-111993801D01*
X155214931Y-111998554D01*
X155185528Y-112001292D01*
X155141762Y-112002545D01*
X155079528Y-112002845D01*
X155030582Y-112002469D01*
X154923722Y-111998041D01*
X154834494Y-111987953D01*
X154759696Y-111971365D01*
X154696125Y-111947435D01*
X154640579Y-111915321D01*
X154589854Y-111874182D01*
X154583866Y-111868330D01*
X154546999Y-111819821D01*
X154515899Y-111759013D01*
X154494417Y-111694769D01*
X154489136Y-111656026D01*
X154636353Y-111656026D01*
X154654635Y-111706961D01*
X154684305Y-111752878D01*
X154731002Y-111795287D01*
X154792392Y-111825090D01*
X154871538Y-111844226D01*
X154873028Y-111844464D01*
X154921999Y-111850256D01*
X154980693Y-111854396D01*
X155036734Y-111856004D01*
X155129867Y-111856089D01*
X155129867Y-111415822D01*
X155053667Y-111415808D01*
X155050639Y-111415817D01*
X154999519Y-111417782D01*
X154939416Y-111422507D01*
X154882708Y-111429035D01*
X154832750Y-111438331D01*
X154757998Y-111464600D01*
X154700489Y-111503899D01*
X154658988Y-111556933D01*
X154637771Y-111608200D01*
X154636353Y-111656026D01*
X154489136Y-111656026D01*
X154486400Y-111635956D01*
X154487679Y-111614739D01*
X154499991Y-111557323D01*
X154522520Y-111497413D01*
X154551750Y-111443363D01*
X154584167Y-111403532D01*
X154603708Y-111386510D01*
X154658420Y-111347322D01*
X154718723Y-111317193D01*
X154787919Y-111295232D01*
X154869311Y-111280550D01*
X154966200Y-111272259D01*
X155081889Y-111269467D01*
X155121371Y-111269066D01*
X155167082Y-111268653D01*
X155202883Y-111270457D01*
X155229974Y-111276739D01*
X155249556Y-111289759D01*
X155262830Y-111311778D01*
X155270998Y-111345055D01*
X155275260Y-111391851D01*
X155275857Y-111415822D01*
X155276817Y-111454427D01*
G36*
X155276817Y-111454427D02*
G01*
X155276870Y-111535041D01*
X155276622Y-111635956D01*
X155276583Y-111711617D01*
X155276328Y-111789526D01*
X155275684Y-111849536D01*
X155274480Y-111894264D01*
X155272543Y-111926326D01*
X155269703Y-111948340D01*
X155265788Y-111962924D01*
X155260626Y-111972694D01*
X155254045Y-111980267D01*
X155247077Y-111986501D01*
X155234079Y-111993801D01*
X155214931Y-111998554D01*
X155185528Y-112001292D01*
X155141762Y-112002545D01*
X155079528Y-112002845D01*
X155030582Y-112002469D01*
X154923722Y-111998041D01*
X154834494Y-111987953D01*
X154759696Y-111971365D01*
X154696125Y-111947435D01*
X154640579Y-111915321D01*
X154589854Y-111874182D01*
X154583866Y-111868330D01*
X154546999Y-111819821D01*
X154515899Y-111759013D01*
X154494417Y-111694769D01*
X154489136Y-111656026D01*
X154636353Y-111656026D01*
X154654635Y-111706961D01*
X154684305Y-111752878D01*
X154731002Y-111795287D01*
X154792392Y-111825090D01*
X154871538Y-111844226D01*
X154873028Y-111844464D01*
X154921999Y-111850256D01*
X154980693Y-111854396D01*
X155036734Y-111856004D01*
X155129867Y-111856089D01*
X155129867Y-111415822D01*
X155053667Y-111415808D01*
X155050639Y-111415817D01*
X154999519Y-111417782D01*
X154939416Y-111422507D01*
X154882708Y-111429035D01*
X154832750Y-111438331D01*
X154757998Y-111464600D01*
X154700489Y-111503899D01*
X154658988Y-111556933D01*
X154637771Y-111608200D01*
X154636353Y-111656026D01*
X154489136Y-111656026D01*
X154486400Y-111635956D01*
X154487679Y-111614739D01*
X154499991Y-111557323D01*
X154522520Y-111497413D01*
X154551750Y-111443363D01*
X154584167Y-111403532D01*
X154603708Y-111386510D01*
X154658420Y-111347322D01*
X154718723Y-111317193D01*
X154787919Y-111295232D01*
X154869311Y-111280550D01*
X154966200Y-111272259D01*
X155081889Y-111269467D01*
X155121371Y-111269066D01*
X155167082Y-111268653D01*
X155202883Y-111270457D01*
X155229974Y-111276739D01*
X155249556Y-111289759D01*
X155262830Y-111311778D01*
X155270998Y-111345055D01*
X155275260Y-111391851D01*
X155275857Y-111415822D01*
X155276817Y-111454427D01*
G37*
X150331893Y-111267892D02*
X150343301Y-111274029D01*
X150353850Y-111284691D01*
X150365136Y-111298811D01*
X150369589Y-111304772D01*
X150375588Y-111315268D01*
X150380167Y-111329093D01*
X150383519Y-111348998D01*
X150385833Y-111377732D01*
X150387301Y-111418045D01*
X150388113Y-111472687D01*
X150388460Y-111544407D01*
X150388534Y-111635956D01*
X150388511Y-111694486D01*
X150388292Y-111773573D01*
X150387683Y-111834516D01*
X150386492Y-111880062D01*
X150384529Y-111912963D01*
X150381603Y-111935968D01*
X150377523Y-111951826D01*
X150372097Y-111963286D01*
X150365136Y-111973100D01*
X150334708Y-111997493D01*
X150299765Y-112000372D01*
X150262784Y-111981282D01*
X150258600Y-111977807D01*
X150250424Y-111969279D01*
X150244364Y-111957728D01*
X150239981Y-111939896D01*
X150236839Y-111912524D01*
X150234502Y-111872354D01*
X150232531Y-111816128D01*
X150230489Y-111740589D01*
X150224845Y-111521458D01*
X149959556Y-111762099D01*
X149885722Y-111828875D01*
X149820542Y-111886991D01*
X149768348Y-111931949D01*
X149727273Y-111964871D01*
X149695455Y-111986879D01*
X149671026Y-111999094D01*
X149652124Y-112002639D01*
X149636883Y-111998636D01*
X149623439Y-111988207D01*
X149609927Y-111972474D01*
X149603682Y-111963991D01*
X149598050Y-111953413D01*
X149593839Y-111939255D01*
X149590887Y-111918803D01*
X149589032Y-111889342D01*
X149588113Y-111848161D01*
X149587968Y-111792544D01*
X149588435Y-111719779D01*
X149589352Y-111627151D01*
X149592667Y-111312199D01*
X149619318Y-111290633D01*
X149645383Y-111274441D01*
X149678241Y-111271670D01*
X149712772Y-111290623D01*
X149717084Y-111294208D01*
X149725216Y-111302737D01*
X149731245Y-111314329D01*
X149735606Y-111332235D01*
X149738734Y-111359706D01*
X149741063Y-111399994D01*
X149743029Y-111456351D01*
X149745067Y-111532029D01*
X149750711Y-111751878D01*
X149931334Y-111588084D01*
X150018072Y-111509451D01*
X150093843Y-111441058D01*
X150155980Y-111385708D01*
X150206078Y-111342338D01*
X150245735Y-111309881D01*
X150276548Y-111287273D01*
X150300114Y-111273448D01*
X150318030Y-111267343D01*
X150331893Y-111267892D01*
G36*
X150331893Y-111267892D02*
G01*
X150343301Y-111274029D01*
X150353850Y-111284691D01*
X150365136Y-111298811D01*
X150369589Y-111304772D01*
X150375588Y-111315268D01*
X150380167Y-111329093D01*
X150383519Y-111348998D01*
X150385833Y-111377732D01*
X150387301Y-111418045D01*
X150388113Y-111472687D01*
X150388460Y-111544407D01*
X150388534Y-111635956D01*
X150388511Y-111694486D01*
X150388292Y-111773573D01*
X150387683Y-111834516D01*
X150386492Y-111880062D01*
X150384529Y-111912963D01*
X150381603Y-111935968D01*
X150377523Y-111951826D01*
X150372097Y-111963286D01*
X150365136Y-111973100D01*
X150334708Y-111997493D01*
X150299765Y-112000372D01*
X150262784Y-111981282D01*
X150258600Y-111977807D01*
X150250424Y-111969279D01*
X150244364Y-111957728D01*
X150239981Y-111939896D01*
X150236839Y-111912524D01*
X150234502Y-111872354D01*
X150232531Y-111816128D01*
X150230489Y-111740589D01*
X150224845Y-111521458D01*
X149959556Y-111762099D01*
X149885722Y-111828875D01*
X149820542Y-111886991D01*
X149768348Y-111931949D01*
X149727273Y-111964871D01*
X149695455Y-111986879D01*
X149671026Y-111999094D01*
X149652124Y-112002639D01*
X149636883Y-111998636D01*
X149623439Y-111988207D01*
X149609927Y-111972474D01*
X149603682Y-111963991D01*
X149598050Y-111953413D01*
X149593839Y-111939255D01*
X149590887Y-111918803D01*
X149589032Y-111889342D01*
X149588113Y-111848161D01*
X149587968Y-111792544D01*
X149588435Y-111719779D01*
X149589352Y-111627151D01*
X149592667Y-111312199D01*
X149619318Y-111290633D01*
X149645383Y-111274441D01*
X149678241Y-111271670D01*
X149712772Y-111290623D01*
X149717084Y-111294208D01*
X149725216Y-111302737D01*
X149731245Y-111314329D01*
X149735606Y-111332235D01*
X149738734Y-111359706D01*
X149741063Y-111399994D01*
X149743029Y-111456351D01*
X149745067Y-111532029D01*
X149750711Y-111751878D01*
X149931334Y-111588084D01*
X150018072Y-111509451D01*
X150093843Y-111441058D01*
X150155980Y-111385708D01*
X150206078Y-111342338D01*
X150245735Y-111309881D01*
X150276548Y-111287273D01*
X150300114Y-111273448D01*
X150318030Y-111267343D01*
X150331893Y-111267892D01*
G37*
X151129150Y-111274179D02*
X151235157Y-111290494D01*
X151328969Y-111318545D01*
X151407765Y-111357452D01*
X151468719Y-111406334D01*
X151494789Y-111439195D01*
X151524297Y-111488394D01*
X151549568Y-111542252D01*
X151567218Y-111593419D01*
X151573858Y-111634544D01*
X151572298Y-111654259D01*
X151559357Y-111705592D01*
X151536194Y-111762118D01*
X151506302Y-111816035D01*
X151473173Y-111859539D01*
X151462977Y-111869887D01*
X151395892Y-111921662D01*
X151315766Y-111961554D01*
X151229556Y-111985956D01*
X151174592Y-111994068D01*
X151081139Y-112000673D01*
X150991358Y-111998586D01*
X150908869Y-111988340D01*
X150837286Y-111970470D01*
X150780228Y-111945508D01*
X150741311Y-111913988D01*
X150739936Y-111912012D01*
X150732848Y-111886786D01*
X150728609Y-111839535D01*
X150727200Y-111770071D01*
X150728060Y-111707838D01*
X150732780Y-111660456D01*
X150744470Y-111628353D01*
X150766239Y-111608800D01*
X150801198Y-111599070D01*
X150852456Y-111596433D01*
X150923123Y-111598161D01*
X150971743Y-111601173D01*
X151021939Y-111609366D01*
X151054433Y-111623419D01*
X151071892Y-111644654D01*
X151076983Y-111674394D01*
X151076877Y-111678936D01*
X151068175Y-111713730D01*
X151044165Y-111737147D01*
X151002900Y-111750347D01*
X150942431Y-111754489D01*
X150873956Y-111754489D01*
X150873956Y-111792841D01*
X150874006Y-111801976D01*
X150876227Y-111819227D01*
X150885494Y-111829521D01*
X150906875Y-111836459D01*
X150945436Y-111843641D01*
X150950910Y-111844575D01*
X151047860Y-111854478D01*
X151137852Y-111851559D01*
X151218760Y-111836829D01*
X151288459Y-111811299D01*
X151344824Y-111775978D01*
X151385729Y-111731879D01*
X151409051Y-111680012D01*
X151412663Y-111621388D01*
X151407145Y-111592494D01*
X151380461Y-111536604D01*
X151334273Y-111490945D01*
X151269291Y-111456108D01*
X151186229Y-111432690D01*
X151161555Y-111428241D01*
X151072226Y-111417742D01*
X150992419Y-111418971D01*
X150914326Y-111431906D01*
X150879183Y-111438696D01*
X150833745Y-111439713D01*
X150802430Y-111427182D01*
X150782277Y-111400395D01*
X150775893Y-111372148D01*
X150785379Y-111340924D01*
X150794708Y-111327499D01*
X150828943Y-111303967D01*
X150881565Y-111286095D01*
X150950081Y-111274599D01*
X151032000Y-111270192D01*
X151129150Y-111274179D01*
G36*
X151129150Y-111274179D02*
G01*
X151235157Y-111290494D01*
X151328969Y-111318545D01*
X151407765Y-111357452D01*
X151468719Y-111406334D01*
X151494789Y-111439195D01*
X151524297Y-111488394D01*
X151549568Y-111542252D01*
X151567218Y-111593419D01*
X151573858Y-111634544D01*
X151572298Y-111654259D01*
X151559357Y-111705592D01*
X151536194Y-111762118D01*
X151506302Y-111816035D01*
X151473173Y-111859539D01*
X151462977Y-111869887D01*
X151395892Y-111921662D01*
X151315766Y-111961554D01*
X151229556Y-111985956D01*
X151174592Y-111994068D01*
X151081139Y-112000673D01*
X150991358Y-111998586D01*
X150908869Y-111988340D01*
X150837286Y-111970470D01*
X150780228Y-111945508D01*
X150741311Y-111913988D01*
X150739936Y-111912012D01*
X150732848Y-111886786D01*
X150728609Y-111839535D01*
X150727200Y-111770071D01*
X150728060Y-111707838D01*
X150732780Y-111660456D01*
X150744470Y-111628353D01*
X150766239Y-111608800D01*
X150801198Y-111599070D01*
X150852456Y-111596433D01*
X150923123Y-111598161D01*
X150971743Y-111601173D01*
X151021939Y-111609366D01*
X151054433Y-111623419D01*
X151071892Y-111644654D01*
X151076983Y-111674394D01*
X151076877Y-111678936D01*
X151068175Y-111713730D01*
X151044165Y-111737147D01*
X151002900Y-111750347D01*
X150942431Y-111754489D01*
X150873956Y-111754489D01*
X150873956Y-111792841D01*
X150874006Y-111801976D01*
X150876227Y-111819227D01*
X150885494Y-111829521D01*
X150906875Y-111836459D01*
X150945436Y-111843641D01*
X150950910Y-111844575D01*
X151047860Y-111854478D01*
X151137852Y-111851559D01*
X151218760Y-111836829D01*
X151288459Y-111811299D01*
X151344824Y-111775978D01*
X151385729Y-111731879D01*
X151409051Y-111680012D01*
X151412663Y-111621388D01*
X151407145Y-111592494D01*
X151380461Y-111536604D01*
X151334273Y-111490945D01*
X151269291Y-111456108D01*
X151186229Y-111432690D01*
X151161555Y-111428241D01*
X151072226Y-111417742D01*
X150992419Y-111418971D01*
X150914326Y-111431906D01*
X150879183Y-111438696D01*
X150833745Y-111439713D01*
X150802430Y-111427182D01*
X150782277Y-111400395D01*
X150775893Y-111372148D01*
X150785379Y-111340924D01*
X150794708Y-111327499D01*
X150828943Y-111303967D01*
X150881565Y-111286095D01*
X150950081Y-111274599D01*
X151032000Y-111270192D01*
X151129150Y-111274179D01*
G37*
X149179803Y-111298811D02*
X149184752Y-111305495D01*
X149190596Y-111316066D01*
X149195057Y-111330153D01*
X149198321Y-111350478D01*
X149200574Y-111379765D01*
X149202002Y-111420737D01*
X149202792Y-111476117D01*
X149203129Y-111548628D01*
X149203200Y-111640994D01*
X149203171Y-111706911D01*
X149202939Y-111785228D01*
X149202319Y-111845496D01*
X149201126Y-111890393D01*
X149199179Y-111922602D01*
X149196294Y-111944800D01*
X149192288Y-111959669D01*
X149186979Y-111969889D01*
X149180183Y-111978138D01*
X149175668Y-111982795D01*
X149167438Y-111989282D01*
X149156078Y-111994194D01*
X149138810Y-111997749D01*
X149112855Y-112000167D01*
X149075436Y-112001667D01*
X149023773Y-112002467D01*
X148955089Y-112002787D01*
X148866606Y-112002845D01*
X148846931Y-112002838D01*
X148759906Y-112002572D01*
X148692254Y-112001806D01*
X148641299Y-112000392D01*
X148604367Y-111998180D01*
X148578783Y-111995022D01*
X148561871Y-111990769D01*
X148550957Y-111985271D01*
X148540464Y-111975285D01*
X148527203Y-111944168D01*
X148528386Y-111908280D01*
X148544550Y-111876733D01*
X148546739Y-111874457D01*
X148555427Y-111868189D01*
X148568769Y-111863523D01*
X148589752Y-111860227D01*
X148621363Y-111858068D01*
X148666590Y-111856814D01*
X148728420Y-111856231D01*
X148809839Y-111856089D01*
X149056445Y-111856089D01*
X149056445Y-111698045D01*
X148894006Y-111698045D01*
X148858338Y-111697964D01*
X148802568Y-111697167D01*
X148763430Y-111695162D01*
X148736976Y-111691521D01*
X148719259Y-111685812D01*
X148706329Y-111677607D01*
X148702686Y-111674423D01*
X148684278Y-111643448D01*
X148683644Y-111607112D01*
X148701183Y-111573493D01*
X148701245Y-111573424D01*
X148710916Y-111564798D01*
X148724209Y-111558742D01*
X148744917Y-111554811D01*
X148776828Y-111552556D01*
X148823734Y-111551531D01*
X148889424Y-111551289D01*
X149057571Y-111551289D01*
X149054186Y-111486378D01*
X149050800Y-111421467D01*
X148808723Y-111418414D01*
X148783707Y-111418086D01*
X148702087Y-111416606D01*
X148639768Y-111414222D01*
X148594154Y-111410227D01*
X148562652Y-111403913D01*
X148542667Y-111394574D01*
X148531604Y-111381503D01*
X148526869Y-111363992D01*
X148525867Y-111341335D01*
X148525873Y-111338970D01*
X148527027Y-111318939D01*
X148531824Y-111303146D01*
X148542632Y-111291090D01*
X148561817Y-111282267D01*
X148591745Y-111276175D01*
X148634783Y-111272311D01*
X148693299Y-111270174D01*
X148769657Y-111269260D01*
X148866226Y-111269067D01*
X149156406Y-111269067D01*
X149179803Y-111298811D01*
G36*
X149179803Y-111298811D02*
G01*
X149184752Y-111305495D01*
X149190596Y-111316066D01*
X149195057Y-111330153D01*
X149198321Y-111350478D01*
X149200574Y-111379765D01*
X149202002Y-111420737D01*
X149202792Y-111476117D01*
X149203129Y-111548628D01*
X149203200Y-111640994D01*
X149203171Y-111706911D01*
X149202939Y-111785228D01*
X149202319Y-111845496D01*
X149201126Y-111890393D01*
X149199179Y-111922602D01*
X149196294Y-111944800D01*
X149192288Y-111959669D01*
X149186979Y-111969889D01*
X149180183Y-111978138D01*
X149175668Y-111982795D01*
X149167438Y-111989282D01*
X149156078Y-111994194D01*
X149138810Y-111997749D01*
X149112855Y-112000167D01*
X149075436Y-112001667D01*
X149023773Y-112002467D01*
X148955089Y-112002787D01*
X148866606Y-112002845D01*
X148846931Y-112002838D01*
X148759906Y-112002572D01*
X148692254Y-112001806D01*
X148641299Y-112000392D01*
X148604367Y-111998180D01*
X148578783Y-111995022D01*
X148561871Y-111990769D01*
X148550957Y-111985271D01*
X148540464Y-111975285D01*
X148527203Y-111944168D01*
X148528386Y-111908280D01*
X148544550Y-111876733D01*
X148546739Y-111874457D01*
X148555427Y-111868189D01*
X148568769Y-111863523D01*
X148589752Y-111860227D01*
X148621363Y-111858068D01*
X148666590Y-111856814D01*
X148728420Y-111856231D01*
X148809839Y-111856089D01*
X149056445Y-111856089D01*
X149056445Y-111698045D01*
X148894006Y-111698045D01*
X148858338Y-111697964D01*
X148802568Y-111697167D01*
X148763430Y-111695162D01*
X148736976Y-111691521D01*
X148719259Y-111685812D01*
X148706329Y-111677607D01*
X148702686Y-111674423D01*
X148684278Y-111643448D01*
X148683644Y-111607112D01*
X148701183Y-111573493D01*
X148701245Y-111573424D01*
X148710916Y-111564798D01*
X148724209Y-111558742D01*
X148744917Y-111554811D01*
X148776828Y-111552556D01*
X148823734Y-111551531D01*
X148889424Y-111551289D01*
X149057571Y-111551289D01*
X149054186Y-111486378D01*
X149050800Y-111421467D01*
X148808723Y-111418414D01*
X148783707Y-111418086D01*
X148702087Y-111416606D01*
X148639768Y-111414222D01*
X148594154Y-111410227D01*
X148562652Y-111403913D01*
X148542667Y-111394574D01*
X148531604Y-111381503D01*
X148526869Y-111363992D01*
X148525867Y-111341335D01*
X148525873Y-111338970D01*
X148527027Y-111318939D01*
X148531824Y-111303146D01*
X148542632Y-111291090D01*
X148561817Y-111282267D01*
X148591745Y-111276175D01*
X148634783Y-111272311D01*
X148693299Y-111270174D01*
X148769657Y-111269260D01*
X148866226Y-111269067D01*
X149156406Y-111269067D01*
X149179803Y-111298811D01*
G37*
X153856734Y-111269083D02*
X153933831Y-111269275D01*
X153992777Y-111269860D01*
X154036364Y-111271051D01*
X154067383Y-111273064D01*
X154088625Y-111276112D01*
X154102882Y-111280409D01*
X154112945Y-111286172D01*
X154121606Y-111293612D01*
X154123391Y-111295293D01*
X154130635Y-111302832D01*
X154136277Y-111311850D01*
X154140517Y-111324984D01*
X154143556Y-111344872D01*
X154145594Y-111374151D01*
X154146830Y-111415458D01*
X154147465Y-111471431D01*
X154147700Y-111544707D01*
X154147734Y-111637923D01*
X154147697Y-111710713D01*
X154147448Y-111788889D01*
X154146812Y-111849103D01*
X154145615Y-111893982D01*
X154143684Y-111926152D01*
X154140846Y-111948239D01*
X154136927Y-111962870D01*
X154131755Y-111972670D01*
X154125156Y-111980267D01*
X154121822Y-111983444D01*
X154113300Y-111989554D01*
X154101298Y-111994229D01*
X154083087Y-111997659D01*
X154055940Y-112000036D01*
X154017129Y-112001552D01*
X153963924Y-112002398D01*
X153893598Y-112002765D01*
X153803422Y-112002845D01*
X153761314Y-112002833D01*
X153680167Y-112002651D01*
X153617675Y-112002098D01*
X153571109Y-112000982D01*
X153537741Y-111999113D01*
X153514844Y-111996298D01*
X153499688Y-111992346D01*
X153489546Y-111987066D01*
X153481689Y-111980267D01*
X153466963Y-111958667D01*
X153459111Y-111929467D01*
X153464610Y-111905560D01*
X153481689Y-111878667D01*
X153486668Y-111874059D01*
X153496443Y-111867772D01*
X153510559Y-111863146D01*
X153532054Y-111859930D01*
X153563968Y-111857870D01*
X153609342Y-111856712D01*
X153671213Y-111856202D01*
X153752622Y-111856089D01*
X154000978Y-111856089D01*
X154000978Y-111698045D01*
X153839801Y-111698045D01*
X153803983Y-111697899D01*
X153738359Y-111696176D01*
X153691118Y-111691741D01*
X153659383Y-111683637D01*
X153640277Y-111670906D01*
X153630923Y-111652592D01*
X153628445Y-111627738D01*
X153629242Y-111607482D01*
X153634494Y-111585656D01*
X153647288Y-111570304D01*
X153670628Y-111560309D01*
X153707517Y-111554553D01*
X153760959Y-111551919D01*
X153833958Y-111551289D01*
X154002105Y-111551289D01*
X153998719Y-111486378D01*
X153995334Y-111421467D01*
X153747617Y-111418418D01*
X153685026Y-111417539D01*
X153616565Y-111416095D01*
X153565661Y-111414164D01*
X153529408Y-111411514D01*
X153504901Y-111407910D01*
X153489235Y-111403121D01*
X153479506Y-111396913D01*
X153473491Y-111390510D01*
X153460482Y-111358828D01*
X153464043Y-111323142D01*
X153483818Y-111292084D01*
X153487069Y-111289161D01*
X153496049Y-111282810D01*
X153508153Y-111277957D01*
X153526159Y-111274403D01*
X153552847Y-111271946D01*
X153590997Y-111270385D01*
X153643386Y-111269518D01*
X153712794Y-111269146D01*
X153802001Y-111269067D01*
X153856734Y-111269083D01*
G36*
X153856734Y-111269083D02*
G01*
X153933831Y-111269275D01*
X153992777Y-111269860D01*
X154036364Y-111271051D01*
X154067383Y-111273064D01*
X154088625Y-111276112D01*
X154102882Y-111280409D01*
X154112945Y-111286172D01*
X154121606Y-111293612D01*
X154123391Y-111295293D01*
X154130635Y-111302832D01*
X154136277Y-111311850D01*
X154140517Y-111324984D01*
X154143556Y-111344872D01*
X154145594Y-111374151D01*
X154146830Y-111415458D01*
X154147465Y-111471431D01*
X154147700Y-111544707D01*
X154147734Y-111637923D01*
X154147697Y-111710713D01*
X154147448Y-111788889D01*
X154146812Y-111849103D01*
X154145615Y-111893982D01*
X154143684Y-111926152D01*
X154140846Y-111948239D01*
X154136927Y-111962870D01*
X154131755Y-111972670D01*
X154125156Y-111980267D01*
X154121822Y-111983444D01*
X154113300Y-111989554D01*
X154101298Y-111994229D01*
X154083087Y-111997659D01*
X154055940Y-112000036D01*
X154017129Y-112001552D01*
X153963924Y-112002398D01*
X153893598Y-112002765D01*
X153803422Y-112002845D01*
X153761314Y-112002833D01*
X153680167Y-112002651D01*
X153617675Y-112002098D01*
X153571109Y-112000982D01*
X153537741Y-111999113D01*
X153514844Y-111996298D01*
X153499688Y-111992346D01*
X153489546Y-111987066D01*
X153481689Y-111980267D01*
X153466963Y-111958667D01*
X153459111Y-111929467D01*
X153464610Y-111905560D01*
X153481689Y-111878667D01*
X153486668Y-111874059D01*
X153496443Y-111867772D01*
X153510559Y-111863146D01*
X153532054Y-111859930D01*
X153563968Y-111857870D01*
X153609342Y-111856712D01*
X153671213Y-111856202D01*
X153752622Y-111856089D01*
X154000978Y-111856089D01*
X154000978Y-111698045D01*
X153839801Y-111698045D01*
X153803983Y-111697899D01*
X153738359Y-111696176D01*
X153691118Y-111691741D01*
X153659383Y-111683637D01*
X153640277Y-111670906D01*
X153630923Y-111652592D01*
X153628445Y-111627738D01*
X153629242Y-111607482D01*
X153634494Y-111585656D01*
X153647288Y-111570304D01*
X153670628Y-111560309D01*
X153707517Y-111554553D01*
X153760959Y-111551919D01*
X153833958Y-111551289D01*
X154002105Y-111551289D01*
X153998719Y-111486378D01*
X153995334Y-111421467D01*
X153747617Y-111418418D01*
X153685026Y-111417539D01*
X153616565Y-111416095D01*
X153565661Y-111414164D01*
X153529408Y-111411514D01*
X153504901Y-111407910D01*
X153489235Y-111403121D01*
X153479506Y-111396913D01*
X153473491Y-111390510D01*
X153460482Y-111358828D01*
X153464043Y-111323142D01*
X153483818Y-111292084D01*
X153487069Y-111289161D01*
X153496049Y-111282810D01*
X153508153Y-111277957D01*
X153526159Y-111274403D01*
X153552847Y-111271946D01*
X153590997Y-111270385D01*
X153643386Y-111269518D01*
X153712794Y-111269146D01*
X153802001Y-111269067D01*
X153856734Y-111269083D01*
G37*
X145289702Y-111278478D02*
X145307663Y-111296989D01*
X145328263Y-111328071D01*
X145353095Y-111373756D01*
X145383750Y-111436078D01*
X145421820Y-111517071D01*
X145436454Y-111548454D01*
X145466203Y-111611638D01*
X145492297Y-111666244D01*
X145513292Y-111709290D01*
X145527739Y-111737793D01*
X145534191Y-111748770D01*
X145535550Y-111748189D01*
X145545542Y-111734242D01*
X145562833Y-111704704D01*
X145585430Y-111663087D01*
X145611338Y-111612903D01*
X145627311Y-111581414D01*
X145656261Y-111526061D01*
X145678749Y-111487044D01*
X145696965Y-111461566D01*
X145713096Y-111446831D01*
X145729330Y-111440042D01*
X145747857Y-111438400D01*
X145758360Y-111438875D01*
X145774476Y-111443082D01*
X145789790Y-111453946D01*
X145806388Y-111474219D01*
X145826357Y-111506654D01*
X145851783Y-111554004D01*
X145884752Y-111619022D01*
X145894485Y-111638277D01*
X145918943Y-111684946D01*
X145939178Y-111721109D01*
X145953311Y-111743497D01*
X145959460Y-111748845D01*
X145960827Y-111745573D01*
X145970202Y-111724664D01*
X145987062Y-111687725D01*
X146009979Y-111637874D01*
X146037520Y-111578226D01*
X146068255Y-111511898D01*
X146094970Y-111454677D01*
X146124593Y-111392688D01*
X146147664Y-111346949D01*
X146165643Y-111314908D01*
X146179990Y-111294014D01*
X146192166Y-111281718D01*
X146203632Y-111275466D01*
X146213042Y-111272574D01*
X146238147Y-111272425D01*
X146265290Y-111287768D01*
X146266590Y-111288753D01*
X146288674Y-111311388D01*
X146299723Y-111333613D01*
X146299769Y-111334253D01*
X146295228Y-111351915D01*
X146282364Y-111386481D01*
X146262605Y-111434826D01*
X146237381Y-111493825D01*
X146208119Y-111560355D01*
X146176250Y-111631291D01*
X146143201Y-111703507D01*
X146110401Y-111773880D01*
X146079280Y-111839285D01*
X146051265Y-111896597D01*
X146027786Y-111942692D01*
X146010272Y-111974446D01*
X146000151Y-111988733D01*
X145965743Y-112002102D01*
X145924046Y-111995741D01*
X145918681Y-111991044D01*
X145902852Y-111968893D01*
X145880650Y-111932132D01*
X145854233Y-111884415D01*
X145825760Y-111829393D01*
X145745986Y-111670150D01*
X145672799Y-111816742D01*
X145663103Y-111836032D01*
X145636125Y-111888380D01*
X145612096Y-111933170D01*
X145593332Y-111966154D01*
X145582146Y-111983089D01*
X145581000Y-111984332D01*
X145552879Y-111999619D01*
X145517817Y-112001302D01*
X145486776Y-111988733D01*
X145484350Y-111985884D01*
X145472090Y-111965259D01*
X145452352Y-111927708D01*
X145426448Y-111875880D01*
X145395685Y-111812423D01*
X145361375Y-111739985D01*
X145324825Y-111661216D01*
X145304585Y-111617093D01*
X145267812Y-111536365D01*
X145239355Y-111472687D01*
X145218331Y-111423752D01*
X145203854Y-111387257D01*
X145195039Y-111360895D01*
X145191004Y-111342361D01*
X145190862Y-111329352D01*
X145193730Y-111319561D01*
X145208387Y-111298678D01*
X145234990Y-111278377D01*
X145235745Y-111278035D01*
X145255335Y-111271034D01*
X145272790Y-111270504D01*
X145289702Y-111278478D01*
G36*
X145289702Y-111278478D02*
G01*
X145307663Y-111296989D01*
X145328263Y-111328071D01*
X145353095Y-111373756D01*
X145383750Y-111436078D01*
X145421820Y-111517071D01*
X145436454Y-111548454D01*
X145466203Y-111611638D01*
X145492297Y-111666244D01*
X145513292Y-111709290D01*
X145527739Y-111737793D01*
X145534191Y-111748770D01*
X145535550Y-111748189D01*
X145545542Y-111734242D01*
X145562833Y-111704704D01*
X145585430Y-111663087D01*
X145611338Y-111612903D01*
X145627311Y-111581414D01*
X145656261Y-111526061D01*
X145678749Y-111487044D01*
X145696965Y-111461566D01*
X145713096Y-111446831D01*
X145729330Y-111440042D01*
X145747857Y-111438400D01*
X145758360Y-111438875D01*
X145774476Y-111443082D01*
X145789790Y-111453946D01*
X145806388Y-111474219D01*
X145826357Y-111506654D01*
X145851783Y-111554004D01*
X145884752Y-111619022D01*
X145894485Y-111638277D01*
X145918943Y-111684946D01*
X145939178Y-111721109D01*
X145953311Y-111743497D01*
X145959460Y-111748845D01*
X145960827Y-111745573D01*
X145970202Y-111724664D01*
X145987062Y-111687725D01*
X146009979Y-111637874D01*
X146037520Y-111578226D01*
X146068255Y-111511898D01*
X146094970Y-111454677D01*
X146124593Y-111392688D01*
X146147664Y-111346949D01*
X146165643Y-111314908D01*
X146179990Y-111294014D01*
X146192166Y-111281718D01*
X146203632Y-111275466D01*
X146213042Y-111272574D01*
X146238147Y-111272425D01*
X146265290Y-111287768D01*
X146266590Y-111288753D01*
X146288674Y-111311388D01*
X146299723Y-111333613D01*
X146299769Y-111334253D01*
X146295228Y-111351915D01*
X146282364Y-111386481D01*
X146262605Y-111434826D01*
X146237381Y-111493825D01*
X146208119Y-111560355D01*
X146176250Y-111631291D01*
X146143201Y-111703507D01*
X146110401Y-111773880D01*
X146079280Y-111839285D01*
X146051265Y-111896597D01*
X146027786Y-111942692D01*
X146010272Y-111974446D01*
X146000151Y-111988733D01*
X145965743Y-112002102D01*
X145924046Y-111995741D01*
X145918681Y-111991044D01*
X145902852Y-111968893D01*
X145880650Y-111932132D01*
X145854233Y-111884415D01*
X145825760Y-111829393D01*
X145745986Y-111670150D01*
X145672799Y-111816742D01*
X145663103Y-111836032D01*
X145636125Y-111888380D01*
X145612096Y-111933170D01*
X145593332Y-111966154D01*
X145582146Y-111983089D01*
X145581000Y-111984332D01*
X145552879Y-111999619D01*
X145517817Y-112001302D01*
X145486776Y-111988733D01*
X145484350Y-111985884D01*
X145472090Y-111965259D01*
X145452352Y-111927708D01*
X145426448Y-111875880D01*
X145395685Y-111812423D01*
X145361375Y-111739985D01*
X145324825Y-111661216D01*
X145304585Y-111617093D01*
X145267812Y-111536365D01*
X145239355Y-111472687D01*
X145218331Y-111423752D01*
X145203854Y-111387257D01*
X145195039Y-111360895D01*
X145191004Y-111342361D01*
X145190862Y-111329352D01*
X145193730Y-111319561D01*
X145208387Y-111298678D01*
X145234990Y-111278377D01*
X145235745Y-111278035D01*
X145255335Y-111271034D01*
X145272790Y-111270504D01*
X145289702Y-111278478D01*
G37*
X152840853Y-111269936D02*
X152907100Y-111275366D01*
X152962400Y-111284964D01*
X153013283Y-111299825D01*
X153084595Y-111332958D01*
X153135752Y-111375640D01*
X153166575Y-111427705D01*
X153176889Y-111488983D01*
X153175952Y-111520232D01*
X153170160Y-111545029D01*
X153155353Y-111566699D01*
X153127380Y-111594049D01*
X153119402Y-111601378D01*
X153095692Y-111622281D01*
X153073298Y-111639251D01*
X153049265Y-111653205D01*
X153020637Y-111665056D01*
X152984460Y-111675720D01*
X152937780Y-111686111D01*
X152877641Y-111697146D01*
X152801090Y-111709738D01*
X152705171Y-111724804D01*
X152686808Y-111727838D01*
X152624478Y-111741458D01*
X152579260Y-111757192D01*
X152552976Y-111774263D01*
X152547447Y-111791897D01*
X152550068Y-111796168D01*
X152568000Y-111811233D01*
X152596126Y-111827867D01*
X152608926Y-111833857D01*
X152630224Y-111841050D01*
X152656610Y-111845827D01*
X152692454Y-111848646D01*
X152742128Y-111849964D01*
X152810000Y-111850237D01*
X152827785Y-111850164D01*
X152895406Y-111849053D01*
X152960345Y-111846828D01*
X153015970Y-111843762D01*
X153055651Y-111840127D01*
X153091162Y-111836059D01*
X153120415Y-111835276D01*
X153139315Y-111839876D01*
X153154429Y-111850551D01*
X153158085Y-111854144D01*
X153174427Y-111885918D01*
X153173107Y-111921572D01*
X153154150Y-111952190D01*
X153133780Y-111963796D01*
X153097796Y-111976491D01*
X153055372Y-111986541D01*
X153051922Y-111987140D01*
X153009252Y-111992356D01*
X152951866Y-111996730D01*
X152886849Y-111999818D01*
X152821289Y-112001177D01*
X152805057Y-112001218D01*
X152706744Y-111998741D01*
X152626692Y-111990735D01*
X152561513Y-111976203D01*
X152507817Y-111954149D01*
X152462216Y-111923576D01*
X152421323Y-111883486D01*
X152401202Y-111857259D01*
X152389576Y-111827712D01*
X152386667Y-111787995D01*
X152386808Y-111776026D01*
X152390681Y-111743345D01*
X152403065Y-111716819D01*
X152428230Y-111685971D01*
X152449442Y-111663831D01*
X152475838Y-111641285D01*
X152505555Y-111622917D01*
X152541785Y-111607661D01*
X152587717Y-111594449D01*
X152646544Y-111582214D01*
X152721456Y-111569889D01*
X152815645Y-111556406D01*
X152860957Y-111549396D01*
X152928911Y-111534837D01*
X152978047Y-111518337D01*
X153007614Y-111500439D01*
X153016864Y-111481685D01*
X153005048Y-111462615D01*
X152971416Y-111443771D01*
X152968370Y-111442557D01*
X152922011Y-111430479D01*
X152859361Y-111422279D01*
X152785927Y-111418119D01*
X152707217Y-111418161D01*
X152628739Y-111422569D01*
X152556000Y-111431505D01*
X152552073Y-111432154D01*
X152503257Y-111439861D01*
X152471005Y-111443473D01*
X152450008Y-111442876D01*
X152434954Y-111437954D01*
X152420534Y-111428596D01*
X152419364Y-111427725D01*
X152394847Y-111397351D01*
X152390054Y-111361850D01*
X152405860Y-111327269D01*
X152410406Y-111322813D01*
X152440020Y-111307673D01*
X152487002Y-111294550D01*
X152547306Y-111283750D01*
X152616888Y-111275581D01*
X152691703Y-111270351D01*
X152767706Y-111268367D01*
X152840853Y-111269936D01*
G36*
X152840853Y-111269936D02*
G01*
X152907100Y-111275366D01*
X152962400Y-111284964D01*
X153013283Y-111299825D01*
X153084595Y-111332958D01*
X153135752Y-111375640D01*
X153166575Y-111427705D01*
X153176889Y-111488983D01*
X153175952Y-111520232D01*
X153170160Y-111545029D01*
X153155353Y-111566699D01*
X153127380Y-111594049D01*
X153119402Y-111601378D01*
X153095692Y-111622281D01*
X153073298Y-111639251D01*
X153049265Y-111653205D01*
X153020637Y-111665056D01*
X152984460Y-111675720D01*
X152937780Y-111686111D01*
X152877641Y-111697146D01*
X152801090Y-111709738D01*
X152705171Y-111724804D01*
X152686808Y-111727838D01*
X152624478Y-111741458D01*
X152579260Y-111757192D01*
X152552976Y-111774263D01*
X152547447Y-111791897D01*
X152550068Y-111796168D01*
X152568000Y-111811233D01*
X152596126Y-111827867D01*
X152608926Y-111833857D01*
X152630224Y-111841050D01*
X152656610Y-111845827D01*
X152692454Y-111848646D01*
X152742128Y-111849964D01*
X152810000Y-111850237D01*
X152827785Y-111850164D01*
X152895406Y-111849053D01*
X152960345Y-111846828D01*
X153015970Y-111843762D01*
X153055651Y-111840127D01*
X153091162Y-111836059D01*
X153120415Y-111835276D01*
X153139315Y-111839876D01*
X153154429Y-111850551D01*
X153158085Y-111854144D01*
X153174427Y-111885918D01*
X153173107Y-111921572D01*
X153154150Y-111952190D01*
X153133780Y-111963796D01*
X153097796Y-111976491D01*
X153055372Y-111986541D01*
X153051922Y-111987140D01*
X153009252Y-111992356D01*
X152951866Y-111996730D01*
X152886849Y-111999818D01*
X152821289Y-112001177D01*
X152805057Y-112001218D01*
X152706744Y-111998741D01*
X152626692Y-111990735D01*
X152561513Y-111976203D01*
X152507817Y-111954149D01*
X152462216Y-111923576D01*
X152421323Y-111883486D01*
X152401202Y-111857259D01*
X152389576Y-111827712D01*
X152386667Y-111787995D01*
X152386808Y-111776026D01*
X152390681Y-111743345D01*
X152403065Y-111716819D01*
X152428230Y-111685971D01*
X152449442Y-111663831D01*
X152475838Y-111641285D01*
X152505555Y-111622917D01*
X152541785Y-111607661D01*
X152587717Y-111594449D01*
X152646544Y-111582214D01*
X152721456Y-111569889D01*
X152815645Y-111556406D01*
X152860957Y-111549396D01*
X152928911Y-111534837D01*
X152978047Y-111518337D01*
X153007614Y-111500439D01*
X153016864Y-111481685D01*
X153005048Y-111462615D01*
X152971416Y-111443771D01*
X152968370Y-111442557D01*
X152922011Y-111430479D01*
X152859361Y-111422279D01*
X152785927Y-111418119D01*
X152707217Y-111418161D01*
X152628739Y-111422569D01*
X152556000Y-111431505D01*
X152552073Y-111432154D01*
X152503257Y-111439861D01*
X152471005Y-111443473D01*
X152450008Y-111442876D01*
X152434954Y-111437954D01*
X152420534Y-111428596D01*
X152419364Y-111427725D01*
X152394847Y-111397351D01*
X152390054Y-111361850D01*
X152405860Y-111327269D01*
X152410406Y-111322813D01*
X152440020Y-111307673D01*
X152487002Y-111294550D01*
X152547306Y-111283750D01*
X152616888Y-111275581D01*
X152691703Y-111270351D01*
X152767706Y-111268367D01*
X152840853Y-111269936D01*
G37*
X148988711Y-106962033D02*
X149084268Y-106979523D01*
X149248558Y-107024564D01*
X149402589Y-107087656D01*
X149548509Y-107169915D01*
X149688466Y-107272457D01*
X149824608Y-107396399D01*
X149868473Y-107441661D01*
X149980758Y-107573865D01*
X150073972Y-107711832D01*
X150150719Y-107859750D01*
X150213603Y-108021803D01*
X150217420Y-108033391D01*
X150267507Y-108219392D01*
X150300899Y-108415521D01*
X150317584Y-108617568D01*
X150317551Y-108821325D01*
X150300791Y-109022581D01*
X150267292Y-109217128D01*
X150217044Y-109400756D01*
X150173190Y-109518053D01*
X150095348Y-109680951D01*
X150001828Y-109834866D01*
X149894822Y-109976671D01*
X149776519Y-110103239D01*
X149649111Y-110211441D01*
X149571606Y-110264120D01*
X149444725Y-110333750D01*
X149307243Y-110392468D01*
X149165716Y-110437587D01*
X149026702Y-110466422D01*
X149012597Y-110468106D01*
X148969153Y-110471434D01*
X148911723Y-110474275D01*
X148846122Y-110476373D01*
X148778167Y-110477468D01*
X148651378Y-110475140D01*
X148503673Y-110462136D01*
X148365779Y-110437133D01*
X148232014Y-110399318D01*
X148208562Y-110390889D01*
X148160612Y-110371408D01*
X148104140Y-110346473D01*
X148042379Y-110317722D01*
X147978563Y-110286790D01*
X147915926Y-110255315D01*
X147857703Y-110224934D01*
X147807127Y-110197283D01*
X147767433Y-110173999D01*
X147741854Y-110156718D01*
X147733625Y-110147079D01*
X147735076Y-110143984D01*
X147746250Y-110124079D01*
X147767134Y-110088420D01*
X147796265Y-110039459D01*
X147832181Y-109979646D01*
X147873420Y-109911433D01*
X147918517Y-109837271D01*
X148099785Y-109540008D01*
X148146315Y-109584539D01*
X148237723Y-109662865D01*
X148351334Y-109737439D01*
X148469122Y-109791474D01*
X148589559Y-109824290D01*
X148711117Y-109835211D01*
X148752585Y-109833868D01*
X148870080Y-109815612D01*
X148980089Y-109776617D01*
X149081430Y-109717670D01*
X149172921Y-109639557D01*
X149253380Y-109543064D01*
X149321627Y-109428978D01*
X149337908Y-109394724D01*
X149383982Y-109271240D01*
X149419106Y-109132918D01*
X149443197Y-108983561D01*
X149456173Y-108826973D01*
X149457949Y-108666956D01*
X149448443Y-108507314D01*
X149427572Y-108351850D01*
X149395252Y-108204366D01*
X149351399Y-108068667D01*
X149313982Y-107982076D01*
X149249185Y-107868688D01*
X149173772Y-107775070D01*
X149087418Y-107700959D01*
X148989795Y-107646094D01*
X148880577Y-107610212D01*
X148759439Y-107593051D01*
X148690038Y-107591880D01*
X148567168Y-107606141D01*
X148451664Y-107641241D01*
X148344953Y-107696682D01*
X148248464Y-107771964D01*
X148232720Y-107786440D01*
X148202150Y-107812962D01*
X148179809Y-107830138D01*
X148169691Y-107834787D01*
X148167706Y-107832597D01*
X148153241Y-107813721D01*
X148129400Y-107780397D01*
X148098029Y-107735380D01*
X148060974Y-107681425D01*
X148020083Y-107621285D01*
X147977202Y-107557718D01*
X147934178Y-107493476D01*
X147892857Y-107431315D01*
X147855086Y-107373991D01*
X147822712Y-107324257D01*
X147797582Y-107284868D01*
X147781542Y-107258580D01*
X147776439Y-107248147D01*
X147781050Y-107243941D01*
X147800267Y-107238933D01*
X147809838Y-107236386D01*
X147837809Y-107225249D01*
X147879448Y-107206802D01*
X147930995Y-107182725D01*
X147988690Y-107154699D01*
X147999957Y-107149154D01*
X148177687Y-107069889D01*
X148347490Y-107010385D01*
X148511430Y-106970245D01*
X148671571Y-106949071D01*
X148829977Y-106946466D01*
X148988711Y-106962033D01*
G36*
X148988711Y-106962033D02*
G01*
X149084268Y-106979523D01*
X149248558Y-107024564D01*
X149402589Y-107087656D01*
X149548509Y-107169915D01*
X149688466Y-107272457D01*
X149824608Y-107396399D01*
X149868473Y-107441661D01*
X149980758Y-107573865D01*
X150073972Y-107711832D01*
X150150719Y-107859750D01*
X150213603Y-108021803D01*
X150217420Y-108033391D01*
X150267507Y-108219392D01*
X150300899Y-108415521D01*
X150317584Y-108617568D01*
X150317551Y-108821325D01*
X150300791Y-109022581D01*
X150267292Y-109217128D01*
X150217044Y-109400756D01*
X150173190Y-109518053D01*
X150095348Y-109680951D01*
X150001828Y-109834866D01*
X149894822Y-109976671D01*
X149776519Y-110103239D01*
X149649111Y-110211441D01*
X149571606Y-110264120D01*
X149444725Y-110333750D01*
X149307243Y-110392468D01*
X149165716Y-110437587D01*
X149026702Y-110466422D01*
X149012597Y-110468106D01*
X148969153Y-110471434D01*
X148911723Y-110474275D01*
X148846122Y-110476373D01*
X148778167Y-110477468D01*
X148651378Y-110475140D01*
X148503673Y-110462136D01*
X148365779Y-110437133D01*
X148232014Y-110399318D01*
X148208562Y-110390889D01*
X148160612Y-110371408D01*
X148104140Y-110346473D01*
X148042379Y-110317722D01*
X147978563Y-110286790D01*
X147915926Y-110255315D01*
X147857703Y-110224934D01*
X147807127Y-110197283D01*
X147767433Y-110173999D01*
X147741854Y-110156718D01*
X147733625Y-110147079D01*
X147735076Y-110143984D01*
X147746250Y-110124079D01*
X147767134Y-110088420D01*
X147796265Y-110039459D01*
X147832181Y-109979646D01*
X147873420Y-109911433D01*
X147918517Y-109837271D01*
X148099785Y-109540008D01*
X148146315Y-109584539D01*
X148237723Y-109662865D01*
X148351334Y-109737439D01*
X148469122Y-109791474D01*
X148589559Y-109824290D01*
X148711117Y-109835211D01*
X148752585Y-109833868D01*
X148870080Y-109815612D01*
X148980089Y-109776617D01*
X149081430Y-109717670D01*
X149172921Y-109639557D01*
X149253380Y-109543064D01*
X149321627Y-109428978D01*
X149337908Y-109394724D01*
X149383982Y-109271240D01*
X149419106Y-109132918D01*
X149443197Y-108983561D01*
X149456173Y-108826973D01*
X149457949Y-108666956D01*
X149448443Y-108507314D01*
X149427572Y-108351850D01*
X149395252Y-108204366D01*
X149351399Y-108068667D01*
X149313982Y-107982076D01*
X149249185Y-107868688D01*
X149173772Y-107775070D01*
X149087418Y-107700959D01*
X148989795Y-107646094D01*
X148880577Y-107610212D01*
X148759439Y-107593051D01*
X148690038Y-107591880D01*
X148567168Y-107606141D01*
X148451664Y-107641241D01*
X148344953Y-107696682D01*
X148248464Y-107771964D01*
X148232720Y-107786440D01*
X148202150Y-107812962D01*
X148179809Y-107830138D01*
X148169691Y-107834787D01*
X148167706Y-107832597D01*
X148153241Y-107813721D01*
X148129400Y-107780397D01*
X148098029Y-107735380D01*
X148060974Y-107681425D01*
X148020083Y-107621285D01*
X147977202Y-107557718D01*
X147934178Y-107493476D01*
X147892857Y-107431315D01*
X147855086Y-107373991D01*
X147822712Y-107324257D01*
X147797582Y-107284868D01*
X147781542Y-107258580D01*
X147776439Y-107248147D01*
X147781050Y-107243941D01*
X147800267Y-107238933D01*
X147809838Y-107236386D01*
X147837809Y-107225249D01*
X147879448Y-107206802D01*
X147930995Y-107182725D01*
X147988690Y-107154699D01*
X147999957Y-107149154D01*
X148177687Y-107069889D01*
X148347490Y-107010385D01*
X148511430Y-106970245D01*
X148671571Y-106949071D01*
X148829977Y-106946466D01*
X148988711Y-106962033D01*
G37*
X145185994Y-109242711D02*
X145185268Y-109320158D01*
X145176689Y-109471594D01*
X145157833Y-109608283D01*
X145127837Y-109734276D01*
X145085836Y-109853625D01*
X145030969Y-109970381D01*
X144964167Y-110081179D01*
X144873363Y-110194739D01*
X144769708Y-110290211D01*
X144653887Y-110367073D01*
X144526586Y-110424797D01*
X144388489Y-110462858D01*
X144350793Y-110468666D01*
X144271752Y-110474396D01*
X144183629Y-110474583D01*
X144094236Y-110469539D01*
X144011384Y-110459578D01*
X143942887Y-110445012D01*
X143912035Y-110435364D01*
X143834730Y-110405123D01*
X143757679Y-110367617D01*
X143688200Y-110326614D01*
X143633615Y-110285879D01*
X143610916Y-110266505D01*
X143588201Y-110248662D01*
X143576779Y-110241778D01*
X143575537Y-110243424D01*
X143572728Y-110261205D01*
X143570776Y-110294370D01*
X143570045Y-110337733D01*
X143570045Y-110433689D01*
X142711896Y-110433689D01*
X142746161Y-110372974D01*
X142751355Y-110363868D01*
X142759715Y-110349249D01*
X142767288Y-110335173D01*
X142774112Y-110320540D01*
X142780227Y-110304249D01*
X142785673Y-110285198D01*
X142790487Y-110262286D01*
X142794708Y-110234413D01*
X142798377Y-110200478D01*
X142801531Y-110159379D01*
X142804211Y-110110015D01*
X142806454Y-110051286D01*
X142808299Y-109982090D01*
X142809787Y-109901326D01*
X142810955Y-109807894D01*
X142811844Y-109700692D01*
X142812491Y-109578620D01*
X142812936Y-109440576D01*
X142813218Y-109285459D01*
X142813375Y-109112168D01*
X142813448Y-108919603D01*
X142813474Y-108706662D01*
X142813485Y-108570530D01*
X143615200Y-108570530D01*
X143615200Y-109720721D01*
X143685756Y-109767089D01*
X143726417Y-109790791D01*
X143780546Y-109816639D01*
X143829689Y-109834829D01*
X143893165Y-109850551D01*
X143989331Y-109861541D01*
X144073900Y-109853365D01*
X144147219Y-109825805D01*
X144209637Y-109778642D01*
X144261502Y-109711658D01*
X144303160Y-109624633D01*
X144334962Y-109517350D01*
X144337545Y-109505009D01*
X144346000Y-109443772D01*
X144351663Y-109366692D01*
X144354576Y-109279002D01*
X144354783Y-109185934D01*
X144352330Y-109092720D01*
X144347261Y-109004594D01*
X144339619Y-108926788D01*
X144329448Y-108864533D01*
X144328167Y-108858666D01*
X144299126Y-108748121D01*
X144264610Y-108657575D01*
X144223456Y-108584953D01*
X144174499Y-108528181D01*
X144116574Y-108485184D01*
X144084620Y-108469615D01*
X144011784Y-108450722D01*
X143930443Y-108447465D01*
X143845319Y-108459389D01*
X143761133Y-108486040D01*
X143682608Y-108526962D01*
X143615200Y-108570530D01*
X142813485Y-108570530D01*
X142813493Y-108472245D01*
X142813689Y-106787378D01*
X143719017Y-106787378D01*
X143694585Y-106824067D01*
X143688318Y-106833647D01*
X143662208Y-106879981D01*
X143644469Y-106927102D01*
X143632908Y-106982251D01*
X143625331Y-107052667D01*
X143624839Y-107059650D01*
X143623062Y-107097641D01*
X143621444Y-107151576D01*
X143619999Y-107218703D01*
X143618740Y-107296271D01*
X143617680Y-107381528D01*
X143616829Y-107471724D01*
X143616203Y-107564107D01*
X143615812Y-107655925D01*
X143615670Y-107744427D01*
X143615790Y-107826862D01*
X143616183Y-107900479D01*
X143616862Y-107962526D01*
X143617841Y-108010251D01*
X143619132Y-108040904D01*
X143620747Y-108051733D01*
X143628957Y-108047333D01*
X143650647Y-108032362D01*
X143680014Y-108010448D01*
X143728879Y-107976236D01*
X143817125Y-107929714D01*
X143915916Y-107896046D01*
X144028510Y-107874231D01*
X144158164Y-107863265D01*
X144250670Y-107862219D01*
X144372011Y-107872014D01*
X144482099Y-107896174D01*
X144585389Y-107935785D01*
X144686338Y-107991932D01*
X144731503Y-108022883D01*
X144836911Y-108114115D01*
X144928538Y-108223106D01*
X145006332Y-108349726D01*
X145070241Y-108493845D01*
X145120214Y-108655332D01*
X145156198Y-108834059D01*
X145178143Y-109029895D01*
X145183900Y-109185934D01*
X145185994Y-109242711D01*
G36*
X145185994Y-109242711D02*
G01*
X145185268Y-109320158D01*
X145176689Y-109471594D01*
X145157833Y-109608283D01*
X145127837Y-109734276D01*
X145085836Y-109853625D01*
X145030969Y-109970381D01*
X144964167Y-110081179D01*
X144873363Y-110194739D01*
X144769708Y-110290211D01*
X144653887Y-110367073D01*
X144526586Y-110424797D01*
X144388489Y-110462858D01*
X144350793Y-110468666D01*
X144271752Y-110474396D01*
X144183629Y-110474583D01*
X144094236Y-110469539D01*
X144011384Y-110459578D01*
X143942887Y-110445012D01*
X143912035Y-110435364D01*
X143834730Y-110405123D01*
X143757679Y-110367617D01*
X143688200Y-110326614D01*
X143633615Y-110285879D01*
X143610916Y-110266505D01*
X143588201Y-110248662D01*
X143576779Y-110241778D01*
X143575537Y-110243424D01*
X143572728Y-110261205D01*
X143570776Y-110294370D01*
X143570045Y-110337733D01*
X143570045Y-110433689D01*
X142711896Y-110433689D01*
X142746161Y-110372974D01*
X142751355Y-110363868D01*
X142759715Y-110349249D01*
X142767288Y-110335173D01*
X142774112Y-110320540D01*
X142780227Y-110304249D01*
X142785673Y-110285198D01*
X142790487Y-110262286D01*
X142794708Y-110234413D01*
X142798377Y-110200478D01*
X142801531Y-110159379D01*
X142804211Y-110110015D01*
X142806454Y-110051286D01*
X142808299Y-109982090D01*
X142809787Y-109901326D01*
X142810955Y-109807894D01*
X142811844Y-109700692D01*
X142812491Y-109578620D01*
X142812936Y-109440576D01*
X142813218Y-109285459D01*
X142813375Y-109112168D01*
X142813448Y-108919603D01*
X142813474Y-108706662D01*
X142813485Y-108570530D01*
X143615200Y-108570530D01*
X143615200Y-109720721D01*
X143685756Y-109767089D01*
X143726417Y-109790791D01*
X143780546Y-109816639D01*
X143829689Y-109834829D01*
X143893165Y-109850551D01*
X143989331Y-109861541D01*
X144073900Y-109853365D01*
X144147219Y-109825805D01*
X144209637Y-109778642D01*
X144261502Y-109711658D01*
X144303160Y-109624633D01*
X144334962Y-109517350D01*
X144337545Y-109505009D01*
X144346000Y-109443772D01*
X144351663Y-109366692D01*
X144354576Y-109279002D01*
X144354783Y-109185934D01*
X144352330Y-109092720D01*
X144347261Y-109004594D01*
X144339619Y-108926788D01*
X144329448Y-108864533D01*
X144328167Y-108858666D01*
X144299126Y-108748121D01*
X144264610Y-108657575D01*
X144223456Y-108584953D01*
X144174499Y-108528181D01*
X144116574Y-108485184D01*
X144084620Y-108469615D01*
X144011784Y-108450722D01*
X143930443Y-108447465D01*
X143845319Y-108459389D01*
X143761133Y-108486040D01*
X143682608Y-108526962D01*
X143615200Y-108570530D01*
X142813485Y-108570530D01*
X142813493Y-108472245D01*
X142813689Y-106787378D01*
X143719017Y-106787378D01*
X143694585Y-106824067D01*
X143688318Y-106833647D01*
X143662208Y-106879981D01*
X143644469Y-106927102D01*
X143632908Y-106982251D01*
X143625331Y-107052667D01*
X143624839Y-107059650D01*
X143623062Y-107097641D01*
X143621444Y-107151576D01*
X143619999Y-107218703D01*
X143618740Y-107296271D01*
X143617680Y-107381528D01*
X143616829Y-107471724D01*
X143616203Y-107564107D01*
X143615812Y-107655925D01*
X143615670Y-107744427D01*
X143615790Y-107826862D01*
X143616183Y-107900479D01*
X143616862Y-107962526D01*
X143617841Y-108010251D01*
X143619132Y-108040904D01*
X143620747Y-108051733D01*
X143628957Y-108047333D01*
X143650647Y-108032362D01*
X143680014Y-108010448D01*
X143728879Y-107976236D01*
X143817125Y-107929714D01*
X143915916Y-107896046D01*
X144028510Y-107874231D01*
X144158164Y-107863265D01*
X144250670Y-107862219D01*
X144372011Y-107872014D01*
X144482099Y-107896174D01*
X144585389Y-107935785D01*
X144686338Y-107991932D01*
X144731503Y-108022883D01*
X144836911Y-108114115D01*
X144928538Y-108223106D01*
X145006332Y-108349726D01*
X145070241Y-108493845D01*
X145120214Y-108655332D01*
X145156198Y-108834059D01*
X145178143Y-109029895D01*
X145183900Y-109185934D01*
X145185994Y-109242711D01*
G37*
X147727755Y-109643467D02*
X147727261Y-109677363D01*
X147723632Y-109752202D01*
X147716022Y-109814401D01*
X147703688Y-109870984D01*
X147659313Y-109997076D01*
X147596400Y-110111679D01*
X147516238Y-110212568D01*
X147419740Y-110298924D01*
X147307822Y-110369932D01*
X147181397Y-110424776D01*
X147041378Y-110462638D01*
X147005149Y-110468351D01*
X146926155Y-110474313D01*
X146837841Y-110474646D01*
X146748075Y-110469659D01*
X146664722Y-110459666D01*
X146595651Y-110444978D01*
X146509187Y-110414749D01*
X146399286Y-110360057D01*
X146301956Y-110292543D01*
X146239867Y-110241556D01*
X146236605Y-110337622D01*
X146233343Y-110433689D01*
X145810450Y-110433689D01*
X145799543Y-110433686D01*
X145705056Y-110433380D01*
X145618331Y-110432616D01*
X145541837Y-110431451D01*
X145478043Y-110429942D01*
X145429418Y-110428147D01*
X145398433Y-110426121D01*
X145387556Y-110423922D01*
X145387578Y-110423463D01*
X145394614Y-110407910D01*
X145410434Y-110385071D01*
X145414734Y-110379638D01*
X145425777Y-110365606D01*
X145435311Y-110352186D01*
X145443461Y-110337722D01*
X145450352Y-110320556D01*
X145456111Y-110299034D01*
X145460862Y-110271498D01*
X145464731Y-110236292D01*
X145467844Y-110191760D01*
X145470325Y-110136246D01*
X145472300Y-110068093D01*
X145473894Y-109985645D01*
X145475234Y-109887246D01*
X145476444Y-109771239D01*
X145477649Y-109635968D01*
X145478595Y-109524586D01*
X146279378Y-109524586D01*
X146279378Y-109720462D01*
X146324048Y-109776973D01*
X146336785Y-109792212D01*
X146383604Y-109834844D01*
X146444255Y-109870672D01*
X146454897Y-109875850D01*
X146493676Y-109892745D01*
X146528692Y-109902909D01*
X146568722Y-109908325D01*
X146622541Y-109910978D01*
X146640648Y-109911383D01*
X146716011Y-109908540D01*
X146776743Y-109896620D01*
X146828452Y-109874037D01*
X146876746Y-109839211D01*
X146881803Y-109834798D01*
X146930272Y-109779160D01*
X146958459Y-109715333D01*
X146967752Y-109640282D01*
X146960520Y-109568693D01*
X146935796Y-109505645D01*
X146891249Y-109447758D01*
X146836319Y-109400808D01*
X146763894Y-109360961D01*
X146677340Y-109333263D01*
X146574670Y-109317096D01*
X146453894Y-109311842D01*
X146445007Y-109311857D01*
X146389660Y-109312655D01*
X146342736Y-109314488D01*
X146308953Y-109317111D01*
X146293028Y-109320274D01*
X146288943Y-109326741D01*
X146284572Y-109348875D01*
X146281604Y-109387988D01*
X146279914Y-109445939D01*
X146279378Y-109524586D01*
X145478595Y-109524586D01*
X145478975Y-109479778D01*
X145480228Y-109337012D01*
X145481651Y-109191942D01*
X145483176Y-109066027D01*
X145484933Y-108957436D01*
X145487051Y-108864334D01*
X145489660Y-108784891D01*
X145492890Y-108717273D01*
X145496869Y-108659649D01*
X145501728Y-108610185D01*
X145507597Y-108567050D01*
X145514604Y-108528410D01*
X145522880Y-108492434D01*
X145532554Y-108457289D01*
X145543756Y-108421142D01*
X145556616Y-108382161D01*
X145572090Y-108339091D01*
X145614994Y-108246871D01*
X145668735Y-108167099D01*
X145737576Y-108092965D01*
X145815185Y-108029405D01*
X145919761Y-107967725D01*
X146039244Y-107920202D01*
X146174508Y-107886567D01*
X146326426Y-107866552D01*
X146495872Y-107859889D01*
X146553890Y-107860287D01*
X146619398Y-107862335D01*
X146680693Y-107866704D01*
X146742097Y-107874035D01*
X146807932Y-107884969D01*
X146882520Y-107900147D01*
X146970184Y-107920209D01*
X147075245Y-107945797D01*
X147103806Y-107952820D01*
X147179054Y-107970776D01*
X147249388Y-107986820D01*
X147310567Y-108000028D01*
X147358354Y-108009474D01*
X147388511Y-108014231D01*
X147416783Y-108017910D01*
X147443060Y-108023187D01*
X147453059Y-108027942D01*
X147449952Y-108036781D01*
X147439194Y-108064072D01*
X147421864Y-108106906D01*
X147399126Y-108162425D01*
X147372147Y-108227772D01*
X147342090Y-108300089D01*
X147335493Y-108315879D01*
X147296907Y-108406484D01*
X147265768Y-108476217D01*
X147241917Y-108525405D01*
X147225198Y-108554374D01*
X147215454Y-108563452D01*
X147207766Y-108561405D01*
X147181415Y-108551760D01*
X147142982Y-108536190D01*
X147097822Y-108516815D01*
X147003293Y-108478814D01*
X146866480Y-108437780D01*
X146725289Y-108412612D01*
X146687314Y-108408611D01*
X146584059Y-108406447D01*
X146496952Y-108419622D01*
X146425129Y-108448756D01*
X146367731Y-108494466D01*
X146323896Y-108557372D01*
X146292762Y-108638092D01*
X146273470Y-108737245D01*
X146266050Y-108796224D01*
X146427936Y-108789445D01*
X146554495Y-108787813D01*
X146705951Y-108794194D01*
X146854396Y-108808777D01*
X146990578Y-108830882D01*
X147055245Y-108845821D01*
X147187490Y-108888741D01*
X147309762Y-108945340D01*
X147419685Y-109014017D01*
X147514883Y-109093170D01*
X147592980Y-109181196D01*
X147651599Y-109276493D01*
X147675595Y-109328864D01*
X147701232Y-109399590D01*
X147717478Y-109470812D01*
X147725822Y-109549712D01*
X147727690Y-109640282D01*
X147727755Y-109643467D01*
G36*
X147727755Y-109643467D02*
G01*
X147727261Y-109677363D01*
X147723632Y-109752202D01*
X147716022Y-109814401D01*
X147703688Y-109870984D01*
X147659313Y-109997076D01*
X147596400Y-110111679D01*
X147516238Y-110212568D01*
X147419740Y-110298924D01*
X147307822Y-110369932D01*
X147181397Y-110424776D01*
X147041378Y-110462638D01*
X147005149Y-110468351D01*
X146926155Y-110474313D01*
X146837841Y-110474646D01*
X146748075Y-110469659D01*
X146664722Y-110459666D01*
X146595651Y-110444978D01*
X146509187Y-110414749D01*
X146399286Y-110360057D01*
X146301956Y-110292543D01*
X146239867Y-110241556D01*
X146236605Y-110337622D01*
X146233343Y-110433689D01*
X145810450Y-110433689D01*
X145799543Y-110433686D01*
X145705056Y-110433380D01*
X145618331Y-110432616D01*
X145541837Y-110431451D01*
X145478043Y-110429942D01*
X145429418Y-110428147D01*
X145398433Y-110426121D01*
X145387556Y-110423922D01*
X145387578Y-110423463D01*
X145394614Y-110407910D01*
X145410434Y-110385071D01*
X145414734Y-110379638D01*
X145425777Y-110365606D01*
X145435311Y-110352186D01*
X145443461Y-110337722D01*
X145450352Y-110320556D01*
X145456111Y-110299034D01*
X145460862Y-110271498D01*
X145464731Y-110236292D01*
X145467844Y-110191760D01*
X145470325Y-110136246D01*
X145472300Y-110068093D01*
X145473894Y-109985645D01*
X145475234Y-109887246D01*
X145476444Y-109771239D01*
X145477649Y-109635968D01*
X145478595Y-109524586D01*
X146279378Y-109524586D01*
X146279378Y-109720462D01*
X146324048Y-109776973D01*
X146336785Y-109792212D01*
X146383604Y-109834844D01*
X146444255Y-109870672D01*
X146454897Y-109875850D01*
X146493676Y-109892745D01*
X146528692Y-109902909D01*
X146568722Y-109908325D01*
X146622541Y-109910978D01*
X146640648Y-109911383D01*
X146716011Y-109908540D01*
X146776743Y-109896620D01*
X146828452Y-109874037D01*
X146876746Y-109839211D01*
X146881803Y-109834798D01*
X146930272Y-109779160D01*
X146958459Y-109715333D01*
X146967752Y-109640282D01*
X146960520Y-109568693D01*
X146935796Y-109505645D01*
X146891249Y-109447758D01*
X146836319Y-109400808D01*
X146763894Y-109360961D01*
X146677340Y-109333263D01*
X146574670Y-109317096D01*
X146453894Y-109311842D01*
X146445007Y-109311857D01*
X146389660Y-109312655D01*
X146342736Y-109314488D01*
X146308953Y-109317111D01*
X146293028Y-109320274D01*
X146288943Y-109326741D01*
X146284572Y-109348875D01*
X146281604Y-109387988D01*
X146279914Y-109445939D01*
X146279378Y-109524586D01*
X145478595Y-109524586D01*
X145478975Y-109479778D01*
X145480228Y-109337012D01*
X145481651Y-109191942D01*
X145483176Y-109066027D01*
X145484933Y-108957436D01*
X145487051Y-108864334D01*
X145489660Y-108784891D01*
X145492890Y-108717273D01*
X145496869Y-108659649D01*
X145501728Y-108610185D01*
X145507597Y-108567050D01*
X145514604Y-108528410D01*
X145522880Y-108492434D01*
X145532554Y-108457289D01*
X145543756Y-108421142D01*
X145556616Y-108382161D01*
X145572090Y-108339091D01*
X145614994Y-108246871D01*
X145668735Y-108167099D01*
X145737576Y-108092965D01*
X145815185Y-108029405D01*
X145919761Y-107967725D01*
X146039244Y-107920202D01*
X146174508Y-107886567D01*
X146326426Y-107866552D01*
X146495872Y-107859889D01*
X146553890Y-107860287D01*
X146619398Y-107862335D01*
X146680693Y-107866704D01*
X146742097Y-107874035D01*
X146807932Y-107884969D01*
X146882520Y-107900147D01*
X146970184Y-107920209D01*
X147075245Y-107945797D01*
X147103806Y-107952820D01*
X147179054Y-107970776D01*
X147249388Y-107986820D01*
X147310567Y-108000028D01*
X147358354Y-108009474D01*
X147388511Y-108014231D01*
X147416783Y-108017910D01*
X147443060Y-108023187D01*
X147453059Y-108027942D01*
X147449952Y-108036781D01*
X147439194Y-108064072D01*
X147421864Y-108106906D01*
X147399126Y-108162425D01*
X147372147Y-108227772D01*
X147342090Y-108300089D01*
X147335493Y-108315879D01*
X147296907Y-108406484D01*
X147265768Y-108476217D01*
X147241917Y-108525405D01*
X147225198Y-108554374D01*
X147215454Y-108563452D01*
X147207766Y-108561405D01*
X147181415Y-108551760D01*
X147142982Y-108536190D01*
X147097822Y-108516815D01*
X147003293Y-108478814D01*
X146866480Y-108437780D01*
X146725289Y-108412612D01*
X146687314Y-108408611D01*
X146584059Y-108406447D01*
X146496952Y-108419622D01*
X146425129Y-108448756D01*
X146367731Y-108494466D01*
X146323896Y-108557372D01*
X146292762Y-108638092D01*
X146273470Y-108737245D01*
X146266050Y-108796224D01*
X146427936Y-108789445D01*
X146554495Y-108787813D01*
X146705951Y-108794194D01*
X146854396Y-108808777D01*
X146990578Y-108830882D01*
X147055245Y-108845821D01*
X147187490Y-108888741D01*
X147309762Y-108945340D01*
X147419685Y-109014017D01*
X147514883Y-109093170D01*
X147592980Y-109181196D01*
X147651599Y-109276493D01*
X147675595Y-109328864D01*
X147701232Y-109399590D01*
X147717478Y-109470812D01*
X147725822Y-109549712D01*
X147727690Y-109640282D01*
X147727755Y-109643467D01*
G37*
X155275614Y-107111792D02*
X155276059Y-107243011D01*
X155276362Y-107390216D01*
X155276548Y-107554349D01*
X155276642Y-107736352D01*
X155276671Y-107937165D01*
X155276661Y-108157732D01*
X155276636Y-108398992D01*
X155276622Y-108661889D01*
X155276622Y-108704040D01*
X155276646Y-108964668D01*
X155276685Y-109203796D01*
X155276708Y-109422360D01*
X155276687Y-109621295D01*
X155276593Y-109801535D01*
X155276395Y-109964015D01*
X155276063Y-110109670D01*
X155275569Y-110239434D01*
X155274883Y-110354243D01*
X155273976Y-110455030D01*
X155272817Y-110542730D01*
X155271378Y-110618279D01*
X155269629Y-110682611D01*
X155267540Y-110736661D01*
X155265083Y-110781363D01*
X155262227Y-110817652D01*
X155258943Y-110846463D01*
X155255202Y-110868731D01*
X155250974Y-110885390D01*
X155246229Y-110897375D01*
X155240939Y-110905621D01*
X155235073Y-110911062D01*
X155228602Y-110914634D01*
X155221497Y-110917270D01*
X155213728Y-110919906D01*
X155205266Y-110923477D01*
X155200908Y-110925145D01*
X155192395Y-110927111D01*
X155179694Y-110928911D01*
X155161885Y-110930555D01*
X155138049Y-110932047D01*
X155107266Y-110933397D01*
X155068617Y-110934611D01*
X155021182Y-110935697D01*
X154964043Y-110936661D01*
X154896279Y-110937511D01*
X154816971Y-110938253D01*
X154725199Y-110938897D01*
X154620044Y-110939447D01*
X154500587Y-110939913D01*
X154365908Y-110940300D01*
X154215088Y-110940616D01*
X154047206Y-110940869D01*
X153861345Y-110941066D01*
X153656583Y-110941213D01*
X153432002Y-110941318D01*
X153186682Y-110941389D01*
X152919704Y-110941432D01*
X152881321Y-110941437D01*
X152615922Y-110941480D01*
X152372050Y-110941525D01*
X152148783Y-110941548D01*
X151945196Y-110941524D01*
X151760367Y-110941430D01*
X151593373Y-110941243D01*
X151443290Y-110940939D01*
X151309196Y-110940494D01*
X151190166Y-110939885D01*
X151085279Y-110939089D01*
X150993610Y-110938080D01*
X150914237Y-110936837D01*
X150846237Y-110935335D01*
X150788686Y-110933551D01*
X150740662Y-110931461D01*
X150701240Y-110929042D01*
X150669499Y-110926270D01*
X150644514Y-110923121D01*
X150625364Y-110919572D01*
X150611123Y-110915598D01*
X150600871Y-110911178D01*
X150593682Y-110906286D01*
X150588635Y-110900900D01*
X150584805Y-110894996D01*
X150581271Y-110888549D01*
X150577108Y-110881537D01*
X150576025Y-110879687D01*
X150573813Y-110874180D01*
X150571786Y-110865868D01*
X150569938Y-110853809D01*
X150568261Y-110837063D01*
X150566745Y-110814687D01*
X150565383Y-110785740D01*
X150564167Y-110749280D01*
X150563089Y-110704367D01*
X150562140Y-110650057D01*
X150561312Y-110585410D01*
X150560597Y-110509484D01*
X150559987Y-110421338D01*
X150559942Y-110412493D01*
X150851378Y-110412493D01*
X150855260Y-110413765D01*
X150878520Y-110415791D01*
X150920874Y-110417626D01*
X150980132Y-110419227D01*
X151054107Y-110420549D01*
X151140610Y-110421548D01*
X151237452Y-110422180D01*
X151342445Y-110422400D01*
X152040651Y-110422400D01*
X153195090Y-110422400D01*
X153194456Y-110346200D01*
X153195574Y-110304160D01*
X153201304Y-110268334D01*
X153213890Y-110230772D01*
X153235568Y-110182577D01*
X153238789Y-110175897D01*
X153264188Y-110126359D01*
X153290996Y-110078369D01*
X153313917Y-110041466D01*
X153318485Y-110034834D01*
X153340516Y-110003593D01*
X153372693Y-109958654D01*
X153413457Y-109902147D01*
X153461245Y-109836204D01*
X153514498Y-109762957D01*
X153571655Y-109684536D01*
X153631155Y-109603072D01*
X153691437Y-109520698D01*
X153750940Y-109439544D01*
X153808105Y-109361742D01*
X153861370Y-109289423D01*
X153909174Y-109224718D01*
X153949957Y-109169759D01*
X153982158Y-109126676D01*
X154004216Y-109097602D01*
X154014571Y-109084667D01*
X154019044Y-109080351D01*
X154023236Y-109078312D01*
X154026643Y-109080926D01*
X154029325Y-109089986D01*
X154031341Y-109107285D01*
X154032748Y-109134614D01*
X154033605Y-109173765D01*
X154033970Y-109226533D01*
X154033903Y-109294707D01*
X154033460Y-109380082D01*
X154032702Y-109484449D01*
X154031685Y-109609600D01*
X154031308Y-109654300D01*
X154030169Y-109775395D01*
X154028972Y-109876688D01*
X154027636Y-109960262D01*
X154026077Y-110028204D01*
X154024215Y-110082599D01*
X154021966Y-110125532D01*
X154019248Y-110159089D01*
X154015979Y-110185355D01*
X154012078Y-110206416D01*
X154007461Y-110224357D01*
X153999192Y-110250770D01*
X153975583Y-110312772D01*
X153949685Y-110365573D01*
X153924535Y-110402645D01*
X153923339Y-110404075D01*
X153921168Y-110408424D01*
X153923328Y-110412026D01*
X153931644Y-110414951D01*
X153947940Y-110417269D01*
X153974041Y-110419051D01*
X154011771Y-110420367D01*
X154062956Y-110421286D01*
X154129420Y-110421878D01*
X154212987Y-110422215D01*
X154315483Y-110422365D01*
X154438732Y-110422400D01*
X154970296Y-110422400D01*
X154931523Y-110364783D01*
X154925432Y-110355893D01*
X154914976Y-110341069D01*
X154905579Y-110327422D01*
X154897183Y-110313765D01*
X154889733Y-110298911D01*
X154883173Y-110281670D01*
X154877446Y-110260855D01*
X154872495Y-110235280D01*
X154868266Y-110203755D01*
X154864701Y-110165093D01*
X154861744Y-110118107D01*
X154859340Y-110061608D01*
X154857431Y-109994409D01*
X154855962Y-109915322D01*
X154854876Y-109823160D01*
X154854118Y-109716734D01*
X154853630Y-109594857D01*
X154853358Y-109456341D01*
X154853243Y-109299999D01*
X154853231Y-109124642D01*
X154853265Y-108929082D01*
X154853289Y-108712133D01*
X154853280Y-108589513D01*
X154853243Y-108384447D01*
X154853227Y-108200116D01*
X154853288Y-108035334D01*
X154853484Y-107888916D01*
X154853870Y-107759674D01*
X154854505Y-107646422D01*
X154855444Y-107547975D01*
X154856745Y-107463144D01*
X154858464Y-107390744D01*
X154860659Y-107329589D01*
X154863385Y-107278492D01*
X154866701Y-107236267D01*
X154870662Y-107201727D01*
X154875325Y-107173686D01*
X154880747Y-107150958D01*
X154886986Y-107132356D01*
X154894097Y-107116693D01*
X154902138Y-107102784D01*
X154911166Y-107089441D01*
X154921236Y-107075479D01*
X154932407Y-107059711D01*
X154972197Y-107001867D01*
X153912314Y-107001867D01*
X153950311Y-107064966D01*
X153964993Y-107090005D01*
X153979531Y-107117586D01*
X153991627Y-107145700D01*
X154001532Y-107176551D01*
X154009494Y-107212344D01*
X154015761Y-107255283D01*
X154020582Y-107307574D01*
X154024206Y-107371419D01*
X154026881Y-107449025D01*
X154028857Y-107542594D01*
X154030382Y-107654333D01*
X154031704Y-107786445D01*
X154032613Y-107906434D01*
X154033020Y-108023063D01*
X154032767Y-108118531D01*
X154031857Y-108192556D01*
X154030293Y-108244855D01*
X154028079Y-108275149D01*
X154025220Y-108283156D01*
X154022161Y-108279858D01*
X154004006Y-108258408D01*
X153974275Y-108221889D01*
X153934639Y-108172442D01*
X153886771Y-108112207D01*
X153832343Y-108043327D01*
X153773027Y-107967943D01*
X153710495Y-107888196D01*
X153646421Y-107806228D01*
X153582475Y-107724180D01*
X153520331Y-107644194D01*
X153461661Y-107568411D01*
X153408137Y-107498973D01*
X153361430Y-107438021D01*
X153323214Y-107387696D01*
X153295161Y-107350140D01*
X153278943Y-107327495D01*
X153233635Y-107255212D01*
X153193661Y-107175463D01*
X153172130Y-107107188D01*
X153168827Y-107049844D01*
X153174116Y-107001867D01*
X152042356Y-107002117D01*
X152081867Y-107032722D01*
X152091248Y-107040089D01*
X152154183Y-107094438D01*
X152222997Y-107162259D01*
X152299596Y-107245516D01*
X152385888Y-107346178D01*
X152403052Y-107366847D01*
X152443833Y-107416409D01*
X152493588Y-107477326D01*
X152550955Y-107547898D01*
X152614569Y-107626424D01*
X152683069Y-107711204D01*
X152755090Y-107800537D01*
X152829270Y-107892722D01*
X152844517Y-107911702D01*
X152904246Y-107986060D01*
X152978653Y-108078848D01*
X153051131Y-108169388D01*
X153120314Y-108255978D01*
X153184841Y-108336918D01*
X153243347Y-108410506D01*
X153294470Y-108475044D01*
X153336847Y-108528829D01*
X153369115Y-108570162D01*
X153389910Y-108597342D01*
X153397869Y-108608668D01*
X153396111Y-108612771D01*
X153383230Y-108633334D01*
X153358885Y-108669561D01*
X153324247Y-108719824D01*
X153280486Y-108782492D01*
X153228775Y-108855936D01*
X153170284Y-108938527D01*
X153106184Y-109028636D01*
X153037646Y-109124631D01*
X152965843Y-109224885D01*
X152891944Y-109327768D01*
X152817121Y-109431650D01*
X152742545Y-109534901D01*
X152669387Y-109635892D01*
X152598819Y-109732994D01*
X152532011Y-109824577D01*
X152470135Y-109909011D01*
X152414361Y-109984667D01*
X152365862Y-110049916D01*
X152325807Y-110103128D01*
X152295369Y-110142673D01*
X152274944Y-110168026D01*
X152228899Y-110222295D01*
X152178612Y-110278775D01*
X152131815Y-110328669D01*
X152040651Y-110422400D01*
X151342445Y-110422400D01*
X151411356Y-110422349D01*
X151509607Y-110422091D01*
X151599030Y-110421637D01*
X151677333Y-110421010D01*
X151742223Y-110420235D01*
X151791411Y-110419335D01*
X151822604Y-110418334D01*
X151833511Y-110417257D01*
X151832322Y-110414037D01*
X151822176Y-110396452D01*
X151805040Y-110370158D01*
X151796540Y-110357691D01*
X151787329Y-110343622D01*
X151779233Y-110329351D01*
X151772185Y-110313479D01*
X151766117Y-110294609D01*
X151760961Y-110271341D01*
X151756651Y-110242278D01*
X151753119Y-110206021D01*
X151750297Y-110161170D01*
X151748118Y-110106328D01*
X151746514Y-110040097D01*
X151745419Y-109961077D01*
X151744765Y-109867871D01*
X151744484Y-109759079D01*
X151744509Y-109633303D01*
X151744772Y-109489145D01*
X151745206Y-109325207D01*
X151745745Y-109140089D01*
X151746279Y-108961232D01*
X151746805Y-108802374D01*
X151747350Y-108663316D01*
X151747945Y-108542665D01*
X151748619Y-108439028D01*
X151749403Y-108351011D01*
X151750326Y-108277223D01*
X151751419Y-108216269D01*
X151752712Y-108166757D01*
X151754235Y-108127293D01*
X151756019Y-108096484D01*
X151758092Y-108072938D01*
X151760486Y-108055260D01*
X151763230Y-108042059D01*
X151766356Y-108031940D01*
X151769892Y-108023511D01*
X151773791Y-108015375D01*
X151793438Y-107978544D01*
X151812225Y-107948391D01*
X151813272Y-107946908D01*
X151827602Y-107924659D01*
X151833511Y-107911702D01*
X151832504Y-107911249D01*
X151815305Y-107909803D01*
X151778656Y-107908480D01*
X151724962Y-107907316D01*
X151656630Y-107906347D01*
X151576064Y-107905611D01*
X151485670Y-107905142D01*
X151387853Y-107904978D01*
X150942195Y-107904978D01*
X150939120Y-109081845D01*
X150936045Y-110258711D01*
X150909407Y-110317622D01*
X150897485Y-110342183D01*
X150880246Y-110372434D01*
X150867074Y-110389560D01*
X150859076Y-110397591D01*
X150851378Y-110412493D01*
X150559942Y-110412493D01*
X150559474Y-110320029D01*
X150559050Y-110204617D01*
X150558706Y-110074160D01*
X150558434Y-109927716D01*
X150558227Y-109764344D01*
X150558076Y-109583101D01*
X150557972Y-109383048D01*
X150557908Y-109163241D01*
X150557876Y-108922739D01*
X150557867Y-108660602D01*
X150557867Y-106469031D01*
X150596249Y-106430649D01*
X150623355Y-106406911D01*
X150650253Y-106395111D01*
X150686560Y-106392267D01*
X150738489Y-106392267D01*
X150738489Y-106480206D01*
X150740427Y-106530102D01*
X150759199Y-106640523D01*
X150796217Y-106741987D01*
X150849369Y-106833152D01*
X150916546Y-106912673D01*
X150995638Y-106979205D01*
X151084534Y-107031406D01*
X151181125Y-107067930D01*
X151283300Y-107087434D01*
X151388950Y-107088573D01*
X151495964Y-107070005D01*
X151602232Y-107030384D01*
X151699219Y-106972516D01*
X151784293Y-106897684D01*
X151853015Y-106809615D01*
X151903918Y-106710616D01*
X151935535Y-106602993D01*
X151946400Y-106489054D01*
X151946400Y-106392267D01*
X153566753Y-106392267D01*
X153777897Y-106392280D01*
X153982020Y-106392330D01*
X154165686Y-106392430D01*
X154329991Y-106392592D01*
X154476029Y-106392829D01*
X154604894Y-106393153D01*
X154717683Y-106393575D01*
X154815488Y-106394109D01*
X154899404Y-106394767D01*
X154970527Y-106395561D01*
X155029950Y-106396504D01*
X155078768Y-106397608D01*
X155118077Y-106398884D01*
X155148969Y-106400347D01*
X155172541Y-106402007D01*
X155189886Y-106403878D01*
X155202099Y-106405972D01*
X155210275Y-106408300D01*
X155215508Y-106410876D01*
X155221504Y-106414445D01*
X155228279Y-106417978D01*
X155234478Y-106421488D01*
X155240126Y-106425918D01*
X155245247Y-106432208D01*
X155249869Y-106441301D01*
X155254015Y-106454139D01*
X155257713Y-106471662D01*
X155260987Y-106494813D01*
X155263863Y-106524534D01*
X155266367Y-106561765D01*
X155268524Y-106607449D01*
X155270360Y-106662527D01*
X155271900Y-106727941D01*
X155273170Y-106804633D01*
X155274195Y-106893544D01*
X155275001Y-106995617D01*
X155275034Y-107001867D01*
X155275614Y-107111792D01*
G36*
X155275614Y-107111792D02*
G01*
X155276059Y-107243011D01*
X155276362Y-107390216D01*
X155276548Y-107554349D01*
X155276642Y-107736352D01*
X155276671Y-107937165D01*
X155276661Y-108157732D01*
X155276636Y-108398992D01*
X155276622Y-108661889D01*
X155276622Y-108704040D01*
X155276646Y-108964668D01*
X155276685Y-109203796D01*
X155276708Y-109422360D01*
X155276687Y-109621295D01*
X155276593Y-109801535D01*
X155276395Y-109964015D01*
X155276063Y-110109670D01*
X155275569Y-110239434D01*
X155274883Y-110354243D01*
X155273976Y-110455030D01*
X155272817Y-110542730D01*
X155271378Y-110618279D01*
X155269629Y-110682611D01*
X155267540Y-110736661D01*
X155265083Y-110781363D01*
X155262227Y-110817652D01*
X155258943Y-110846463D01*
X155255202Y-110868731D01*
X155250974Y-110885390D01*
X155246229Y-110897375D01*
X155240939Y-110905621D01*
X155235073Y-110911062D01*
X155228602Y-110914634D01*
X155221497Y-110917270D01*
X155213728Y-110919906D01*
X155205266Y-110923477D01*
X155200908Y-110925145D01*
X155192395Y-110927111D01*
X155179694Y-110928911D01*
X155161885Y-110930555D01*
X155138049Y-110932047D01*
X155107266Y-110933397D01*
X155068617Y-110934611D01*
X155021182Y-110935697D01*
X154964043Y-110936661D01*
X154896279Y-110937511D01*
X154816971Y-110938253D01*
X154725199Y-110938897D01*
X154620044Y-110939447D01*
X154500587Y-110939913D01*
X154365908Y-110940300D01*
X154215088Y-110940616D01*
X154047206Y-110940869D01*
X153861345Y-110941066D01*
X153656583Y-110941213D01*
X153432002Y-110941318D01*
X153186682Y-110941389D01*
X152919704Y-110941432D01*
X152881321Y-110941437D01*
X152615922Y-110941480D01*
X152372050Y-110941525D01*
X152148783Y-110941548D01*
X151945196Y-110941524D01*
X151760367Y-110941430D01*
X151593373Y-110941243D01*
X151443290Y-110940939D01*
X151309196Y-110940494D01*
X151190166Y-110939885D01*
X151085279Y-110939089D01*
X150993610Y-110938080D01*
X150914237Y-110936837D01*
X150846237Y-110935335D01*
X150788686Y-110933551D01*
X150740662Y-110931461D01*
X150701240Y-110929042D01*
X150669499Y-110926270D01*
X150644514Y-110923121D01*
X150625364Y-110919572D01*
X150611123Y-110915598D01*
X150600871Y-110911178D01*
X150593682Y-110906286D01*
X150588635Y-110900900D01*
X150584805Y-110894996D01*
X150581271Y-110888549D01*
X150577108Y-110881537D01*
X150576025Y-110879687D01*
X150573813Y-110874180D01*
X150571786Y-110865868D01*
X150569938Y-110853809D01*
X150568261Y-110837063D01*
X150566745Y-110814687D01*
X150565383Y-110785740D01*
X150564167Y-110749280D01*
X150563089Y-110704367D01*
X150562140Y-110650057D01*
X150561312Y-110585410D01*
X150560597Y-110509484D01*
X150559987Y-110421338D01*
X150559942Y-110412493D01*
X150851378Y-110412493D01*
X150855260Y-110413765D01*
X150878520Y-110415791D01*
X150920874Y-110417626D01*
X150980132Y-110419227D01*
X151054107Y-110420549D01*
X151140610Y-110421548D01*
X151237452Y-110422180D01*
X151342445Y-110422400D01*
X152040651Y-110422400D01*
X153195090Y-110422400D01*
X153194456Y-110346200D01*
X153195574Y-110304160D01*
X153201304Y-110268334D01*
X153213890Y-110230772D01*
X153235568Y-110182577D01*
X153238789Y-110175897D01*
X153264188Y-110126359D01*
X153290996Y-110078369D01*
X153313917Y-110041466D01*
X153318485Y-110034834D01*
X153340516Y-110003593D01*
X153372693Y-109958654D01*
X153413457Y-109902147D01*
X153461245Y-109836204D01*
X153514498Y-109762957D01*
X153571655Y-109684536D01*
X153631155Y-109603072D01*
X153691437Y-109520698D01*
X153750940Y-109439544D01*
X153808105Y-109361742D01*
X153861370Y-109289423D01*
X153909174Y-109224718D01*
X153949957Y-109169759D01*
X153982158Y-109126676D01*
X154004216Y-109097602D01*
X154014571Y-109084667D01*
X154019044Y-109080351D01*
X154023236Y-109078312D01*
X154026643Y-109080926D01*
X154029325Y-109089986D01*
X154031341Y-109107285D01*
X154032748Y-109134614D01*
X154033605Y-109173765D01*
X154033970Y-109226533D01*
X154033903Y-109294707D01*
X154033460Y-109380082D01*
X154032702Y-109484449D01*
X154031685Y-109609600D01*
X154031308Y-109654300D01*
X154030169Y-109775395D01*
X154028972Y-109876688D01*
X154027636Y-109960262D01*
X154026077Y-110028204D01*
X154024215Y-110082599D01*
X154021966Y-110125532D01*
X154019248Y-110159089D01*
X154015979Y-110185355D01*
X154012078Y-110206416D01*
X154007461Y-110224357D01*
X153999192Y-110250770D01*
X153975583Y-110312772D01*
X153949685Y-110365573D01*
X153924535Y-110402645D01*
X153923339Y-110404075D01*
X153921168Y-110408424D01*
X153923328Y-110412026D01*
X153931644Y-110414951D01*
X153947940Y-110417269D01*
X153974041Y-110419051D01*
X154011771Y-110420367D01*
X154062956Y-110421286D01*
X154129420Y-110421878D01*
X154212987Y-110422215D01*
X154315483Y-110422365D01*
X154438732Y-110422400D01*
X154970296Y-110422400D01*
X154931523Y-110364783D01*
X154925432Y-110355893D01*
X154914976Y-110341069D01*
X154905579Y-110327422D01*
X154897183Y-110313765D01*
X154889733Y-110298911D01*
X154883173Y-110281670D01*
X154877446Y-110260855D01*
X154872495Y-110235280D01*
X154868266Y-110203755D01*
X154864701Y-110165093D01*
X154861744Y-110118107D01*
X154859340Y-110061608D01*
X154857431Y-109994409D01*
X154855962Y-109915322D01*
X154854876Y-109823160D01*
X154854118Y-109716734D01*
X154853630Y-109594857D01*
X154853358Y-109456341D01*
X154853243Y-109299999D01*
X154853231Y-109124642D01*
X154853265Y-108929082D01*
X154853289Y-108712133D01*
X154853280Y-108589513D01*
X154853243Y-108384447D01*
X154853227Y-108200116D01*
X154853288Y-108035334D01*
X154853484Y-107888916D01*
X154853870Y-107759674D01*
X154854505Y-107646422D01*
X154855444Y-107547975D01*
X154856745Y-107463144D01*
X154858464Y-107390744D01*
X154860659Y-107329589D01*
X154863385Y-107278492D01*
X154866701Y-107236267D01*
X154870662Y-107201727D01*
X154875325Y-107173686D01*
X154880747Y-107150958D01*
X154886986Y-107132356D01*
X154894097Y-107116693D01*
X154902138Y-107102784D01*
X154911166Y-107089441D01*
X154921236Y-107075479D01*
X154932407Y-107059711D01*
X154972197Y-107001867D01*
X153912314Y-107001867D01*
X153950311Y-107064966D01*
X153964993Y-107090005D01*
X153979531Y-107117586D01*
X153991627Y-107145700D01*
X154001532Y-107176551D01*
X154009494Y-107212344D01*
X154015761Y-107255283D01*
X154020582Y-107307574D01*
X154024206Y-107371419D01*
X154026881Y-107449025D01*
X154028857Y-107542594D01*
X154030382Y-107654333D01*
X154031704Y-107786445D01*
X154032613Y-107906434D01*
X154033020Y-108023063D01*
X154032767Y-108118531D01*
X154031857Y-108192556D01*
X154030293Y-108244855D01*
X154028079Y-108275149D01*
X154025220Y-108283156D01*
X154022161Y-108279858D01*
X154004006Y-108258408D01*
X153974275Y-108221889D01*
X153934639Y-108172442D01*
X153886771Y-108112207D01*
X153832343Y-108043327D01*
X153773027Y-107967943D01*
X153710495Y-107888196D01*
X153646421Y-107806228D01*
X153582475Y-107724180D01*
X153520331Y-107644194D01*
X153461661Y-107568411D01*
X153408137Y-107498973D01*
X153361430Y-107438021D01*
X153323214Y-107387696D01*
X153295161Y-107350140D01*
X153278943Y-107327495D01*
X153233635Y-107255212D01*
X153193661Y-107175463D01*
X153172130Y-107107188D01*
X153168827Y-107049844D01*
X153174116Y-107001867D01*
X152042356Y-107002117D01*
X152081867Y-107032722D01*
X152091248Y-107040089D01*
X152154183Y-107094438D01*
X152222997Y-107162259D01*
X152299596Y-107245516D01*
X152385888Y-107346178D01*
X152403052Y-107366847D01*
X152443833Y-107416409D01*
X152493588Y-107477326D01*
X152550955Y-107547898D01*
X152614569Y-107626424D01*
X152683069Y-107711204D01*
X152755090Y-107800537D01*
X152829270Y-107892722D01*
X152844517Y-107911702D01*
X152904246Y-107986060D01*
X152978653Y-108078848D01*
X153051131Y-108169388D01*
X153120314Y-108255978D01*
X153184841Y-108336918D01*
X153243347Y-108410506D01*
X153294470Y-108475044D01*
X153336847Y-108528829D01*
X153369115Y-108570162D01*
X153389910Y-108597342D01*
X153397869Y-108608668D01*
X153396111Y-108612771D01*
X153383230Y-108633334D01*
X153358885Y-108669561D01*
X153324247Y-108719824D01*
X153280486Y-108782492D01*
X153228775Y-108855936D01*
X153170284Y-108938527D01*
X153106184Y-109028636D01*
X153037646Y-109124631D01*
X152965843Y-109224885D01*
X152891944Y-109327768D01*
X152817121Y-109431650D01*
X152742545Y-109534901D01*
X152669387Y-109635892D01*
X152598819Y-109732994D01*
X152532011Y-109824577D01*
X152470135Y-109909011D01*
X152414361Y-109984667D01*
X152365862Y-110049916D01*
X152325807Y-110103128D01*
X152295369Y-110142673D01*
X152274944Y-110168026D01*
X152228899Y-110222295D01*
X152178612Y-110278775D01*
X152131815Y-110328669D01*
X152040651Y-110422400D01*
X151342445Y-110422400D01*
X151411356Y-110422349D01*
X151509607Y-110422091D01*
X151599030Y-110421637D01*
X151677333Y-110421010D01*
X151742223Y-110420235D01*
X151791411Y-110419335D01*
X151822604Y-110418334D01*
X151833511Y-110417257D01*
X151832322Y-110414037D01*
X151822176Y-110396452D01*
X151805040Y-110370158D01*
X151796540Y-110357691D01*
X151787329Y-110343622D01*
X151779233Y-110329351D01*
X151772185Y-110313479D01*
X151766117Y-110294609D01*
X151760961Y-110271341D01*
X151756651Y-110242278D01*
X151753119Y-110206021D01*
X151750297Y-110161170D01*
X151748118Y-110106328D01*
X151746514Y-110040097D01*
X151745419Y-109961077D01*
X151744765Y-109867871D01*
X151744484Y-109759079D01*
X151744509Y-109633303D01*
X151744772Y-109489145D01*
X151745206Y-109325207D01*
X151745745Y-109140089D01*
X151746279Y-108961232D01*
X151746805Y-108802374D01*
X151747350Y-108663316D01*
X151747945Y-108542665D01*
X151748619Y-108439028D01*
X151749403Y-108351011D01*
X151750326Y-108277223D01*
X151751419Y-108216269D01*
X151752712Y-108166757D01*
X151754235Y-108127293D01*
X151756019Y-108096484D01*
X151758092Y-108072938D01*
X151760486Y-108055260D01*
X151763230Y-108042059D01*
X151766356Y-108031940D01*
X151769892Y-108023511D01*
X151773791Y-108015375D01*
X151793438Y-107978544D01*
X151812225Y-107948391D01*
X151813272Y-107946908D01*
X151827602Y-107924659D01*
X151833511Y-107911702D01*
X151832504Y-107911249D01*
X151815305Y-107909803D01*
X151778656Y-107908480D01*
X151724962Y-107907316D01*
X151656630Y-107906347D01*
X151576064Y-107905611D01*
X151485670Y-107905142D01*
X151387853Y-107904978D01*
X150942195Y-107904978D01*
X150939120Y-109081845D01*
X150936045Y-110258711D01*
X150909407Y-110317622D01*
X150897485Y-110342183D01*
X150880246Y-110372434D01*
X150867074Y-110389560D01*
X150859076Y-110397591D01*
X150851378Y-110412493D01*
X150559942Y-110412493D01*
X150559474Y-110320029D01*
X150559050Y-110204617D01*
X150558706Y-110074160D01*
X150558434Y-109927716D01*
X150558227Y-109764344D01*
X150558076Y-109583101D01*
X150557972Y-109383048D01*
X150557908Y-109163241D01*
X150557876Y-108922739D01*
X150557867Y-108660602D01*
X150557867Y-106469031D01*
X150596249Y-106430649D01*
X150623355Y-106406911D01*
X150650253Y-106395111D01*
X150686560Y-106392267D01*
X150738489Y-106392267D01*
X150738489Y-106480206D01*
X150740427Y-106530102D01*
X150759199Y-106640523D01*
X150796217Y-106741987D01*
X150849369Y-106833152D01*
X150916546Y-106912673D01*
X150995638Y-106979205D01*
X151084534Y-107031406D01*
X151181125Y-107067930D01*
X151283300Y-107087434D01*
X151388950Y-107088573D01*
X151495964Y-107070005D01*
X151602232Y-107030384D01*
X151699219Y-106972516D01*
X151784293Y-106897684D01*
X151853015Y-106809615D01*
X151903918Y-106710616D01*
X151935535Y-106602993D01*
X151946400Y-106489054D01*
X151946400Y-106392267D01*
X153566753Y-106392267D01*
X153777897Y-106392280D01*
X153982020Y-106392330D01*
X154165686Y-106392430D01*
X154329991Y-106392592D01*
X154476029Y-106392829D01*
X154604894Y-106393153D01*
X154717683Y-106393575D01*
X154815488Y-106394109D01*
X154899404Y-106394767D01*
X154970527Y-106395561D01*
X155029950Y-106396504D01*
X155078768Y-106397608D01*
X155118077Y-106398884D01*
X155148969Y-106400347D01*
X155172541Y-106402007D01*
X155189886Y-106403878D01*
X155202099Y-106405972D01*
X155210275Y-106408300D01*
X155215508Y-106410876D01*
X155221504Y-106414445D01*
X155228279Y-106417978D01*
X155234478Y-106421488D01*
X155240126Y-106425918D01*
X155245247Y-106432208D01*
X155249869Y-106441301D01*
X155254015Y-106454139D01*
X155257713Y-106471662D01*
X155260987Y-106494813D01*
X155263863Y-106524534D01*
X155266367Y-106561765D01*
X155268524Y-106607449D01*
X155270360Y-106662527D01*
X155271900Y-106727941D01*
X155273170Y-106804633D01*
X155274195Y-106893544D01*
X155275001Y-106995617D01*
X155275034Y-107001867D01*
X155275614Y-107111792D01*
G37*
X150772971Y-119017822D02*
X147252178Y-119017822D01*
X147252178Y-118150198D01*
X150772971Y-118150198D01*
X150772971Y-119017822D01*
G36*
X150772971Y-119017822D02*
G01*
X147252178Y-119017822D01*
X147252178Y-118150198D01*
X150772971Y-118150198D01*
X150772971Y-119017822D01*
G37*
X149741894Y-113475718D02*
X149742388Y-113488668D01*
X149748819Y-113510411D01*
X149767123Y-113528851D01*
X149802830Y-113550801D01*
X149834174Y-113570854D01*
X149881893Y-113609356D01*
X149925138Y-113652579D01*
X149958219Y-113694627D01*
X149975442Y-113729604D01*
X149979662Y-113743081D01*
X149987480Y-113752334D01*
X149990116Y-113755454D01*
X150011662Y-113760696D01*
X150051314Y-113761782D01*
X150119109Y-113761782D01*
X150119109Y-113874951D01*
X149959577Y-113874951D01*
X149944682Y-114052732D01*
X149942682Y-114077037D01*
X149938023Y-114137880D01*
X149934731Y-114187389D01*
X149933092Y-114220992D01*
X149933390Y-114234116D01*
X149937724Y-114230343D01*
X149957496Y-114210676D01*
X149991679Y-114175818D01*
X150038541Y-114127576D01*
X150096354Y-114067757D01*
X150163387Y-113998167D01*
X150237912Y-113920615D01*
X150318197Y-113836907D01*
X150402513Y-113748849D01*
X150489130Y-113658250D01*
X150576319Y-113566915D01*
X150662349Y-113476653D01*
X150745492Y-113389269D01*
X150824016Y-113306572D01*
X150896192Y-113230368D01*
X150960291Y-113162463D01*
X151014583Y-113104666D01*
X151111592Y-113001040D01*
X151112034Y-113089315D01*
X151112475Y-113177589D01*
X150511938Y-113809158D01*
X149911401Y-114440726D01*
X149899396Y-114584674D01*
X149851365Y-115160635D01*
X149842876Y-115262791D01*
X149832343Y-115390612D01*
X149822621Y-115509767D01*
X149813898Y-115617914D01*
X149806358Y-115712713D01*
X149800187Y-115791819D01*
X149795573Y-115852892D01*
X149792700Y-115893590D01*
X149791754Y-115911570D01*
X149794251Y-115919808D01*
X149805471Y-115937599D01*
X149826751Y-115964411D01*
X149837021Y-115976129D01*
X149859225Y-116001466D01*
X149904023Y-116049986D01*
X149962281Y-116111192D01*
X150035129Y-116186307D01*
X150123703Y-116276550D01*
X150229134Y-116383145D01*
X150298492Y-116453093D01*
X150395179Y-116550658D01*
X150491526Y-116647941D01*
X150584638Y-116742014D01*
X150671618Y-116829950D01*
X150749569Y-116908820D01*
X150815596Y-116975699D01*
X150866802Y-117027658D01*
X151067514Y-117231620D01*
X151031058Y-117269671D01*
X151022460Y-117278245D01*
X150997095Y-117299297D01*
X150979695Y-117307723D01*
X150966071Y-117300530D01*
X150940743Y-117278944D01*
X150910379Y-117247995D01*
X150891896Y-117228448D01*
X150857427Y-117192752D01*
X150808712Y-117142684D01*
X150747469Y-117080001D01*
X150675420Y-117006457D01*
X150594285Y-116923810D01*
X150505784Y-116833815D01*
X150411637Y-116738228D01*
X150313565Y-116638805D01*
X149771161Y-116089343D01*
X149749066Y-116374746D01*
X149744250Y-116435662D01*
X149737216Y-116517548D01*
X149730872Y-116579569D01*
X149724748Y-116624987D01*
X149718373Y-116657062D01*
X149711277Y-116679052D01*
X149702991Y-116694219D01*
X149691393Y-116715416D01*
X149681850Y-116754386D01*
X149679010Y-116810531D01*
X149679010Y-116892773D01*
X149452674Y-116892773D01*
X149452674Y-116716733D01*
X148607082Y-116716733D01*
X148558203Y-116772262D01*
X148544836Y-116786722D01*
X148472388Y-116844813D01*
X148390532Y-116880576D01*
X148301900Y-116892773D01*
X148223692Y-116886306D01*
X148135233Y-116859047D01*
X148059507Y-116810328D01*
X148044748Y-116796403D01*
X148007864Y-116751328D01*
X147975503Y-116698819D01*
X147952297Y-116647061D01*
X147942879Y-116604239D01*
X147942697Y-116598023D01*
X147941342Y-116575246D01*
X147937800Y-116559513D01*
X147930390Y-116552068D01*
X147917431Y-116554156D01*
X147897243Y-116567020D01*
X147868145Y-116591905D01*
X147828456Y-116630053D01*
X147776496Y-116682710D01*
X147710584Y-116751119D01*
X147629040Y-116836524D01*
X147585604Y-116882112D01*
X147513000Y-116958441D01*
X147444309Y-117030808D01*
X147382223Y-117096366D01*
X147329434Y-117152274D01*
X147288634Y-117195686D01*
X147262515Y-117223758D01*
X147191119Y-117301436D01*
X147102863Y-117213416D01*
X147648690Y-116641287D01*
X147683105Y-116605188D01*
X147805546Y-116476272D01*
X147910651Y-116364754D01*
X147998736Y-116270288D01*
X148070116Y-116192529D01*
X148120588Y-116136174D01*
X148327247Y-116136174D01*
X148328872Y-116149434D01*
X148329156Y-116150819D01*
X148342698Y-116182228D01*
X148369748Y-116196863D01*
X148453129Y-116228063D01*
X148527418Y-116280038D01*
X148585846Y-116348791D01*
X148625890Y-116431315D01*
X148645026Y-116524606D01*
X148651364Y-116603565D01*
X149600838Y-116603565D01*
X149607458Y-116575273D01*
X149608629Y-116568329D01*
X149612268Y-116537281D01*
X149617234Y-116487081D01*
X149623157Y-116421727D01*
X149629669Y-116345219D01*
X149636401Y-116261555D01*
X149658724Y-115976129D01*
X149357826Y-115670565D01*
X149302636Y-115614704D01*
X149235109Y-115546888D01*
X149174529Y-115486643D01*
X149123021Y-115436052D01*
X149082710Y-115397200D01*
X149055722Y-115372170D01*
X149044182Y-115363046D01*
X149036444Y-115367405D01*
X149013395Y-115387241D01*
X148978709Y-115420375D01*
X148935487Y-115463820D01*
X148886832Y-115514587D01*
X148874140Y-115528051D01*
X148817229Y-115588275D01*
X148749414Y-115659864D01*
X148675800Y-115737437D01*
X148601493Y-115815611D01*
X148531599Y-115889005D01*
X148527401Y-115893409D01*
X148462420Y-115961785D01*
X148412836Y-116014732D01*
X148376688Y-116054767D01*
X148352016Y-116084411D01*
X148336858Y-116106181D01*
X148329256Y-116122595D01*
X148327247Y-116136174D01*
X148120588Y-116136174D01*
X148125105Y-116131131D01*
X148164019Y-116085748D01*
X148187173Y-116056035D01*
X148194882Y-116041644D01*
X148194883Y-116041559D01*
X148193825Y-116023624D01*
X148190737Y-115983421D01*
X148185858Y-115923687D01*
X148179432Y-115847158D01*
X148171700Y-115756569D01*
X148162905Y-115654657D01*
X148153287Y-115544159D01*
X148143091Y-115427811D01*
X148132556Y-115308348D01*
X148121926Y-115188507D01*
X148111442Y-115071025D01*
X148101346Y-114958637D01*
X148091881Y-114854081D01*
X148083288Y-114760091D01*
X148075809Y-114679405D01*
X148069687Y-114614759D01*
X148065162Y-114568888D01*
X148062478Y-114544530D01*
X148057067Y-114503732D01*
X148186253Y-114503732D01*
X148187908Y-114534653D01*
X148191549Y-114586653D01*
X148196995Y-114657487D01*
X148204063Y-114744911D01*
X148212570Y-114846681D01*
X148222335Y-114960552D01*
X148233174Y-115084279D01*
X148244907Y-115215618D01*
X148254079Y-115316908D01*
X148265566Y-115442526D01*
X148276322Y-115558762D01*
X148286131Y-115663380D01*
X148294781Y-115754140D01*
X148302057Y-115828804D01*
X148307746Y-115885134D01*
X148311634Y-115920891D01*
X148313506Y-115933837D01*
X148319188Y-115929826D01*
X148340020Y-115910138D01*
X148373872Y-115876322D01*
X148418412Y-115830837D01*
X148471310Y-115776146D01*
X148530236Y-115714710D01*
X148592858Y-115648990D01*
X148656848Y-115581449D01*
X148719874Y-115514547D01*
X148779606Y-115450746D01*
X148833713Y-115392507D01*
X148879865Y-115342292D01*
X148915733Y-115302563D01*
X148938984Y-115275780D01*
X148945778Y-115266477D01*
X149127601Y-115266477D01*
X149403305Y-115541968D01*
X149470726Y-115609224D01*
X149534267Y-115672162D01*
X149583490Y-115720100D01*
X149620196Y-115754594D01*
X149646190Y-115777199D01*
X149663276Y-115789471D01*
X149673256Y-115792966D01*
X149677935Y-115789238D01*
X149679116Y-115779844D01*
X149679873Y-115764749D01*
X149682601Y-115725883D01*
X149687108Y-115666895D01*
X149693179Y-115590473D01*
X149700596Y-115499305D01*
X149709142Y-115396080D01*
X149718602Y-115283483D01*
X149728758Y-115164205D01*
X149737723Y-115059077D01*
X149747066Y-114948351D01*
X149755443Y-114847814D01*
X149762653Y-114759943D01*
X149768496Y-114687215D01*
X149772769Y-114632110D01*
X149775273Y-114597104D01*
X149775805Y-114584674D01*
X149775384Y-114584908D01*
X149763509Y-114596350D01*
X149737130Y-114623198D01*
X149698570Y-114663018D01*
X149650153Y-114713372D01*
X149594203Y-114771828D01*
X149533042Y-114835948D01*
X149468995Y-114903298D01*
X149404385Y-114971443D01*
X149341535Y-115037948D01*
X149282768Y-115100377D01*
X149230409Y-115156295D01*
X149129533Y-115264406D01*
X149127601Y-115266477D01*
X148945778Y-115266477D01*
X148947290Y-115264406D01*
X148939148Y-115253383D01*
X148915478Y-115226999D01*
X148878478Y-115187527D01*
X148830350Y-115137191D01*
X148773296Y-115078217D01*
X148709520Y-115012830D01*
X148641222Y-114943255D01*
X148570605Y-114871716D01*
X148499871Y-114800438D01*
X148431222Y-114731647D01*
X148366861Y-114667566D01*
X148308989Y-114610422D01*
X148259810Y-114562439D01*
X148221524Y-114525841D01*
X148196334Y-114502854D01*
X148186442Y-114495703D01*
X148186253Y-114503732D01*
X148057067Y-114503732D01*
X148055390Y-114491089D01*
X147780297Y-114491089D01*
X147779968Y-114280471D01*
X147779797Y-114171172D01*
X147880891Y-114171172D01*
X147880891Y-114390495D01*
X147962624Y-114390495D01*
X147969895Y-114390489D01*
X148010950Y-114389613D01*
X148033277Y-114385867D01*
X148042529Y-114377270D01*
X148044357Y-114361840D01*
X148036306Y-114339159D01*
X148008730Y-114301428D01*
X147962624Y-114252179D01*
X147880891Y-114171172D01*
X147779797Y-114171172D01*
X147779639Y-114069852D01*
X147327914Y-113610891D01*
X146876189Y-113151931D01*
X146875570Y-113064848D01*
X146874951Y-112977767D01*
X147416769Y-113526952D01*
X147469137Y-113579998D01*
X147577803Y-113689772D01*
X147670709Y-113783114D01*
X147749055Y-113861173D01*
X147814043Y-113925097D01*
X147866872Y-113976035D01*
X147908743Y-114015135D01*
X147940855Y-114043548D01*
X147964410Y-114062420D01*
X147980608Y-114072901D01*
X147990649Y-114076139D01*
X148007579Y-114075158D01*
X148017084Y-114067996D01*
X148018723Y-114048401D01*
X148014782Y-114010124D01*
X148012065Y-113986025D01*
X148008284Y-113945744D01*
X148006760Y-113918961D01*
X148006015Y-113909728D01*
X147998746Y-113899839D01*
X147978668Y-113896562D01*
X147939689Y-113897992D01*
X147929737Y-113898553D01*
X147889898Y-113897921D01*
X147861560Y-113889167D01*
X147841586Y-113874951D01*
X148124852Y-113874951D01*
X148129013Y-113922104D01*
X148130935Y-113943498D01*
X148136924Y-114001909D01*
X148142826Y-114040381D01*
X148149727Y-114062912D01*
X148158712Y-114073498D01*
X148170870Y-114076139D01*
X148181801Y-114077937D01*
X148189050Y-114086530D01*
X148193100Y-114106505D01*
X148194863Y-114142450D01*
X148195248Y-114198952D01*
X148195248Y-114321766D01*
X148235447Y-114361840D01*
X148333565Y-114459654D01*
X148471881Y-114597542D01*
X148471881Y-114491089D01*
X149226337Y-114491089D01*
X149226337Y-114730000D01*
X148607831Y-114730000D01*
X148817592Y-114946906D01*
X148857770Y-114988334D01*
X148913328Y-115045200D01*
X148961570Y-115094082D01*
X148999971Y-115132441D01*
X149026003Y-115157741D01*
X149037140Y-115167442D01*
X149041373Y-115164767D01*
X149061224Y-115146782D01*
X149095451Y-115113481D01*
X149142227Y-115066712D01*
X149199724Y-115008325D01*
X149266112Y-114940169D01*
X149339564Y-114864094D01*
X149418251Y-114781950D01*
X149497341Y-114698943D01*
X149574871Y-114617136D01*
X149637746Y-114550083D01*
X149687502Y-114496007D01*
X149725678Y-114453129D01*
X149753811Y-114419673D01*
X149773440Y-114393861D01*
X149786101Y-114373914D01*
X149793334Y-114358056D01*
X149796675Y-114344509D01*
X149797561Y-114337910D01*
X149801488Y-114301548D01*
X149806459Y-114248018D01*
X149811927Y-114183421D01*
X149817344Y-114113862D01*
X149819181Y-114089635D01*
X149824488Y-114024178D01*
X149829548Y-113967717D01*
X149833863Y-113925618D01*
X149836934Y-113903243D01*
X149842955Y-113874951D01*
X148124852Y-113874951D01*
X147841586Y-113874951D01*
X147833630Y-113869289D01*
X147828820Y-113865104D01*
X147789482Y-113814427D01*
X147773903Y-113761782D01*
X148114698Y-113761782D01*
X149529221Y-113761782D01*
X149527172Y-113711485D01*
X149741881Y-113711485D01*
X149741881Y-113761782D01*
X149798908Y-113761782D01*
X149815993Y-113761662D01*
X149841308Y-113759462D01*
X149848616Y-113752334D01*
X149842943Y-113737508D01*
X149841267Y-113734682D01*
X149822448Y-113712944D01*
X149795183Y-113688820D01*
X149767987Y-113669254D01*
X149749371Y-113661188D01*
X149747697Y-113662463D01*
X149743544Y-113679976D01*
X149741881Y-113711485D01*
X149527172Y-113711485D01*
X149525526Y-113671095D01*
X149521832Y-113580407D01*
X149446386Y-113565252D01*
X149408551Y-113558379D01*
X149345368Y-113548756D01*
X149286065Y-113541496D01*
X149201188Y-113532893D01*
X149201188Y-113636040D01*
X148622773Y-113636040D01*
X148622773Y-113545122D01*
X148550471Y-113553753D01*
X148439998Y-113572249D01*
X148328816Y-113605691D01*
X148236850Y-113652324D01*
X148162542Y-113712786D01*
X148114698Y-113761782D01*
X147773903Y-113761782D01*
X147772172Y-113755934D01*
X147777474Y-113694575D01*
X147805975Y-113635297D01*
X147808733Y-113631606D01*
X147846822Y-113599851D01*
X147896476Y-113581067D01*
X147950002Y-113576071D01*
X147999707Y-113585678D01*
X148037900Y-113610704D01*
X148050831Y-113623480D01*
X148063428Y-113626576D01*
X148081467Y-113616998D01*
X148111928Y-113593082D01*
X148121274Y-113585731D01*
X148193430Y-113539339D01*
X148278915Y-113498084D01*
X148348830Y-113472575D01*
X148723367Y-113472575D01*
X148723367Y-113535446D01*
X149100594Y-113535446D01*
X149100594Y-113472575D01*
X148723367Y-113472575D01*
X148348830Y-113472575D01*
X148369767Y-113464936D01*
X148458027Y-113442868D01*
X148535736Y-113434852D01*
X148543991Y-113434788D01*
X148589879Y-113430321D01*
X148615079Y-113417795D01*
X148622773Y-113395784D01*
X148623676Y-113388849D01*
X148628615Y-113382885D01*
X148640611Y-113378519D01*
X148662680Y-113375503D01*
X148697836Y-113373590D01*
X148749094Y-113372530D01*
X148819471Y-113372077D01*
X148911980Y-113371980D01*
X148998660Y-113372150D01*
X149072332Y-113372834D01*
X149126265Y-113374215D01*
X149163288Y-113376470D01*
X149186230Y-113379778D01*
X149197920Y-113384320D01*
X149201188Y-113390272D01*
X149211937Y-113404888D01*
X149242055Y-113414215D01*
X149253582Y-113415847D01*
X149292886Y-113421591D01*
X149345188Y-113429378D01*
X149402376Y-113438003D01*
X149433916Y-113442393D01*
X149480074Y-113447148D01*
X149512641Y-113448295D01*
X149526023Y-113445495D01*
X149528308Y-113443671D01*
X149549405Y-113439165D01*
X149587355Y-113436029D01*
X149636048Y-113434852D01*
X149741881Y-113434852D01*
X149741894Y-113472575D01*
X149741894Y-113475718D01*
G36*
X149741894Y-113475718D02*
G01*
X149742388Y-113488668D01*
X149748819Y-113510411D01*
X149767123Y-113528851D01*
X149802830Y-113550801D01*
X149834174Y-113570854D01*
X149881893Y-113609356D01*
X149925138Y-113652579D01*
X149958219Y-113694627D01*
X149975442Y-113729604D01*
X149979662Y-113743081D01*
X149987480Y-113752334D01*
X149990116Y-113755454D01*
X150011662Y-113760696D01*
X150051314Y-113761782D01*
X150119109Y-113761782D01*
X150119109Y-113874951D01*
X149959577Y-113874951D01*
X149944682Y-114052732D01*
X149942682Y-114077037D01*
X149938023Y-114137880D01*
X149934731Y-114187389D01*
X149933092Y-114220992D01*
X149933390Y-114234116D01*
X149937724Y-114230343D01*
X149957496Y-114210676D01*
X149991679Y-114175818D01*
X150038541Y-114127576D01*
X150096354Y-114067757D01*
X150163387Y-113998167D01*
X150237912Y-113920615D01*
X150318197Y-113836907D01*
X150402513Y-113748849D01*
X150489130Y-113658250D01*
X150576319Y-113566915D01*
X150662349Y-113476653D01*
X150745492Y-113389269D01*
X150824016Y-113306572D01*
X150896192Y-113230368D01*
X150960291Y-113162463D01*
X151014583Y-113104666D01*
X151111592Y-113001040D01*
X151112034Y-113089315D01*
X151112475Y-113177589D01*
X150511938Y-113809158D01*
X149911401Y-114440726D01*
X149899396Y-114584674D01*
X149851365Y-115160635D01*
X149842876Y-115262791D01*
X149832343Y-115390612D01*
X149822621Y-115509767D01*
X149813898Y-115617914D01*
X149806358Y-115712713D01*
X149800187Y-115791819D01*
X149795573Y-115852892D01*
X149792700Y-115893590D01*
X149791754Y-115911570D01*
X149794251Y-115919808D01*
X149805471Y-115937599D01*
X149826751Y-115964411D01*
X149837021Y-115976129D01*
X149859225Y-116001466D01*
X149904023Y-116049986D01*
X149962281Y-116111192D01*
X150035129Y-116186307D01*
X150123703Y-116276550D01*
X150229134Y-116383145D01*
X150298492Y-116453093D01*
X150395179Y-116550658D01*
X150491526Y-116647941D01*
X150584638Y-116742014D01*
X150671618Y-116829950D01*
X150749569Y-116908820D01*
X150815596Y-116975699D01*
X150866802Y-117027658D01*
X151067514Y-117231620D01*
X151031058Y-117269671D01*
X151022460Y-117278245D01*
X150997095Y-117299297D01*
X150979695Y-117307723D01*
X150966071Y-117300530D01*
X150940743Y-117278944D01*
X150910379Y-117247995D01*
X150891896Y-117228448D01*
X150857427Y-117192752D01*
X150808712Y-117142684D01*
X150747469Y-117080001D01*
X150675420Y-117006457D01*
X150594285Y-116923810D01*
X150505784Y-116833815D01*
X150411637Y-116738228D01*
X150313565Y-116638805D01*
X149771161Y-116089343D01*
X149749066Y-116374746D01*
X149744250Y-116435662D01*
X149737216Y-116517548D01*
X149730872Y-116579569D01*
X149724748Y-116624987D01*
X149718373Y-116657062D01*
X149711277Y-116679052D01*
X149702991Y-116694219D01*
X149691393Y-116715416D01*
X149681850Y-116754386D01*
X149679010Y-116810531D01*
X149679010Y-116892773D01*
X149452674Y-116892773D01*
X149452674Y-116716733D01*
X148607082Y-116716733D01*
X148558203Y-116772262D01*
X148544836Y-116786722D01*
X148472388Y-116844813D01*
X148390532Y-116880576D01*
X148301900Y-116892773D01*
X148223692Y-116886306D01*
X148135233Y-116859047D01*
X148059507Y-116810328D01*
X148044748Y-116796403D01*
X148007864Y-116751328D01*
X147975503Y-116698819D01*
X147952297Y-116647061D01*
X147942879Y-116604239D01*
X147942697Y-116598023D01*
X147941342Y-116575246D01*
X147937800Y-116559513D01*
X147930390Y-116552068D01*
X147917431Y-116554156D01*
X147897243Y-116567020D01*
X147868145Y-116591905D01*
X147828456Y-116630053D01*
X147776496Y-116682710D01*
X147710584Y-116751119D01*
X147629040Y-116836524D01*
X147585604Y-116882112D01*
X147513000Y-116958441D01*
X147444309Y-117030808D01*
X147382223Y-117096366D01*
X147329434Y-117152274D01*
X147288634Y-117195686D01*
X147262515Y-117223758D01*
X147191119Y-117301436D01*
X147102863Y-117213416D01*
X147648690Y-116641287D01*
X147683105Y-116605188D01*
X147805546Y-116476272D01*
X147910651Y-116364754D01*
X147998736Y-116270288D01*
X148070116Y-116192529D01*
X148120588Y-116136174D01*
X148327247Y-116136174D01*
X148328872Y-116149434D01*
X148329156Y-116150819D01*
X148342698Y-116182228D01*
X148369748Y-116196863D01*
X148453129Y-116228063D01*
X148527418Y-116280038D01*
X148585846Y-116348791D01*
X148625890Y-116431315D01*
X148645026Y-116524606D01*
X148651364Y-116603565D01*
X149600838Y-116603565D01*
X149607458Y-116575273D01*
X149608629Y-116568329D01*
X149612268Y-116537281D01*
X149617234Y-116487081D01*
X149623157Y-116421727D01*
X149629669Y-116345219D01*
X149636401Y-116261555D01*
X149658724Y-115976129D01*
X149357826Y-115670565D01*
X149302636Y-115614704D01*
X149235109Y-115546888D01*
X149174529Y-115486643D01*
X149123021Y-115436052D01*
X149082710Y-115397200D01*
X149055722Y-115372170D01*
X149044182Y-115363046D01*
X149036444Y-115367405D01*
X149013395Y-115387241D01*
X148978709Y-115420375D01*
X148935487Y-115463820D01*
X148886832Y-115514587D01*
X148874140Y-115528051D01*
X148817229Y-115588275D01*
X148749414Y-115659864D01*
X148675800Y-115737437D01*
X148601493Y-115815611D01*
X148531599Y-115889005D01*
X148527401Y-115893409D01*
X148462420Y-115961785D01*
X148412836Y-116014732D01*
X148376688Y-116054767D01*
X148352016Y-116084411D01*
X148336858Y-116106181D01*
X148329256Y-116122595D01*
X148327247Y-116136174D01*
X148120588Y-116136174D01*
X148125105Y-116131131D01*
X148164019Y-116085748D01*
X148187173Y-116056035D01*
X148194882Y-116041644D01*
X148194883Y-116041559D01*
X148193825Y-116023624D01*
X148190737Y-115983421D01*
X148185858Y-115923687D01*
X148179432Y-115847158D01*
X148171700Y-115756569D01*
X148162905Y-115654657D01*
X148153287Y-115544159D01*
X148143091Y-115427811D01*
X148132556Y-115308348D01*
X148121926Y-115188507D01*
X148111442Y-115071025D01*
X148101346Y-114958637D01*
X148091881Y-114854081D01*
X148083288Y-114760091D01*
X148075809Y-114679405D01*
X148069687Y-114614759D01*
X148065162Y-114568888D01*
X148062478Y-114544530D01*
X148057067Y-114503732D01*
X148186253Y-114503732D01*
X148187908Y-114534653D01*
X148191549Y-114586653D01*
X148196995Y-114657487D01*
X148204063Y-114744911D01*
X148212570Y-114846681D01*
X148222335Y-114960552D01*
X148233174Y-115084279D01*
X148244907Y-115215618D01*
X148254079Y-115316908D01*
X148265566Y-115442526D01*
X148276322Y-115558762D01*
X148286131Y-115663380D01*
X148294781Y-115754140D01*
X148302057Y-115828804D01*
X148307746Y-115885134D01*
X148311634Y-115920891D01*
X148313506Y-115933837D01*
X148319188Y-115929826D01*
X148340020Y-115910138D01*
X148373872Y-115876322D01*
X148418412Y-115830837D01*
X148471310Y-115776146D01*
X148530236Y-115714710D01*
X148592858Y-115648990D01*
X148656848Y-115581449D01*
X148719874Y-115514547D01*
X148779606Y-115450746D01*
X148833713Y-115392507D01*
X148879865Y-115342292D01*
X148915733Y-115302563D01*
X148938984Y-115275780D01*
X148945778Y-115266477D01*
X149127601Y-115266477D01*
X149403305Y-115541968D01*
X149470726Y-115609224D01*
X149534267Y-115672162D01*
X149583490Y-115720100D01*
X149620196Y-115754594D01*
X149646190Y-115777199D01*
X149663276Y-115789471D01*
X149673256Y-115792966D01*
X149677935Y-115789238D01*
X149679116Y-115779844D01*
X149679873Y-115764749D01*
X149682601Y-115725883D01*
X149687108Y-115666895D01*
X149693179Y-115590473D01*
X149700596Y-115499305D01*
X149709142Y-115396080D01*
X149718602Y-115283483D01*
X149728758Y-115164205D01*
X149737723Y-115059077D01*
X149747066Y-114948351D01*
X149755443Y-114847814D01*
X149762653Y-114759943D01*
X149768496Y-114687215D01*
X149772769Y-114632110D01*
X149775273Y-114597104D01*
X149775805Y-114584674D01*
X149775384Y-114584908D01*
X149763509Y-114596350D01*
X149737130Y-114623198D01*
X149698570Y-114663018D01*
X149650153Y-114713372D01*
X149594203Y-114771828D01*
X149533042Y-114835948D01*
X149468995Y-114903298D01*
X149404385Y-114971443D01*
X149341535Y-115037948D01*
X149282768Y-115100377D01*
X149230409Y-115156295D01*
X149129533Y-115264406D01*
X149127601Y-115266477D01*
X148945778Y-115266477D01*
X148947290Y-115264406D01*
X148939148Y-115253383D01*
X148915478Y-115226999D01*
X148878478Y-115187527D01*
X148830350Y-115137191D01*
X148773296Y-115078217D01*
X148709520Y-115012830D01*
X148641222Y-114943255D01*
X148570605Y-114871716D01*
X148499871Y-114800438D01*
X148431222Y-114731647D01*
X148366861Y-114667566D01*
X148308989Y-114610422D01*
X148259810Y-114562439D01*
X148221524Y-114525841D01*
X148196334Y-114502854D01*
X148186442Y-114495703D01*
X148186253Y-114503732D01*
X148057067Y-114503732D01*
X148055390Y-114491089D01*
X147780297Y-114491089D01*
X147779968Y-114280471D01*
X147779797Y-114171172D01*
X147880891Y-114171172D01*
X147880891Y-114390495D01*
X147962624Y-114390495D01*
X147969895Y-114390489D01*
X148010950Y-114389613D01*
X148033277Y-114385867D01*
X148042529Y-114377270D01*
X148044357Y-114361840D01*
X148036306Y-114339159D01*
X148008730Y-114301428D01*
X147962624Y-114252179D01*
X147880891Y-114171172D01*
X147779797Y-114171172D01*
X147779639Y-114069852D01*
X147327914Y-113610891D01*
X146876189Y-113151931D01*
X146875570Y-113064848D01*
X146874951Y-112977767D01*
X147416769Y-113526952D01*
X147469137Y-113579998D01*
X147577803Y-113689772D01*
X147670709Y-113783114D01*
X147749055Y-113861173D01*
X147814043Y-113925097D01*
X147866872Y-113976035D01*
X147908743Y-114015135D01*
X147940855Y-114043548D01*
X147964410Y-114062420D01*
X147980608Y-114072901D01*
X147990649Y-114076139D01*
X148007579Y-114075158D01*
X148017084Y-114067996D01*
X148018723Y-114048401D01*
X148014782Y-114010124D01*
X148012065Y-113986025D01*
X148008284Y-113945744D01*
X148006760Y-113918961D01*
X148006015Y-113909728D01*
X147998746Y-113899839D01*
X147978668Y-113896562D01*
X147939689Y-113897992D01*
X147929737Y-113898553D01*
X147889898Y-113897921D01*
X147861560Y-113889167D01*
X147841586Y-113874951D01*
X148124852Y-113874951D01*
X148129013Y-113922104D01*
X148130935Y-113943498D01*
X148136924Y-114001909D01*
X148142826Y-114040381D01*
X148149727Y-114062912D01*
X148158712Y-114073498D01*
X148170870Y-114076139D01*
X148181801Y-114077937D01*
X148189050Y-114086530D01*
X148193100Y-114106505D01*
X148194863Y-114142450D01*
X148195248Y-114198952D01*
X148195248Y-114321766D01*
X148235447Y-114361840D01*
X148333565Y-114459654D01*
X148471881Y-114597542D01*
X148471881Y-114491089D01*
X149226337Y-114491089D01*
X149226337Y-114730000D01*
X148607831Y-114730000D01*
X148817592Y-114946906D01*
X148857770Y-114988334D01*
X148913328Y-115045200D01*
X148961570Y-115094082D01*
X148999971Y-115132441D01*
X149026003Y-115157741D01*
X149037140Y-115167442D01*
X149041373Y-115164767D01*
X149061224Y-115146782D01*
X149095451Y-115113481D01*
X149142227Y-115066712D01*
X149199724Y-115008325D01*
X149266112Y-114940169D01*
X149339564Y-114864094D01*
X149418251Y-114781950D01*
X149497341Y-114698943D01*
X149574871Y-114617136D01*
X149637746Y-114550083D01*
X149687502Y-114496007D01*
X149725678Y-114453129D01*
X149753811Y-114419673D01*
X149773440Y-114393861D01*
X149786101Y-114373914D01*
X149793334Y-114358056D01*
X149796675Y-114344509D01*
X149797561Y-114337910D01*
X149801488Y-114301548D01*
X149806459Y-114248018D01*
X149811927Y-114183421D01*
X149817344Y-114113862D01*
X149819181Y-114089635D01*
X149824488Y-114024178D01*
X149829548Y-113967717D01*
X149833863Y-113925618D01*
X149836934Y-113903243D01*
X149842955Y-113874951D01*
X148124852Y-113874951D01*
X147841586Y-113874951D01*
X147833630Y-113869289D01*
X147828820Y-113865104D01*
X147789482Y-113814427D01*
X147773903Y-113761782D01*
X148114698Y-113761782D01*
X149529221Y-113761782D01*
X149527172Y-113711485D01*
X149741881Y-113711485D01*
X149741881Y-113761782D01*
X149798908Y-113761782D01*
X149815993Y-113761662D01*
X149841308Y-113759462D01*
X149848616Y-113752334D01*
X149842943Y-113737508D01*
X149841267Y-113734682D01*
X149822448Y-113712944D01*
X149795183Y-113688820D01*
X149767987Y-113669254D01*
X149749371Y-113661188D01*
X149747697Y-113662463D01*
X149743544Y-113679976D01*
X149741881Y-113711485D01*
X149527172Y-113711485D01*
X149525526Y-113671095D01*
X149521832Y-113580407D01*
X149446386Y-113565252D01*
X149408551Y-113558379D01*
X149345368Y-113548756D01*
X149286065Y-113541496D01*
X149201188Y-113532893D01*
X149201188Y-113636040D01*
X148622773Y-113636040D01*
X148622773Y-113545122D01*
X148550471Y-113553753D01*
X148439998Y-113572249D01*
X148328816Y-113605691D01*
X148236850Y-113652324D01*
X148162542Y-113712786D01*
X148114698Y-113761782D01*
X147773903Y-113761782D01*
X147772172Y-113755934D01*
X147777474Y-113694575D01*
X147805975Y-113635297D01*
X147808733Y-113631606D01*
X147846822Y-113599851D01*
X147896476Y-113581067D01*
X147950002Y-113576071D01*
X147999707Y-113585678D01*
X148037900Y-113610704D01*
X148050831Y-113623480D01*
X148063428Y-113626576D01*
X148081467Y-113616998D01*
X148111928Y-113593082D01*
X148121274Y-113585731D01*
X148193430Y-113539339D01*
X148278915Y-113498084D01*
X148348830Y-113472575D01*
X148723367Y-113472575D01*
X148723367Y-113535446D01*
X149100594Y-113535446D01*
X149100594Y-113472575D01*
X148723367Y-113472575D01*
X148348830Y-113472575D01*
X148369767Y-113464936D01*
X148458027Y-113442868D01*
X148535736Y-113434852D01*
X148543991Y-113434788D01*
X148589879Y-113430321D01*
X148615079Y-113417795D01*
X148622773Y-113395784D01*
X148623676Y-113388849D01*
X148628615Y-113382885D01*
X148640611Y-113378519D01*
X148662680Y-113375503D01*
X148697836Y-113373590D01*
X148749094Y-113372530D01*
X148819471Y-113372077D01*
X148911980Y-113371980D01*
X148998660Y-113372150D01*
X149072332Y-113372834D01*
X149126265Y-113374215D01*
X149163288Y-113376470D01*
X149186230Y-113379778D01*
X149197920Y-113384320D01*
X149201188Y-113390272D01*
X149211937Y-113404888D01*
X149242055Y-113414215D01*
X149253582Y-113415847D01*
X149292886Y-113421591D01*
X149345188Y-113429378D01*
X149402376Y-113438003D01*
X149433916Y-113442393D01*
X149480074Y-113447148D01*
X149512641Y-113448295D01*
X149526023Y-113445495D01*
X149528308Y-113443671D01*
X149549405Y-113439165D01*
X149587355Y-113436029D01*
X149636048Y-113434852D01*
X149741881Y-113434852D01*
X149741894Y-113472575D01*
X149741894Y-113475718D01*
G37*
%TD*%
M02*
