%TF.GenerationSoftware,KiCad,Pcbnew,8.0.3*%
%TF.CreationDate,2024-07-09T16:52:22+05:30*%
%TF.ProjectId,ECG,4543472e-6b69-4636-9164-5f7063625858,rev?*%
%TF.SameCoordinates,Original*%
%TF.FileFunction,Copper,L2,Bot*%
%TF.FilePolarity,Positive*%
%FSLAX46Y46*%
G04 Gerber Fmt 4.6, Leading zero omitted, Abs format (unit mm)*
G04 Created by KiCad (PCBNEW 8.0.3) date 2024-07-09 16:52:22*
%MOMM*%
%LPD*%
G01*
G04 APERTURE LIST*
%TA.AperFunction,ComponentPad*%
%ADD10C,2.000000*%
%TD*%
%TA.AperFunction,ComponentPad*%
%ADD11C,1.600000*%
%TD*%
%TA.AperFunction,ComponentPad*%
%ADD12O,1.600000X1.600000*%
%TD*%
%TA.AperFunction,ComponentPad*%
%ADD13R,2.600000X2.600000*%
%TD*%
%TA.AperFunction,ComponentPad*%
%ADD14C,2.600000*%
%TD*%
%TA.AperFunction,ComponentPad*%
%ADD15R,1.600000X1.600000*%
%TD*%
%TA.AperFunction,ComponentPad*%
%ADD16R,1.700000X1.700000*%
%TD*%
%TA.AperFunction,ComponentPad*%
%ADD17O,1.700000X1.700000*%
%TD*%
%TA.AperFunction,ViaPad*%
%ADD18C,0.600000*%
%TD*%
%TA.AperFunction,Conductor*%
%ADD19C,0.200000*%
%TD*%
G04 APERTURE END LIST*
D10*
%TO.P,C3,1*%
%TO.N,Net-(C1-Pad2)*%
X161000000Y-97000000D03*
%TO.P,C3,2*%
%TO.N,Net-(U4-+)*%
X153500000Y-97000000D03*
%TD*%
D11*
%TO.P,R2,1*%
%TO.N,Net-(U1--)*%
X114000000Y-79880000D03*
D12*
%TO.P,R2,2*%
%TO.N,Net-(R2-Pad2)*%
X114000000Y-95120000D03*
%TD*%
D11*
%TO.P,R9,1*%
%TO.N,Net-(C2-Pad1)*%
X129380000Y-78000000D03*
D12*
%TO.P,R9,2*%
%TO.N,Net-(U4-+)*%
X144620000Y-78000000D03*
%TD*%
D10*
%TO.P,C2,1*%
%TO.N,Net-(C2-Pad1)*%
X173000000Y-97000000D03*
%TO.P,C2,2*%
%TO.N,GND*%
X180500000Y-97000000D03*
%TD*%
D13*
%TO.P,V3,1*%
%TO.N,GND*%
X154950000Y-125500000D03*
D14*
%TO.P,V3,2*%
%TO.N,Net-(U1-V-)*%
X210550000Y-125500000D03*
%TD*%
D11*
%TO.P,R8,1*%
%TO.N,Net-(C1-Pad1)*%
X129380000Y-72500000D03*
D12*
%TO.P,R8,2*%
%TO.N,Net-(C2-Pad1)*%
X144620000Y-72500000D03*
%TD*%
D15*
%TO.P,U1,1,NULL*%
%TO.N,unconnected-(U1-NULL-Pad1)*%
X91700000Y-94300000D03*
D12*
%TO.P,U1,2,-*%
%TO.N,Net-(U1--)*%
X91700000Y-96840000D03*
%TO.P,U1,3,+*%
%TO.N,GND*%
X91700000Y-99380000D03*
%TO.P,U1,4,V-*%
%TO.N,Net-(U1-V-)*%
X91700000Y-101920000D03*
%TO.P,U1,5,NULL*%
%TO.N,unconnected-(U1-NULL-Pad5)*%
X99320000Y-101920000D03*
%TO.P,U1,6*%
%TO.N,Net-(R2-Pad2)*%
X99320000Y-99380000D03*
%TO.P,U1,7,V+*%
%TO.N,Net-(U1-V+)*%
X99320000Y-96840000D03*
%TO.P,U1,8,NC*%
%TO.N,unconnected-(U1-NC-Pad8)*%
X99320000Y-94300000D03*
%TD*%
D11*
%TO.P,R11,1*%
%TO.N,Net-(U4--)*%
X191320000Y-74180000D03*
D12*
%TO.P,R11,2*%
%TO.N,Net-(C5-Pad2)*%
X191320000Y-89420000D03*
%TD*%
D11*
%TO.P,C4,1*%
%TO.N,Net-(U5-+)*%
X194000000Y-98500000D03*
%TO.P,C4,2*%
%TO.N,GND*%
X196500000Y-98500000D03*
%TD*%
%TO.P,R3,1*%
%TO.N,Net-(U2--)*%
X109250000Y-79880000D03*
D12*
%TO.P,R3,2*%
%TO.N,Net-(R3-Pad2)*%
X109250000Y-95120000D03*
%TD*%
D10*
%TO.P,C1,1*%
%TO.N,Net-(C1-Pad1)*%
X153500000Y-77500000D03*
%TO.P,C1,2*%
%TO.N,Net-(C1-Pad2)*%
X161000000Y-77500000D03*
%TD*%
D13*
%TO.P,V2,1*%
%TO.N,Net-(U1-V+)*%
X86450000Y-125500000D03*
D14*
%TO.P,V2,2*%
%TO.N,GND*%
X142050000Y-125500000D03*
%TD*%
D15*
%TO.P,U5,1,NULL*%
%TO.N,unconnected-(U5-NULL-Pad1)*%
X210120000Y-78000000D03*
D12*
%TO.P,U5,2,-*%
%TO.N,Net-(U5--)*%
X207580000Y-78000000D03*
%TO.P,U5,3,+*%
%TO.N,Net-(U5-+)*%
X205040000Y-78000000D03*
%TO.P,U5,4,V-*%
%TO.N,Net-(U1-V-)*%
X202500000Y-78000000D03*
%TO.P,U5,5,NULL*%
%TO.N,unconnected-(U5-NULL-Pad5)*%
X202500000Y-85620000D03*
%TO.P,U5,6*%
%TO.N,Net-(U5--)*%
X205040000Y-85620000D03*
%TO.P,U5,7,V+*%
%TO.N,Net-(U1-V+)*%
X207580000Y-85620000D03*
%TO.P,U5,8,NC*%
%TO.N,unconnected-(U5-NC-Pad8)*%
X210120000Y-85620000D03*
%TD*%
D11*
%TO.P,R6,1*%
%TO.N,GND*%
X144620000Y-102000000D03*
D12*
%TO.P,R6,2*%
%TO.N,Net-(U3-+)*%
X129380000Y-102000000D03*
%TD*%
D11*
%TO.P,R12,1*%
%TO.N,Net-(C5-Pad2)*%
X196320000Y-89420000D03*
D12*
%TO.P,R12,2*%
%TO.N,Net-(U5-+)*%
X196320000Y-74180000D03*
%TD*%
D15*
%TO.P,U4,1,NULL*%
%TO.N,unconnected-(U4-NULL-Pad1)*%
X177800000Y-75200000D03*
D12*
%TO.P,U4,2,-*%
%TO.N,Net-(U4--)*%
X175260000Y-75200000D03*
%TO.P,U4,3,+*%
%TO.N,Net-(U4-+)*%
X172720000Y-75200000D03*
%TO.P,U4,4,V-*%
%TO.N,Net-(U1-V-)*%
X170180000Y-75200000D03*
%TO.P,U4,5,NULL*%
%TO.N,unconnected-(U4-NULL-Pad5)*%
X170180000Y-82820000D03*
%TO.P,U4,6*%
%TO.N,Net-(U4--)*%
X172720000Y-82820000D03*
%TO.P,U4,7,V+*%
%TO.N,Net-(U1-V+)*%
X175260000Y-82820000D03*
%TO.P,U4,8,NC*%
%TO.N,unconnected-(U4-NC-Pad8)*%
X177800000Y-82820000D03*
%TD*%
D15*
%TO.P,U2,1,NULL*%
%TO.N,unconnected-(U2-NULL-Pad1)*%
X92000000Y-76960000D03*
D12*
%TO.P,U2,2,-*%
%TO.N,Net-(U2--)*%
X92000000Y-79500000D03*
%TO.P,U2,3,+*%
%TO.N,Net-(U2-+)*%
X92000000Y-82040000D03*
%TO.P,U2,4,V-*%
%TO.N,Net-(U1-V-)*%
X92000000Y-84580000D03*
%TO.P,U2,5,NULL*%
%TO.N,unconnected-(U2-NULL-Pad5)*%
X99620000Y-84580000D03*
%TO.P,U2,6*%
%TO.N,Net-(R3-Pad2)*%
X99620000Y-82040000D03*
%TO.P,U2,7,V+*%
%TO.N,Net-(U1-V+)*%
X99620000Y-79500000D03*
%TO.P,U2,8,NC*%
%TO.N,unconnected-(U2-NC-Pad8)*%
X99620000Y-76960000D03*
%TD*%
D16*
%TO.P,V1,1*%
%TO.N,Net-(U2-+)*%
X86000000Y-94725000D03*
D17*
%TO.P,V1,2*%
%TO.N,GND*%
X86000000Y-97265000D03*
%TD*%
D11*
%TO.P,R10,1*%
%TO.N,Net-(C1-Pad2)*%
X186320000Y-89420000D03*
D12*
%TO.P,R10,2*%
%TO.N,Net-(U4--)*%
X186320000Y-74180000D03*
%TD*%
D11*
%TO.P,R1,1*%
%TO.N,Net-(U1--)*%
X104500000Y-95120000D03*
D12*
%TO.P,R1,2*%
%TO.N,Net-(U2--)*%
X104500000Y-79880000D03*
%TD*%
D11*
%TO.P,C5,1*%
%TO.N,Net-(U5--)*%
X205250000Y-98500000D03*
%TO.P,C5,2*%
%TO.N,Net-(C5-Pad2)*%
X202750000Y-98500000D03*
%TD*%
%TO.P,R4,1*%
%TO.N,Net-(R2-Pad2)*%
X119000000Y-95120000D03*
D12*
%TO.P,R4,2*%
%TO.N,Net-(U3-+)*%
X119000000Y-79880000D03*
%TD*%
D15*
%TO.P,U3,1,NULL*%
%TO.N,unconnected-(U3-NULL-Pad1)*%
X140300000Y-83700000D03*
D12*
%TO.P,U3,2,-*%
%TO.N,Net-(U3--)*%
X137760000Y-83700000D03*
%TO.P,U3,3,+*%
%TO.N,Net-(U3-+)*%
X135220000Y-83700000D03*
%TO.P,U3,4,V-*%
%TO.N,Net-(U1-V-)*%
X132680000Y-83700000D03*
%TO.P,U3,5,NULL*%
%TO.N,unconnected-(U3-NULL-Pad5)*%
X132680000Y-91320000D03*
%TO.P,U3,6*%
%TO.N,Net-(C1-Pad1)*%
X135220000Y-91320000D03*
%TO.P,U3,7,V+*%
%TO.N,Net-(U1-V+)*%
X137760000Y-91320000D03*
%TO.P,U3,8,NC*%
%TO.N,unconnected-(U3-NC-Pad8)*%
X140300000Y-91320000D03*
%TD*%
D11*
%TO.P,R7,1*%
%TO.N,Net-(U3--)*%
X144620000Y-97000000D03*
D12*
%TO.P,R7,2*%
%TO.N,Net-(C1-Pad1)*%
X129380000Y-97000000D03*
%TD*%
D11*
%TO.P,R5,1*%
%TO.N,Net-(R3-Pad2)*%
X124000000Y-95120000D03*
D12*
%TO.P,R5,2*%
%TO.N,Net-(U3--)*%
X124000000Y-79880000D03*
%TD*%
D18*
%TO.N,Net-(C1-Pad1)*%
X153500000Y-73500000D03*
%TD*%
D19*
%TO.N,Net-(C1-Pad1)*%
X149454214Y-77500000D02*
X153500000Y-77500000D01*
X135220000Y-91320000D02*
X148747107Y-77792893D01*
X130894214Y-71400000D02*
X150985786Y-71400000D01*
X129380000Y-72500000D02*
X130187107Y-71692893D01*
X151692893Y-71692893D02*
X153500000Y-73500000D01*
X151692893Y-71692893D02*
G75*
G03*
X150985786Y-71400010I-707093J-707107D01*
G01*
X148747107Y-77792893D02*
G75*
G02*
X149454214Y-77500010I707093J-707107D01*
G01*
X130894214Y-71400000D02*
G75*
G03*
X130187100Y-71692886I-14J-1000000D01*
G01*
%TO.N,Net-(C1-Pad2)*%
X162707106Y-96707107D02*
X169701320Y-89712893D01*
X161000000Y-97000000D02*
X161999999Y-97000000D01*
X170408427Y-89420000D02*
X186320000Y-89420000D01*
X161999999Y-97000000D02*
G75*
G03*
X162707106Y-96707107I1J1000000D01*
G01*
X169701320Y-89712893D02*
G75*
G02*
X170408427Y-89420019I707080J-707107D01*
G01*
%TO.N,GND*%
X93214214Y-98280000D02*
X140485786Y-98280000D01*
X91700000Y-99380000D02*
X92507107Y-98572893D01*
X141192893Y-98572893D02*
X144620000Y-102000000D01*
X93214214Y-98280000D02*
G75*
G03*
X92507100Y-98572886I-14J-1000000D01*
G01*
X140485786Y-98280000D02*
G75*
G02*
X141192900Y-98572886I14J-1000000D01*
G01*
%TO.N,Net-(U4-+)*%
X146834214Y-76200000D02*
X169624365Y-76200000D01*
X171912893Y-76007107D02*
X172720000Y-75200000D01*
X169624365Y-76200000D02*
X169724365Y-76300000D01*
X144620000Y-78000000D02*
X146127107Y-76492893D01*
X169724365Y-76300000D02*
X171205786Y-76300000D01*
X146127107Y-76492893D02*
G75*
G02*
X146834214Y-76200010I707093J-707107D01*
G01*
X171912893Y-76007107D02*
G75*
G02*
X171205786Y-76299990I-707093J707107D01*
G01*
%TO.N,Net-(C5-Pad2)*%
X191320000Y-89420000D02*
X196320000Y-89420000D01*
%TO.N,Net-(U1--)*%
X104220000Y-95400000D02*
X104500000Y-95120000D01*
X104792893Y-89087107D02*
X114000000Y-79880000D01*
X104500000Y-95120000D02*
X104500000Y-89794214D01*
X91700000Y-96840000D02*
X92847107Y-95692893D01*
X93554214Y-95400000D02*
X104220000Y-95400000D01*
X92847107Y-95692893D02*
G75*
G02*
X93554214Y-95400010I707093J-707107D01*
G01*
X104500000Y-89794214D02*
G75*
G02*
X104792886Y-89087100I1000000J14D01*
G01*
%TO.N,Net-(U1-V+)*%
X168152893Y-89927107D02*
X175260000Y-82820000D01*
X139694214Y-90220000D02*
X167445786Y-90220000D01*
X206772893Y-86427107D02*
X207580000Y-85620000D01*
X179574214Y-86720000D02*
X206065786Y-86720000D01*
X138180000Y-91320000D02*
X138987107Y-90512893D01*
X99320000Y-96840000D02*
X127570151Y-96840000D01*
X137760000Y-91320000D02*
X138180000Y-91320000D01*
X136952893Y-92127107D02*
X137760000Y-91320000D01*
X132404365Y-92420000D02*
X136245786Y-92420000D01*
X175260000Y-82820000D02*
X178867107Y-86427107D01*
X128277258Y-96547107D02*
X132404365Y-92420000D01*
X138987107Y-90512893D02*
G75*
G02*
X139694214Y-90220010I707093J-707107D01*
G01*
X136952893Y-92127107D02*
G75*
G02*
X136245786Y-92419990I-707093J707107D01*
G01*
X178867107Y-86427107D02*
G75*
G03*
X179574214Y-86719990I707093J707107D01*
G01*
X128277258Y-96547107D02*
G75*
G02*
X127570151Y-96839966I-707058J707107D01*
G01*
X206772893Y-86427107D02*
G75*
G02*
X206065786Y-86719990I-707093J707107D01*
G01*
X167445786Y-90220000D02*
G75*
G03*
X168152900Y-89927114I14J1000000D01*
G01*
%TO.N,Net-(U1-V-)*%
X128052893Y-79072893D02*
X132680000Y-83700000D01*
X92000000Y-84580000D02*
X92807107Y-85387107D01*
X93514214Y-85680000D02*
X106230151Y-85680000D01*
X132680000Y-83700000D02*
X140887107Y-75492893D01*
X106937258Y-85387107D02*
X113251472Y-79072893D01*
X113958579Y-78780000D02*
X127345786Y-78780000D01*
X141594214Y-75200000D02*
X170180000Y-75200000D01*
X93514214Y-85680000D02*
G75*
G02*
X92807100Y-85387114I-14J1000000D01*
G01*
X128052893Y-79072893D02*
G75*
G03*
X127345786Y-78780010I-707093J-707107D01*
G01*
X113251472Y-79072893D02*
G75*
G02*
X113958579Y-78779985I707128J-707107D01*
G01*
X140887107Y-75492893D02*
G75*
G02*
X141594214Y-75200010I707093J-707107D01*
G01*
X106230151Y-85680000D02*
G75*
G03*
X106937282Y-85387131I49J1000000D01*
G01*
%TD*%
%TA.AperFunction,Conductor*%
%TO.N,GND*%
G36*
X216003736Y-64500726D02*
G01*
X216293796Y-64518271D01*
X216308659Y-64520076D01*
X216590798Y-64571780D01*
X216605335Y-64575363D01*
X216879172Y-64660695D01*
X216893163Y-64666000D01*
X217154743Y-64783727D01*
X217167989Y-64790680D01*
X217413465Y-64939075D01*
X217425776Y-64947573D01*
X217651573Y-65124473D01*
X217662781Y-65134403D01*
X217865596Y-65337218D01*
X217875526Y-65348426D01*
X217995481Y-65501538D01*
X218052422Y-65574217D01*
X218060928Y-65586540D01*
X218209316Y-65832004D01*
X218216275Y-65845263D01*
X218333997Y-66106831D01*
X218339306Y-66120832D01*
X218424635Y-66394663D01*
X218428219Y-66409201D01*
X218479923Y-66691340D01*
X218481728Y-66706205D01*
X218499274Y-66996263D01*
X218499500Y-67003750D01*
X218499500Y-145996249D01*
X218499274Y-146003736D01*
X218481728Y-146293794D01*
X218479923Y-146308659D01*
X218428219Y-146590798D01*
X218424635Y-146605336D01*
X218339306Y-146879167D01*
X218333997Y-146893168D01*
X218216275Y-147154736D01*
X218209316Y-147167995D01*
X218060928Y-147413459D01*
X218052422Y-147425782D01*
X217875526Y-147651573D01*
X217865596Y-147662781D01*
X217662781Y-147865596D01*
X217651573Y-147875526D01*
X217425782Y-148052422D01*
X217413459Y-148060928D01*
X217167995Y-148209316D01*
X217154736Y-148216275D01*
X216893168Y-148333997D01*
X216879167Y-148339306D01*
X216605336Y-148424635D01*
X216590798Y-148428219D01*
X216308659Y-148479923D01*
X216293794Y-148481728D01*
X216003736Y-148499274D01*
X215996249Y-148499500D01*
X81503751Y-148499500D01*
X81496264Y-148499274D01*
X81206205Y-148481728D01*
X81191340Y-148479923D01*
X80909201Y-148428219D01*
X80894663Y-148424635D01*
X80620832Y-148339306D01*
X80606831Y-148333997D01*
X80345263Y-148216275D01*
X80332004Y-148209316D01*
X80086540Y-148060928D01*
X80074217Y-148052422D01*
X79848426Y-147875526D01*
X79837218Y-147865596D01*
X79634403Y-147662781D01*
X79624473Y-147651573D01*
X79447573Y-147425776D01*
X79439075Y-147413465D01*
X79290680Y-147167989D01*
X79283727Y-147154743D01*
X79166000Y-146893163D01*
X79160693Y-146879167D01*
X79075364Y-146605336D01*
X79071780Y-146590798D01*
X79020076Y-146308659D01*
X79018271Y-146293794D01*
X79000726Y-146003736D01*
X79000500Y-145996249D01*
X79000500Y-124152135D01*
X84649500Y-124152135D01*
X84649500Y-126847870D01*
X84649501Y-126847876D01*
X84655908Y-126907483D01*
X84706202Y-127042328D01*
X84706206Y-127042335D01*
X84792452Y-127157544D01*
X84792455Y-127157547D01*
X84907664Y-127243793D01*
X84907671Y-127243797D01*
X85042517Y-127294091D01*
X85042516Y-127294091D01*
X85049444Y-127294835D01*
X85102127Y-127300500D01*
X87797872Y-127300499D01*
X87857483Y-127294091D01*
X87992331Y-127243796D01*
X88107546Y-127157546D01*
X88193796Y-127042331D01*
X88244091Y-126907483D01*
X88250500Y-126847873D01*
X88250499Y-125359041D01*
X96199500Y-125359041D01*
X96199500Y-125640958D01*
X96236295Y-125920439D01*
X96309259Y-126192743D01*
X96417135Y-126453179D01*
X96417140Y-126453190D01*
X96558083Y-126697309D01*
X96558088Y-126697317D01*
X96673617Y-126847876D01*
X96729704Y-126920970D01*
X96929029Y-127120295D01*
X96929033Y-127120298D01*
X96929035Y-127120300D01*
X97152683Y-127291912D01*
X97152690Y-127291916D01*
X97396809Y-127432859D01*
X97396814Y-127432861D01*
X97396817Y-127432863D01*
X97657261Y-127540742D01*
X97929558Y-127613704D01*
X98209049Y-127650500D01*
X98209056Y-127650500D01*
X98490944Y-127650500D01*
X98490951Y-127650500D01*
X98770442Y-127613704D01*
X99042739Y-127540742D01*
X99303183Y-127432863D01*
X99547317Y-127291912D01*
X99770965Y-127120300D01*
X99970300Y-126920965D01*
X100141912Y-126697317D01*
X100282863Y-126453183D01*
X100390742Y-126192739D01*
X100463704Y-125920442D01*
X100500500Y-125640951D01*
X100500500Y-125359049D01*
X100500499Y-125359041D01*
X127999500Y-125359041D01*
X127999500Y-125640958D01*
X128036295Y-125920439D01*
X128109259Y-126192743D01*
X128217135Y-126453179D01*
X128217140Y-126453190D01*
X128358083Y-126697309D01*
X128358088Y-126697317D01*
X128473617Y-126847876D01*
X128529704Y-126920970D01*
X128729029Y-127120295D01*
X128729033Y-127120298D01*
X128729035Y-127120300D01*
X128952683Y-127291912D01*
X128952690Y-127291916D01*
X129196809Y-127432859D01*
X129196814Y-127432861D01*
X129196817Y-127432863D01*
X129457261Y-127540742D01*
X129729558Y-127613704D01*
X130009049Y-127650500D01*
X130009056Y-127650500D01*
X130290944Y-127650500D01*
X130290951Y-127650500D01*
X130570442Y-127613704D01*
X130842739Y-127540742D01*
X131103183Y-127432863D01*
X131347317Y-127291912D01*
X131570965Y-127120300D01*
X131770300Y-126920965D01*
X131941912Y-126697317D01*
X132082863Y-126453183D01*
X132190742Y-126192739D01*
X132263704Y-125920442D01*
X132300500Y-125640951D01*
X132300500Y-125499995D01*
X140244953Y-125499995D01*
X140244953Y-125500004D01*
X140265113Y-125769026D01*
X140265113Y-125769028D01*
X140325142Y-126032033D01*
X140325148Y-126032052D01*
X140423709Y-126283181D01*
X140423708Y-126283181D01*
X140558602Y-126516822D01*
X140612294Y-126584151D01*
X140612295Y-126584151D01*
X141334153Y-125862293D01*
X141341049Y-125878942D01*
X141428599Y-126009970D01*
X141540030Y-126121401D01*
X141671058Y-126208951D01*
X141687705Y-126215846D01*
X140964848Y-126938702D01*
X141147483Y-127063220D01*
X141147485Y-127063221D01*
X141390539Y-127180269D01*
X141390537Y-127180269D01*
X141648337Y-127259790D01*
X141648343Y-127259792D01*
X141915101Y-127299999D01*
X141915110Y-127300000D01*
X142184890Y-127300000D01*
X142184898Y-127299999D01*
X142451656Y-127259792D01*
X142451662Y-127259790D01*
X142709461Y-127180269D01*
X142952521Y-127063218D01*
X143135150Y-126938702D01*
X142412294Y-126215846D01*
X142428942Y-126208951D01*
X142559970Y-126121401D01*
X142671401Y-126009970D01*
X142758951Y-125878942D01*
X142765846Y-125862294D01*
X143487703Y-126584151D01*
X143487704Y-126584150D01*
X143541393Y-126516828D01*
X143541400Y-126516817D01*
X143676290Y-126283181D01*
X143774851Y-126032052D01*
X143774857Y-126032033D01*
X143834886Y-125769028D01*
X143834886Y-125769026D01*
X143855047Y-125500004D01*
X143855047Y-125499995D01*
X143834886Y-125230973D01*
X143834886Y-125230971D01*
X143774857Y-124967966D01*
X143774851Y-124967947D01*
X143676290Y-124716818D01*
X143676291Y-124716818D01*
X143541397Y-124483177D01*
X143487704Y-124415847D01*
X142765846Y-125137705D01*
X142758951Y-125121058D01*
X142671401Y-124990030D01*
X142559970Y-124878599D01*
X142428942Y-124791049D01*
X142412294Y-124784153D01*
X143044291Y-124152155D01*
X153150000Y-124152155D01*
X153150000Y-125250000D01*
X154187639Y-125250000D01*
X154180743Y-125266649D01*
X154150000Y-125421207D01*
X154150000Y-125578793D01*
X154180743Y-125733351D01*
X154187639Y-125750000D01*
X153150000Y-125750000D01*
X153150000Y-126847844D01*
X153156401Y-126907372D01*
X153156403Y-126907379D01*
X153206645Y-127042086D01*
X153206649Y-127042093D01*
X153292809Y-127157187D01*
X153292812Y-127157190D01*
X153407906Y-127243350D01*
X153407913Y-127243354D01*
X153542620Y-127293596D01*
X153542627Y-127293598D01*
X153602155Y-127299999D01*
X153602172Y-127300000D01*
X154700000Y-127300000D01*
X154700000Y-126262360D01*
X154716649Y-126269257D01*
X154871207Y-126300000D01*
X155028793Y-126300000D01*
X155183351Y-126269257D01*
X155200000Y-126262360D01*
X155200000Y-127300000D01*
X156297828Y-127300000D01*
X156297844Y-127299999D01*
X156357372Y-127293598D01*
X156357379Y-127293596D01*
X156492086Y-127243354D01*
X156492093Y-127243350D01*
X156607187Y-127157190D01*
X156607190Y-127157187D01*
X156693350Y-127042093D01*
X156693354Y-127042086D01*
X156743596Y-126907379D01*
X156743598Y-126907372D01*
X156749999Y-126847844D01*
X156750000Y-126847827D01*
X156750000Y-125750000D01*
X155712361Y-125750000D01*
X155719257Y-125733351D01*
X155750000Y-125578793D01*
X155750000Y-125421207D01*
X155737635Y-125359041D01*
X164699500Y-125359041D01*
X164699500Y-125640958D01*
X164736295Y-125920439D01*
X164809259Y-126192743D01*
X164917135Y-126453179D01*
X164917140Y-126453190D01*
X165058083Y-126697309D01*
X165058088Y-126697317D01*
X165173617Y-126847876D01*
X165229704Y-126920970D01*
X165429029Y-127120295D01*
X165429033Y-127120298D01*
X165429035Y-127120300D01*
X165652683Y-127291912D01*
X165652690Y-127291916D01*
X165896809Y-127432859D01*
X165896814Y-127432861D01*
X165896817Y-127432863D01*
X166157261Y-127540742D01*
X166429558Y-127613704D01*
X166709049Y-127650500D01*
X166709056Y-127650500D01*
X166990944Y-127650500D01*
X166990951Y-127650500D01*
X167270442Y-127613704D01*
X167542739Y-127540742D01*
X167803183Y-127432863D01*
X168047317Y-127291912D01*
X168270965Y-127120300D01*
X168470300Y-126920965D01*
X168641912Y-126697317D01*
X168782863Y-126453183D01*
X168890742Y-126192739D01*
X168963704Y-125920442D01*
X169000500Y-125640951D01*
X169000500Y-125359049D01*
X169000499Y-125359041D01*
X196499500Y-125359041D01*
X196499500Y-125640958D01*
X196536295Y-125920439D01*
X196609259Y-126192743D01*
X196717135Y-126453179D01*
X196717140Y-126453190D01*
X196858083Y-126697309D01*
X196858088Y-126697317D01*
X196973617Y-126847876D01*
X197029704Y-126920970D01*
X197229029Y-127120295D01*
X197229033Y-127120298D01*
X197229035Y-127120300D01*
X197452683Y-127291912D01*
X197452690Y-127291916D01*
X197696809Y-127432859D01*
X197696814Y-127432861D01*
X197696817Y-127432863D01*
X197957261Y-127540742D01*
X198229558Y-127613704D01*
X198509049Y-127650500D01*
X198509056Y-127650500D01*
X198790944Y-127650500D01*
X198790951Y-127650500D01*
X199070442Y-127613704D01*
X199342739Y-127540742D01*
X199603183Y-127432863D01*
X199847317Y-127291912D01*
X200070965Y-127120300D01*
X200270300Y-126920965D01*
X200441912Y-126697317D01*
X200582863Y-126453183D01*
X200690742Y-126192739D01*
X200763704Y-125920442D01*
X200800500Y-125640951D01*
X200800500Y-125499995D01*
X208744451Y-125499995D01*
X208744451Y-125500004D01*
X208764616Y-125769101D01*
X208824664Y-126032188D01*
X208824666Y-126032195D01*
X208887675Y-126192739D01*
X208923257Y-126283398D01*
X209058185Y-126517102D01*
X209111655Y-126584151D01*
X209226442Y-126728089D01*
X209413183Y-126901358D01*
X209424259Y-126911635D01*
X209647226Y-127063651D01*
X209890359Y-127180738D01*
X210148228Y-127260280D01*
X210148229Y-127260280D01*
X210148232Y-127260281D01*
X210415063Y-127300499D01*
X210415068Y-127300499D01*
X210415071Y-127300500D01*
X210415072Y-127300500D01*
X210684928Y-127300500D01*
X210684929Y-127300500D01*
X210684936Y-127300499D01*
X210951767Y-127260281D01*
X210951768Y-127260280D01*
X210951772Y-127260280D01*
X211209641Y-127180738D01*
X211452775Y-127063651D01*
X211675741Y-126911635D01*
X211873561Y-126728085D01*
X212041815Y-126517102D01*
X212176743Y-126283398D01*
X212275334Y-126032195D01*
X212335383Y-125769103D01*
X212344987Y-125640944D01*
X212355549Y-125500004D01*
X212355549Y-125499995D01*
X212338062Y-125266649D01*
X212335383Y-125230897D01*
X212275334Y-124967805D01*
X212176743Y-124716602D01*
X212041815Y-124482898D01*
X211873561Y-124271915D01*
X211873560Y-124271914D01*
X211873557Y-124271910D01*
X211675741Y-124088365D01*
X211636038Y-124061296D01*
X211452775Y-123936349D01*
X211452769Y-123936346D01*
X211452768Y-123936345D01*
X211452767Y-123936344D01*
X211209643Y-123819263D01*
X211209645Y-123819263D01*
X210951773Y-123739720D01*
X210951767Y-123739718D01*
X210684936Y-123699500D01*
X210684929Y-123699500D01*
X210415071Y-123699500D01*
X210415063Y-123699500D01*
X210148232Y-123739718D01*
X210148226Y-123739720D01*
X209890358Y-123819262D01*
X209647230Y-123936346D01*
X209424258Y-124088365D01*
X209226442Y-124271910D01*
X209058185Y-124482898D01*
X208923258Y-124716599D01*
X208923256Y-124716603D01*
X208824666Y-124967804D01*
X208824664Y-124967811D01*
X208764616Y-125230898D01*
X208744451Y-125499995D01*
X200800500Y-125499995D01*
X200800500Y-125359049D01*
X200763704Y-125079558D01*
X200690742Y-124807261D01*
X200582863Y-124546817D01*
X200582861Y-124546814D01*
X200582859Y-124546809D01*
X200441916Y-124302690D01*
X200441912Y-124302683D01*
X200270300Y-124079035D01*
X200270298Y-124079033D01*
X200270295Y-124079029D01*
X200070970Y-123879704D01*
X200070965Y-123879700D01*
X199847317Y-123708088D01*
X199847311Y-123708084D01*
X199847309Y-123708083D01*
X199603190Y-123567140D01*
X199603179Y-123567135D01*
X199342743Y-123459259D01*
X199070439Y-123386295D01*
X198790958Y-123349500D01*
X198790951Y-123349500D01*
X198509049Y-123349500D01*
X198509041Y-123349500D01*
X198229560Y-123386295D01*
X197957256Y-123459259D01*
X197696820Y-123567135D01*
X197696809Y-123567140D01*
X197452690Y-123708083D01*
X197452682Y-123708089D01*
X197229029Y-123879704D01*
X197029704Y-124079029D01*
X196858089Y-124302682D01*
X196858083Y-124302690D01*
X196717140Y-124546809D01*
X196717135Y-124546820D01*
X196609259Y-124807256D01*
X196536295Y-125079560D01*
X196499500Y-125359041D01*
X169000499Y-125359041D01*
X168963704Y-125079558D01*
X168890742Y-124807261D01*
X168782863Y-124546817D01*
X168782861Y-124546814D01*
X168782859Y-124546809D01*
X168641916Y-124302690D01*
X168641912Y-124302683D01*
X168470300Y-124079035D01*
X168470298Y-124079033D01*
X168470295Y-124079029D01*
X168270970Y-123879704D01*
X168270965Y-123879700D01*
X168047317Y-123708088D01*
X168047311Y-123708084D01*
X168047309Y-123708083D01*
X167803190Y-123567140D01*
X167803179Y-123567135D01*
X167542743Y-123459259D01*
X167270439Y-123386295D01*
X166990958Y-123349500D01*
X166990951Y-123349500D01*
X166709049Y-123349500D01*
X166709041Y-123349500D01*
X166429560Y-123386295D01*
X166157256Y-123459259D01*
X165896820Y-123567135D01*
X165896809Y-123567140D01*
X165652690Y-123708083D01*
X165652682Y-123708089D01*
X165429029Y-123879704D01*
X165229704Y-124079029D01*
X165058089Y-124302682D01*
X165058083Y-124302690D01*
X164917140Y-124546809D01*
X164917135Y-124546820D01*
X164809259Y-124807256D01*
X164736295Y-125079560D01*
X164699500Y-125359041D01*
X155737635Y-125359041D01*
X155719257Y-125266649D01*
X155712361Y-125250000D01*
X156750000Y-125250000D01*
X156750000Y-124152172D01*
X156749999Y-124152155D01*
X156743598Y-124092627D01*
X156743596Y-124092620D01*
X156693354Y-123957913D01*
X156693350Y-123957906D01*
X156607190Y-123842812D01*
X156607187Y-123842809D01*
X156492093Y-123756649D01*
X156492086Y-123756645D01*
X156357379Y-123706403D01*
X156357372Y-123706401D01*
X156297844Y-123700000D01*
X155200000Y-123700000D01*
X155200000Y-124737639D01*
X155183351Y-124730743D01*
X155028793Y-124700000D01*
X154871207Y-124700000D01*
X154716649Y-124730743D01*
X154700000Y-124737639D01*
X154700000Y-123700000D01*
X153602155Y-123700000D01*
X153542627Y-123706401D01*
X153542620Y-123706403D01*
X153407913Y-123756645D01*
X153407906Y-123756649D01*
X153292812Y-123842809D01*
X153292809Y-123842812D01*
X153206649Y-123957906D01*
X153206645Y-123957913D01*
X153156403Y-124092620D01*
X153156401Y-124092627D01*
X153150000Y-124152155D01*
X143044291Y-124152155D01*
X143135150Y-124061296D01*
X142952517Y-123936779D01*
X142952516Y-123936778D01*
X142709460Y-123819730D01*
X142709462Y-123819730D01*
X142451662Y-123740209D01*
X142451656Y-123740207D01*
X142184898Y-123700000D01*
X141915101Y-123700000D01*
X141648343Y-123740207D01*
X141648337Y-123740209D01*
X141390538Y-123819730D01*
X141147485Y-123936778D01*
X141147476Y-123936783D01*
X140964848Y-124061296D01*
X141687705Y-124784153D01*
X141671058Y-124791049D01*
X141540030Y-124878599D01*
X141428599Y-124990030D01*
X141341049Y-125121058D01*
X141334153Y-125137705D01*
X140612295Y-124415848D01*
X140558600Y-124483180D01*
X140423709Y-124716818D01*
X140325148Y-124967947D01*
X140325142Y-124967966D01*
X140265113Y-125230971D01*
X140265113Y-125230973D01*
X140244953Y-125499995D01*
X132300500Y-125499995D01*
X132300500Y-125359049D01*
X132263704Y-125079558D01*
X132190742Y-124807261D01*
X132082863Y-124546817D01*
X132082861Y-124546814D01*
X132082859Y-124546809D01*
X131941916Y-124302690D01*
X131941912Y-124302683D01*
X131770300Y-124079035D01*
X131770298Y-124079033D01*
X131770295Y-124079029D01*
X131570970Y-123879704D01*
X131570965Y-123879700D01*
X131347317Y-123708088D01*
X131347311Y-123708084D01*
X131347309Y-123708083D01*
X131103190Y-123567140D01*
X131103179Y-123567135D01*
X130842743Y-123459259D01*
X130570439Y-123386295D01*
X130290958Y-123349500D01*
X130290951Y-123349500D01*
X130009049Y-123349500D01*
X130009041Y-123349500D01*
X129729560Y-123386295D01*
X129457256Y-123459259D01*
X129196820Y-123567135D01*
X129196809Y-123567140D01*
X128952690Y-123708083D01*
X128952682Y-123708089D01*
X128729029Y-123879704D01*
X128529704Y-124079029D01*
X128358089Y-124302682D01*
X128358083Y-124302690D01*
X128217140Y-124546809D01*
X128217135Y-124546820D01*
X128109259Y-124807256D01*
X128036295Y-125079560D01*
X127999500Y-125359041D01*
X100500499Y-125359041D01*
X100463704Y-125079558D01*
X100390742Y-124807261D01*
X100282863Y-124546817D01*
X100282861Y-124546814D01*
X100282859Y-124546809D01*
X100141916Y-124302690D01*
X100141912Y-124302683D01*
X99970300Y-124079035D01*
X99970298Y-124079033D01*
X99970295Y-124079029D01*
X99770970Y-123879704D01*
X99770965Y-123879700D01*
X99547317Y-123708088D01*
X99547311Y-123708084D01*
X99547309Y-123708083D01*
X99303190Y-123567140D01*
X99303179Y-123567135D01*
X99042743Y-123459259D01*
X98770439Y-123386295D01*
X98490958Y-123349500D01*
X98490951Y-123349500D01*
X98209049Y-123349500D01*
X98209041Y-123349500D01*
X97929560Y-123386295D01*
X97657256Y-123459259D01*
X97396820Y-123567135D01*
X97396809Y-123567140D01*
X97152690Y-123708083D01*
X97152682Y-123708089D01*
X96929029Y-123879704D01*
X96729704Y-124079029D01*
X96558089Y-124302682D01*
X96558083Y-124302690D01*
X96417140Y-124546809D01*
X96417135Y-124546820D01*
X96309259Y-124807256D01*
X96236295Y-125079560D01*
X96199500Y-125359041D01*
X88250499Y-125359041D01*
X88250499Y-124152128D01*
X88244091Y-124092517D01*
X88242542Y-124088365D01*
X88193797Y-123957671D01*
X88193793Y-123957664D01*
X88107547Y-123842455D01*
X88107544Y-123842452D01*
X87992335Y-123756206D01*
X87992328Y-123756202D01*
X87857482Y-123705908D01*
X87857483Y-123705908D01*
X87797883Y-123699501D01*
X87797881Y-123699500D01*
X87797873Y-123699500D01*
X87797864Y-123699500D01*
X85102129Y-123699500D01*
X85102123Y-123699501D01*
X85042516Y-123705908D01*
X84907671Y-123756202D01*
X84907664Y-123756206D01*
X84792455Y-123842452D01*
X84792452Y-123842455D01*
X84706206Y-123957664D01*
X84706202Y-123957671D01*
X84655908Y-124092517D01*
X84649501Y-124152116D01*
X84649501Y-124152123D01*
X84649500Y-124152135D01*
X79000500Y-124152135D01*
X79000500Y-93827135D01*
X84649500Y-93827135D01*
X84649500Y-95622870D01*
X84649501Y-95622876D01*
X84655908Y-95682483D01*
X84706202Y-95817328D01*
X84706206Y-95817335D01*
X84792452Y-95932544D01*
X84792455Y-95932547D01*
X84907664Y-96018793D01*
X84907671Y-96018797D01*
X84931861Y-96027819D01*
X85039598Y-96068002D01*
X85095531Y-96109873D01*
X85119949Y-96175337D01*
X85105098Y-96243610D01*
X85083947Y-96271865D01*
X84961886Y-96393926D01*
X84826400Y-96587420D01*
X84826399Y-96587422D01*
X84726570Y-96801507D01*
X84726567Y-96801513D01*
X84669364Y-97014999D01*
X84669364Y-97015000D01*
X85566988Y-97015000D01*
X85534075Y-97072007D01*
X85500000Y-97199174D01*
X85500000Y-97330826D01*
X85534075Y-97457993D01*
X85566988Y-97515000D01*
X84669364Y-97515000D01*
X84726567Y-97728486D01*
X84726570Y-97728492D01*
X84826399Y-97942578D01*
X84961894Y-98136082D01*
X85128917Y-98303105D01*
X85322421Y-98438600D01*
X85536507Y-98538429D01*
X85536516Y-98538433D01*
X85750000Y-98595634D01*
X85750000Y-97698012D01*
X85807007Y-97730925D01*
X85934174Y-97765000D01*
X86065826Y-97765000D01*
X86192993Y-97730925D01*
X86250000Y-97698012D01*
X86250000Y-98595633D01*
X86463483Y-98538433D01*
X86463492Y-98538429D01*
X86677578Y-98438600D01*
X86871082Y-98303105D01*
X87038105Y-98136082D01*
X87173600Y-97942578D01*
X87273429Y-97728492D01*
X87273432Y-97728486D01*
X87330636Y-97515000D01*
X86433012Y-97515000D01*
X86465925Y-97457993D01*
X86500000Y-97330826D01*
X86500000Y-97199174D01*
X86465925Y-97072007D01*
X86433012Y-97015000D01*
X87330636Y-97015000D01*
X87330635Y-97014999D01*
X87283744Y-96839998D01*
X90394532Y-96839998D01*
X90394532Y-96840001D01*
X90414364Y-97066686D01*
X90414366Y-97066697D01*
X90473258Y-97286488D01*
X90473261Y-97286497D01*
X90569431Y-97492732D01*
X90569432Y-97492734D01*
X90699954Y-97679141D01*
X90860858Y-97840045D01*
X90860861Y-97840047D01*
X91047266Y-97970568D01*
X91105865Y-97997893D01*
X91158305Y-98044065D01*
X91177457Y-98111258D01*
X91157242Y-98178139D01*
X91105867Y-98222657D01*
X91047515Y-98249867D01*
X90861179Y-98380342D01*
X90700342Y-98541179D01*
X90569865Y-98727517D01*
X90473734Y-98933673D01*
X90473730Y-98933682D01*
X90421127Y-99129999D01*
X90421128Y-99130000D01*
X91384314Y-99130000D01*
X91379920Y-99134394D01*
X91327259Y-99225606D01*
X91300000Y-99327339D01*
X91300000Y-99432661D01*
X91327259Y-99534394D01*
X91379920Y-99625606D01*
X91384314Y-99630000D01*
X90421128Y-99630000D01*
X90473730Y-99826317D01*
X90473734Y-99826326D01*
X90569865Y-100032482D01*
X90700342Y-100218820D01*
X90861179Y-100379657D01*
X91047518Y-100510134D01*
X91047520Y-100510135D01*
X91105865Y-100537342D01*
X91158305Y-100583514D01*
X91177457Y-100650707D01*
X91157242Y-100717589D01*
X91105867Y-100762105D01*
X91047268Y-100789431D01*
X91047264Y-100789433D01*
X90860858Y-100919954D01*
X90699954Y-101080858D01*
X90569432Y-101267265D01*
X90569431Y-101267267D01*
X90473261Y-101473502D01*
X90473258Y-101473511D01*
X90414366Y-101693302D01*
X90414364Y-101693313D01*
X90394532Y-101919998D01*
X90394532Y-101920001D01*
X90414364Y-102146686D01*
X90414366Y-102146697D01*
X90473258Y-102366488D01*
X90473261Y-102366497D01*
X90569431Y-102572732D01*
X90569432Y-102572734D01*
X90699954Y-102759141D01*
X90860858Y-102920045D01*
X90860861Y-102920047D01*
X91047266Y-103050568D01*
X91253504Y-103146739D01*
X91473308Y-103205635D01*
X91635230Y-103219801D01*
X91699998Y-103225468D01*
X91700000Y-103225468D01*
X91700002Y-103225468D01*
X91756673Y-103220509D01*
X91926692Y-103205635D01*
X92146496Y-103146739D01*
X92352734Y-103050568D01*
X92539139Y-102920047D01*
X92700047Y-102759139D01*
X92830568Y-102572734D01*
X92926739Y-102366496D01*
X92985635Y-102146692D01*
X93005468Y-101920000D01*
X92985635Y-101693308D01*
X92926739Y-101473504D01*
X92830568Y-101267266D01*
X92700047Y-101080861D01*
X92700045Y-101080858D01*
X92539141Y-100919954D01*
X92352734Y-100789432D01*
X92352732Y-100789431D01*
X92319072Y-100773735D01*
X92294132Y-100762105D01*
X92241694Y-100715934D01*
X92222542Y-100648740D01*
X92242758Y-100581859D01*
X92294134Y-100537341D01*
X92352484Y-100510132D01*
X92538820Y-100379657D01*
X92699657Y-100218820D01*
X92830134Y-100032482D01*
X92926265Y-99826326D01*
X92926269Y-99826317D01*
X92978872Y-99630000D01*
X92015686Y-99630000D01*
X92020080Y-99625606D01*
X92072741Y-99534394D01*
X92100000Y-99432661D01*
X92100000Y-99327339D01*
X92072741Y-99225606D01*
X92020080Y-99134394D01*
X92015686Y-99130000D01*
X92978872Y-99130000D01*
X92978872Y-99129999D01*
X92926269Y-98933682D01*
X92926265Y-98933673D01*
X92830134Y-98727517D01*
X92699657Y-98541179D01*
X92538820Y-98380342D01*
X92352482Y-98249865D01*
X92294133Y-98222657D01*
X92241694Y-98176484D01*
X92222542Y-98109291D01*
X92242758Y-98042410D01*
X92294129Y-97997895D01*
X92352734Y-97970568D01*
X92539139Y-97840047D01*
X92700047Y-97679139D01*
X92830568Y-97492734D01*
X92926739Y-97286496D01*
X92985635Y-97066692D01*
X93005468Y-96840000D01*
X93002581Y-96807007D01*
X92997784Y-96752175D01*
X92985635Y-96613308D01*
X92959847Y-96517066D01*
X92961510Y-96447217D01*
X92991939Y-96397294D01*
X93265974Y-96123259D01*
X93278155Y-96112577D01*
X93341509Y-96063965D01*
X93369537Y-96047783D01*
X93435731Y-96020366D01*
X93466994Y-96011990D01*
X93546222Y-96001561D01*
X93562405Y-96000500D01*
X93627119Y-96000501D01*
X93627123Y-96000500D01*
X98082488Y-96000500D01*
X98149527Y-96020185D01*
X98195282Y-96072989D01*
X98205226Y-96142147D01*
X98191363Y-96182193D01*
X98191720Y-96182360D01*
X98190112Y-96185806D01*
X98189870Y-96186508D01*
X98189432Y-96187266D01*
X98093261Y-96393502D01*
X98093258Y-96393511D01*
X98034366Y-96613302D01*
X98034364Y-96613313D01*
X98014532Y-96839998D01*
X98014532Y-96840001D01*
X98034364Y-97066686D01*
X98034366Y-97066697D01*
X98093258Y-97286488D01*
X98093261Y-97286497D01*
X98189431Y-97492732D01*
X98189432Y-97492734D01*
X98319954Y-97679141D01*
X98480858Y-97840045D01*
X98480861Y-97840047D01*
X98667266Y-97970568D01*
X98725275Y-97997618D01*
X98777714Y-98043791D01*
X98796866Y-98110984D01*
X98776650Y-98177865D01*
X98725275Y-98222381D01*
X98715933Y-98226738D01*
X98667267Y-98249431D01*
X98667265Y-98249432D01*
X98480858Y-98379954D01*
X98319954Y-98540858D01*
X98189432Y-98727265D01*
X98189431Y-98727267D01*
X98093261Y-98933502D01*
X98093258Y-98933511D01*
X98034366Y-99153302D01*
X98034364Y-99153313D01*
X98014532Y-99379998D01*
X98014532Y-99380001D01*
X98034364Y-99606686D01*
X98034366Y-99606697D01*
X98093258Y-99826488D01*
X98093261Y-99826497D01*
X98189431Y-100032732D01*
X98189432Y-100032734D01*
X98319954Y-100219141D01*
X98480858Y-100380045D01*
X98480861Y-100380047D01*
X98667266Y-100510568D01*
X98724681Y-100537341D01*
X98725275Y-100537618D01*
X98777714Y-100583791D01*
X98796866Y-100650984D01*
X98776650Y-100717865D01*
X98725275Y-100762382D01*
X98667267Y-100789431D01*
X98667265Y-100789432D01*
X98480858Y-100919954D01*
X98319954Y-101080858D01*
X98189432Y-101267265D01*
X98189431Y-101267267D01*
X98093261Y-101473502D01*
X98093258Y-101473511D01*
X98034366Y-101693302D01*
X98034364Y-101693313D01*
X98014532Y-101919998D01*
X98014532Y-101920001D01*
X98034364Y-102146686D01*
X98034366Y-102146697D01*
X98093258Y-102366488D01*
X98093261Y-102366497D01*
X98189431Y-102572732D01*
X98189432Y-102572734D01*
X98319954Y-102759141D01*
X98480858Y-102920045D01*
X98480861Y-102920047D01*
X98667266Y-103050568D01*
X98873504Y-103146739D01*
X99093308Y-103205635D01*
X99255230Y-103219801D01*
X99319998Y-103225468D01*
X99320000Y-103225468D01*
X99320002Y-103225468D01*
X99376673Y-103220509D01*
X99546692Y-103205635D01*
X99766496Y-103146739D01*
X99972734Y-103050568D01*
X100159139Y-102920047D01*
X100320047Y-102759139D01*
X100450568Y-102572734D01*
X100546739Y-102366496D01*
X100605635Y-102146692D01*
X100618469Y-101999998D01*
X128074532Y-101999998D01*
X128074532Y-102000001D01*
X128094364Y-102226686D01*
X128094366Y-102226697D01*
X128153258Y-102446488D01*
X128153261Y-102446497D01*
X128249431Y-102652732D01*
X128249432Y-102652734D01*
X128379954Y-102839141D01*
X128540858Y-103000045D01*
X128540861Y-103000047D01*
X128727266Y-103130568D01*
X128933504Y-103226739D01*
X129153308Y-103285635D01*
X129315230Y-103299801D01*
X129379998Y-103305468D01*
X129380000Y-103305468D01*
X129380002Y-103305468D01*
X129436673Y-103300509D01*
X129606692Y-103285635D01*
X129826496Y-103226739D01*
X130032734Y-103130568D01*
X130219139Y-103000047D01*
X130380047Y-102839139D01*
X130510568Y-102652734D01*
X130606739Y-102446496D01*
X130665635Y-102226692D01*
X130685468Y-102000000D01*
X130685468Y-101999997D01*
X143315034Y-101999997D01*
X143315034Y-102000002D01*
X143334858Y-102226599D01*
X143334860Y-102226610D01*
X143393730Y-102446317D01*
X143393735Y-102446331D01*
X143489863Y-102652478D01*
X143540974Y-102725472D01*
X144220000Y-102046446D01*
X144220000Y-102052661D01*
X144247259Y-102154394D01*
X144299920Y-102245606D01*
X144374394Y-102320080D01*
X144465606Y-102372741D01*
X144567339Y-102400000D01*
X144573553Y-102400000D01*
X143894526Y-103079025D01*
X143967513Y-103130132D01*
X143967521Y-103130136D01*
X144173668Y-103226264D01*
X144173682Y-103226269D01*
X144393389Y-103285139D01*
X144393400Y-103285141D01*
X144619998Y-103304966D01*
X144620002Y-103304966D01*
X144846599Y-103285141D01*
X144846610Y-103285139D01*
X145066317Y-103226269D01*
X145066331Y-103226264D01*
X145272478Y-103130136D01*
X145345471Y-103079024D01*
X144666447Y-102400000D01*
X144672661Y-102400000D01*
X144774394Y-102372741D01*
X144865606Y-102320080D01*
X144940080Y-102245606D01*
X144992741Y-102154394D01*
X145020000Y-102052661D01*
X145020000Y-102046447D01*
X145699024Y-102725471D01*
X145750136Y-102652478D01*
X145846264Y-102446331D01*
X145846269Y-102446317D01*
X145905139Y-102226610D01*
X145905141Y-102226599D01*
X145924966Y-102000002D01*
X145924966Y-101999997D01*
X145905141Y-101773400D01*
X145905139Y-101773389D01*
X145846269Y-101553682D01*
X145846264Y-101553668D01*
X145750136Y-101347521D01*
X145750132Y-101347513D01*
X145699025Y-101274526D01*
X145020000Y-101953551D01*
X145020000Y-101947339D01*
X144992741Y-101845606D01*
X144940080Y-101754394D01*
X144865606Y-101679920D01*
X144774394Y-101627259D01*
X144672661Y-101600000D01*
X144666448Y-101600000D01*
X145345472Y-100920974D01*
X145272478Y-100869863D01*
X145066331Y-100773735D01*
X145066317Y-100773730D01*
X144846610Y-100714860D01*
X144846599Y-100714858D01*
X144620002Y-100695034D01*
X144619998Y-100695034D01*
X144393400Y-100714858D01*
X144393389Y-100714860D01*
X144173682Y-100773730D01*
X144173673Y-100773734D01*
X143967516Y-100869866D01*
X143967512Y-100869868D01*
X143894526Y-100920973D01*
X143894526Y-100920974D01*
X144573553Y-101600000D01*
X144567339Y-101600000D01*
X144465606Y-101627259D01*
X144374394Y-101679920D01*
X144299920Y-101754394D01*
X144247259Y-101845606D01*
X144220000Y-101947339D01*
X144220000Y-101953552D01*
X143540974Y-101274526D01*
X143540973Y-101274526D01*
X143489868Y-101347512D01*
X143489866Y-101347516D01*
X143393734Y-101553673D01*
X143393730Y-101553682D01*
X143334860Y-101773389D01*
X143334858Y-101773400D01*
X143315034Y-101999997D01*
X130685468Y-101999997D01*
X130665635Y-101773308D01*
X130606739Y-101553504D01*
X130510568Y-101347266D01*
X130380047Y-101160861D01*
X130380045Y-101160858D01*
X130219141Y-100999954D01*
X130032734Y-100869432D01*
X130032732Y-100869431D01*
X129826497Y-100773261D01*
X129826488Y-100773258D01*
X129606697Y-100714366D01*
X129606693Y-100714365D01*
X129606692Y-100714365D01*
X129606691Y-100714364D01*
X129606686Y-100714364D01*
X129380002Y-100694532D01*
X129379998Y-100694532D01*
X129153313Y-100714364D01*
X129153302Y-100714366D01*
X128933511Y-100773258D01*
X128933502Y-100773261D01*
X128727267Y-100869431D01*
X128727265Y-100869432D01*
X128540858Y-100999954D01*
X128379954Y-101160858D01*
X128249432Y-101347265D01*
X128249431Y-101347267D01*
X128153261Y-101553502D01*
X128153258Y-101553511D01*
X128094366Y-101773302D01*
X128094364Y-101773313D01*
X128074532Y-101999998D01*
X100618469Y-101999998D01*
X100625468Y-101920000D01*
X100605635Y-101693308D01*
X100546739Y-101473504D01*
X100450568Y-101267266D01*
X100320047Y-101080861D01*
X100320045Y-101080858D01*
X100159141Y-100919954D01*
X99972734Y-100789432D01*
X99972728Y-100789429D01*
X99914725Y-100762382D01*
X99862285Y-100716210D01*
X99843133Y-100649017D01*
X99863348Y-100582135D01*
X99914725Y-100537618D01*
X99915319Y-100537341D01*
X99972734Y-100510568D01*
X100159139Y-100380047D01*
X100320047Y-100219139D01*
X100450568Y-100032734D01*
X100546739Y-99826496D01*
X100605635Y-99606692D01*
X100625468Y-99380000D01*
X100605635Y-99153308D01*
X100559198Y-98980000D01*
X100546741Y-98933511D01*
X100546738Y-98933502D01*
X100531116Y-98900000D01*
X100450568Y-98727266D01*
X100320047Y-98540861D01*
X100320045Y-98540858D01*
X100159141Y-98379954D01*
X99972734Y-98249432D01*
X99972728Y-98249429D01*
X99924067Y-98226738D01*
X99914724Y-98222381D01*
X99862285Y-98176210D01*
X99843133Y-98109017D01*
X99863348Y-98042135D01*
X99914725Y-97997618D01*
X99972734Y-97970568D01*
X100159139Y-97840047D01*
X100320047Y-97679139D01*
X100450118Y-97493375D01*
X100504693Y-97449752D01*
X100551692Y-97440500D01*
X127657342Y-97440500D01*
X127657799Y-97440468D01*
X127675024Y-97440470D01*
X127883034Y-97413095D01*
X128008906Y-97379373D01*
X128078756Y-97381038D01*
X128136617Y-97420203D01*
X128153375Y-97446741D01*
X128202293Y-97551645D01*
X128249431Y-97652732D01*
X128249432Y-97652734D01*
X128379954Y-97839141D01*
X128540858Y-98000045D01*
X128540861Y-98000047D01*
X128727266Y-98130568D01*
X128933504Y-98226739D01*
X129153308Y-98285635D01*
X129315230Y-98299801D01*
X129379998Y-98305468D01*
X129380000Y-98305468D01*
X129380002Y-98305468D01*
X129436673Y-98300509D01*
X129606692Y-98285635D01*
X129826496Y-98226739D01*
X130032734Y-98130568D01*
X130219139Y-98000047D01*
X130380047Y-97839139D01*
X130510568Y-97652734D01*
X130606739Y-97446496D01*
X130665635Y-97226692D01*
X130685468Y-97000000D01*
X130685468Y-96999998D01*
X143314532Y-96999998D01*
X143314532Y-97000001D01*
X143334364Y-97226686D01*
X143334366Y-97226697D01*
X143393258Y-97446488D01*
X143393261Y-97446497D01*
X143489431Y-97652732D01*
X143489432Y-97652734D01*
X143619954Y-97839141D01*
X143780858Y-98000045D01*
X143780861Y-98000047D01*
X143967266Y-98130568D01*
X144173504Y-98226739D01*
X144393308Y-98285635D01*
X144555230Y-98299801D01*
X144619998Y-98305468D01*
X144620000Y-98305468D01*
X144620002Y-98305468D01*
X144676673Y-98300509D01*
X144846692Y-98285635D01*
X145066496Y-98226739D01*
X145272734Y-98130568D01*
X145459139Y-98000047D01*
X145620047Y-97839139D01*
X145750568Y-97652734D01*
X145846739Y-97446496D01*
X145905635Y-97226692D01*
X145925468Y-97000000D01*
X145925467Y-96999994D01*
X151994357Y-96999994D01*
X151994357Y-97000005D01*
X152014890Y-97247812D01*
X152014892Y-97247824D01*
X152075936Y-97488881D01*
X152175826Y-97716606D01*
X152311833Y-97924782D01*
X152344245Y-97959991D01*
X152480256Y-98107738D01*
X152676491Y-98260474D01*
X152755266Y-98303105D01*
X152894332Y-98378364D01*
X152895190Y-98378828D01*
X153114141Y-98453994D01*
X153128964Y-98459083D01*
X153130386Y-98459571D01*
X153375665Y-98500500D01*
X153624335Y-98500500D01*
X153869614Y-98459571D01*
X154104810Y-98378828D01*
X154323509Y-98260474D01*
X154519744Y-98107738D01*
X154688164Y-97924785D01*
X154824173Y-97716607D01*
X154924063Y-97488881D01*
X154985108Y-97247821D01*
X154985116Y-97247729D01*
X155005643Y-97000005D01*
X155005643Y-96999994D01*
X154985109Y-96752187D01*
X154985107Y-96752175D01*
X154924063Y-96511118D01*
X154824173Y-96283393D01*
X154688166Y-96075217D01*
X154637505Y-96020185D01*
X154519744Y-95892262D01*
X154323509Y-95739526D01*
X154323507Y-95739525D01*
X154323506Y-95739524D01*
X154104811Y-95621172D01*
X154104802Y-95621169D01*
X153869616Y-95540429D01*
X153624335Y-95499500D01*
X153375665Y-95499500D01*
X153130383Y-95540429D01*
X152895197Y-95621169D01*
X152895188Y-95621172D01*
X152676493Y-95739524D01*
X152480257Y-95892261D01*
X152311833Y-96075217D01*
X152175826Y-96283393D01*
X152075936Y-96511118D01*
X152014892Y-96752175D01*
X152014890Y-96752187D01*
X151994357Y-96999994D01*
X145925467Y-96999994D01*
X145911470Y-96840000D01*
X145905635Y-96773308D01*
X145846739Y-96553504D01*
X145750568Y-96347266D01*
X145634984Y-96182193D01*
X145620045Y-96160858D01*
X145459141Y-95999954D01*
X145272734Y-95869432D01*
X145272732Y-95869431D01*
X145066497Y-95773261D01*
X145066488Y-95773258D01*
X144846697Y-95714366D01*
X144846693Y-95714365D01*
X144846692Y-95714365D01*
X144846691Y-95714364D01*
X144846686Y-95714364D01*
X144620002Y-95694532D01*
X144619998Y-95694532D01*
X144393313Y-95714364D01*
X144393302Y-95714366D01*
X144173511Y-95773258D01*
X144173502Y-95773261D01*
X143967267Y-95869431D01*
X143967265Y-95869432D01*
X143780858Y-95999954D01*
X143619954Y-96160858D01*
X143489432Y-96347265D01*
X143489431Y-96347267D01*
X143393261Y-96553502D01*
X143393258Y-96553511D01*
X143334366Y-96773302D01*
X143334364Y-96773313D01*
X143314532Y-96999998D01*
X130685468Y-96999998D01*
X130685467Y-96999994D01*
X130671470Y-96840000D01*
X130665635Y-96773308D01*
X130606739Y-96553504D01*
X130510568Y-96347266D01*
X130394984Y-96182193D01*
X130380045Y-96160858D01*
X130219141Y-95999954D01*
X130032734Y-95869432D01*
X130028043Y-95866724D01*
X130029294Y-95864555D01*
X129984781Y-95825203D01*
X129965763Y-95757971D01*
X129986113Y-95691130D01*
X130002071Y-95671527D01*
X132616782Y-93056819D01*
X132678105Y-93023334D01*
X132704463Y-93020500D01*
X136333664Y-93020500D01*
X136333794Y-93020490D01*
X136350680Y-93020491D01*
X136479142Y-93003580D01*
X136558685Y-92993110D01*
X136558686Y-92993109D01*
X136558690Y-92993109D01*
X136675677Y-92961763D01*
X136761340Y-92938812D01*
X136761342Y-92938810D01*
X136761346Y-92938810D01*
X136955181Y-92858524D01*
X137136878Y-92753624D01*
X137303328Y-92625905D01*
X137314532Y-92614701D01*
X137314544Y-92614691D01*
X137317278Y-92611957D01*
X137319836Y-92610559D01*
X137338416Y-92596052D01*
X137338426Y-92596046D01*
X137340395Y-92599328D01*
X137378595Y-92578461D01*
X137437066Y-92579846D01*
X137533308Y-92605635D01*
X137695230Y-92619801D01*
X137759998Y-92625468D01*
X137760000Y-92625468D01*
X137760002Y-92625468D01*
X137816673Y-92620509D01*
X137986692Y-92605635D01*
X138206496Y-92546739D01*
X138412734Y-92450568D01*
X138599139Y-92320047D01*
X138760047Y-92159139D01*
X138890568Y-91972734D01*
X138917618Y-91914724D01*
X138963790Y-91862285D01*
X139030983Y-91843133D01*
X139097865Y-91863348D01*
X139142382Y-91914725D01*
X139169429Y-91972728D01*
X139169432Y-91972734D01*
X139299954Y-92159141D01*
X139460858Y-92320045D01*
X139460861Y-92320047D01*
X139647266Y-92450568D01*
X139853504Y-92546739D01*
X140073308Y-92605635D01*
X140235230Y-92619801D01*
X140299998Y-92625468D01*
X140300000Y-92625468D01*
X140300002Y-92625468D01*
X140356673Y-92620509D01*
X140526692Y-92605635D01*
X140746496Y-92546739D01*
X140952734Y-92450568D01*
X141139139Y-92320047D01*
X141300047Y-92159139D01*
X141430568Y-91972734D01*
X141526739Y-91766496D01*
X141585635Y-91546692D01*
X141605468Y-91320000D01*
X141585635Y-91093308D01*
X141569256Y-91032181D01*
X141554362Y-90976593D01*
X141556025Y-90906743D01*
X141595188Y-90848881D01*
X141659417Y-90821377D01*
X141674137Y-90820500D01*
X167445115Y-90820500D01*
X167512154Y-90840185D01*
X167557909Y-90892989D01*
X167567853Y-90962147D01*
X167538828Y-91025703D01*
X167532796Y-91032181D01*
X162415316Y-96149660D01*
X162353993Y-96183145D01*
X162284301Y-96178161D01*
X162228368Y-96136289D01*
X162223826Y-96129800D01*
X162188168Y-96075220D01*
X162188165Y-96075217D01*
X162188164Y-96075215D01*
X162019744Y-95892262D01*
X161823509Y-95739526D01*
X161823507Y-95739525D01*
X161823506Y-95739524D01*
X161604811Y-95621172D01*
X161604802Y-95621169D01*
X161369616Y-95540429D01*
X161124335Y-95499500D01*
X160875665Y-95499500D01*
X160630383Y-95540429D01*
X160395197Y-95621169D01*
X160395188Y-95621172D01*
X160176493Y-95739524D01*
X159980257Y-95892261D01*
X159811833Y-96075217D01*
X159675826Y-96283393D01*
X159575936Y-96511118D01*
X159514892Y-96752175D01*
X159514890Y-96752187D01*
X159494357Y-96999994D01*
X159494357Y-97000005D01*
X159514890Y-97247812D01*
X159514892Y-97247824D01*
X159575936Y-97488881D01*
X159675826Y-97716606D01*
X159811833Y-97924782D01*
X159844245Y-97959991D01*
X159980256Y-98107738D01*
X160176491Y-98260474D01*
X160255266Y-98303105D01*
X160394332Y-98378364D01*
X160395190Y-98378828D01*
X160614141Y-98453994D01*
X160628964Y-98459083D01*
X160630386Y-98459571D01*
X160875665Y-98500500D01*
X161124335Y-98500500D01*
X161369614Y-98459571D01*
X161604810Y-98378828D01*
X161823509Y-98260474D01*
X162019744Y-98107738D01*
X162188164Y-97924785D01*
X162324173Y-97716607D01*
X162324278Y-97716369D01*
X162348625Y-97660861D01*
X162373071Y-97605129D01*
X162418025Y-97551645D01*
X162454531Y-97535166D01*
X162515566Y-97518813D01*
X162704702Y-97440470D01*
X162709393Y-97438527D01*
X162709394Y-97438526D01*
X162709400Y-97438524D01*
X162891096Y-97333622D01*
X163057546Y-97205901D01*
X163065604Y-97197842D01*
X163065614Y-97197836D01*
X163065613Y-97197835D01*
X163263454Y-96999994D01*
X171494357Y-96999994D01*
X171494357Y-97000005D01*
X171514890Y-97247812D01*
X171514892Y-97247824D01*
X171575936Y-97488881D01*
X171675826Y-97716606D01*
X171811833Y-97924782D01*
X171844245Y-97959991D01*
X171980256Y-98107738D01*
X172176491Y-98260474D01*
X172255266Y-98303105D01*
X172394332Y-98378364D01*
X172395190Y-98378828D01*
X172614141Y-98453994D01*
X172628964Y-98459083D01*
X172630386Y-98459571D01*
X172875665Y-98500500D01*
X173124335Y-98500500D01*
X173369614Y-98459571D01*
X173604810Y-98378828D01*
X173823509Y-98260474D01*
X174019744Y-98107738D01*
X174188164Y-97924785D01*
X174324173Y-97716607D01*
X174424063Y-97488881D01*
X174485108Y-97247821D01*
X174485116Y-97247729D01*
X174505643Y-97000005D01*
X174505643Y-96999994D01*
X178994859Y-96999994D01*
X178994859Y-97000005D01*
X179015385Y-97247729D01*
X179015387Y-97247738D01*
X179076412Y-97488717D01*
X179176266Y-97716364D01*
X179276564Y-97869882D01*
X180017037Y-97129409D01*
X180034075Y-97192993D01*
X180099901Y-97307007D01*
X180192993Y-97400099D01*
X180307007Y-97465925D01*
X180370590Y-97482962D01*
X179629942Y-98223609D01*
X179676768Y-98260055D01*
X179676770Y-98260056D01*
X179895385Y-98378364D01*
X179895396Y-98378369D01*
X180130506Y-98459083D01*
X180375707Y-98500000D01*
X180624293Y-98500000D01*
X180624305Y-98499998D01*
X192694532Y-98499998D01*
X192694532Y-98500000D01*
X192714364Y-98726686D01*
X192714366Y-98726697D01*
X192773258Y-98946488D01*
X192773261Y-98946497D01*
X192869431Y-99152732D01*
X192869432Y-99152734D01*
X192999954Y-99339141D01*
X193160858Y-99500045D01*
X193160861Y-99500047D01*
X193347266Y-99630568D01*
X193553504Y-99726739D01*
X193773308Y-99785635D01*
X193935230Y-99799801D01*
X193999998Y-99805468D01*
X194000000Y-99805468D01*
X194000002Y-99805468D01*
X194056673Y-99800509D01*
X194226692Y-99785635D01*
X194446496Y-99726739D01*
X194652734Y-99630568D01*
X194839139Y-99500047D01*
X195000047Y-99339139D01*
X195130568Y-99152734D01*
X195137893Y-99137024D01*
X195184064Y-99084586D01*
X195251257Y-99065433D01*
X195318138Y-99085648D01*
X195362657Y-99137024D01*
X195369864Y-99152480D01*
X195420974Y-99225472D01*
X196100000Y-98546446D01*
X196100000Y-98552661D01*
X196127259Y-98654394D01*
X196179920Y-98745606D01*
X196254394Y-98820080D01*
X196345606Y-98872741D01*
X196447339Y-98900000D01*
X196453553Y-98900000D01*
X195774526Y-99579025D01*
X195847513Y-99630132D01*
X195847521Y-99630136D01*
X196053668Y-99726264D01*
X196053682Y-99726269D01*
X196273389Y-99785139D01*
X196273400Y-99785141D01*
X196499998Y-99804966D01*
X196500002Y-99804966D01*
X196726599Y-99785141D01*
X196726610Y-99785139D01*
X196946317Y-99726269D01*
X196946331Y-99726264D01*
X197152478Y-99630136D01*
X197225471Y-99579024D01*
X196546447Y-98900000D01*
X196552661Y-98900000D01*
X196654394Y-98872741D01*
X196745606Y-98820080D01*
X196820080Y-98745606D01*
X196872741Y-98654394D01*
X196900000Y-98552661D01*
X196900000Y-98546447D01*
X197579024Y-99225471D01*
X197630136Y-99152478D01*
X197726264Y-98946331D01*
X197726269Y-98946317D01*
X197785139Y-98726610D01*
X197785141Y-98726599D01*
X197804966Y-98500000D01*
X197804966Y-98499998D01*
X201444532Y-98499998D01*
X201444532Y-98500000D01*
X201464364Y-98726686D01*
X201464366Y-98726697D01*
X201523258Y-98946488D01*
X201523261Y-98946497D01*
X201619431Y-99152732D01*
X201619432Y-99152734D01*
X201749954Y-99339141D01*
X201910858Y-99500045D01*
X201910861Y-99500047D01*
X202097266Y-99630568D01*
X202303504Y-99726739D01*
X202523308Y-99785635D01*
X202685230Y-99799801D01*
X202749998Y-99805468D01*
X202750000Y-99805468D01*
X202750002Y-99805468D01*
X202806673Y-99800509D01*
X202976692Y-99785635D01*
X203196496Y-99726739D01*
X203402734Y-99630568D01*
X203589139Y-99500047D01*
X203750047Y-99339139D01*
X203880568Y-99152734D01*
X203887618Y-99137614D01*
X203933789Y-99085176D01*
X204000982Y-99066023D01*
X204067864Y-99086238D01*
X204112381Y-99137614D01*
X204119432Y-99152733D01*
X204119432Y-99152734D01*
X204249954Y-99339141D01*
X204410858Y-99500045D01*
X204410861Y-99500047D01*
X204597266Y-99630568D01*
X204803504Y-99726739D01*
X205023308Y-99785635D01*
X205185230Y-99799801D01*
X205249998Y-99805468D01*
X205250000Y-99805468D01*
X205250002Y-99805468D01*
X205306673Y-99800509D01*
X205476692Y-99785635D01*
X205696496Y-99726739D01*
X205902734Y-99630568D01*
X206089139Y-99500047D01*
X206250047Y-99339139D01*
X206380568Y-99152734D01*
X206476739Y-98946496D01*
X206535635Y-98726692D01*
X206555468Y-98500000D01*
X206535635Y-98273308D01*
X206476739Y-98053504D01*
X206380568Y-97847266D01*
X206262845Y-97679139D01*
X206250045Y-97660858D01*
X206089141Y-97499954D01*
X205902734Y-97369432D01*
X205902732Y-97369431D01*
X205696497Y-97273261D01*
X205696488Y-97273258D01*
X205476697Y-97214366D01*
X205476693Y-97214365D01*
X205476692Y-97214365D01*
X205476691Y-97214364D01*
X205476686Y-97214364D01*
X205250002Y-97194532D01*
X205249998Y-97194532D01*
X205023313Y-97214364D01*
X205023302Y-97214366D01*
X204803511Y-97273258D01*
X204803502Y-97273261D01*
X204597267Y-97369431D01*
X204597265Y-97369432D01*
X204410858Y-97499954D01*
X204249954Y-97660858D01*
X204119433Y-97847264D01*
X204119432Y-97847266D01*
X204112380Y-97862387D01*
X204066209Y-97914825D01*
X203999015Y-97933976D01*
X203932134Y-97913760D01*
X203887619Y-97862387D01*
X203880568Y-97847266D01*
X203762845Y-97679139D01*
X203750045Y-97660858D01*
X203589141Y-97499954D01*
X203402734Y-97369432D01*
X203402732Y-97369431D01*
X203196497Y-97273261D01*
X203196488Y-97273258D01*
X202976697Y-97214366D01*
X202976693Y-97214365D01*
X202976692Y-97214365D01*
X202976691Y-97214364D01*
X202976686Y-97214364D01*
X202750002Y-97194532D01*
X202749998Y-97194532D01*
X202523313Y-97214364D01*
X202523302Y-97214366D01*
X202303511Y-97273258D01*
X202303502Y-97273261D01*
X202097267Y-97369431D01*
X202097265Y-97369432D01*
X201910858Y-97499954D01*
X201749954Y-97660858D01*
X201619432Y-97847265D01*
X201619431Y-97847267D01*
X201523261Y-98053502D01*
X201523258Y-98053511D01*
X201464366Y-98273302D01*
X201464364Y-98273313D01*
X201444532Y-98499998D01*
X197804966Y-98499998D01*
X197804966Y-98499997D01*
X197785141Y-98273400D01*
X197785139Y-98273389D01*
X197726269Y-98053682D01*
X197726264Y-98053668D01*
X197630136Y-97847521D01*
X197630132Y-97847513D01*
X197579025Y-97774526D01*
X196900000Y-98453551D01*
X196900000Y-98447339D01*
X196872741Y-98345606D01*
X196820080Y-98254394D01*
X196745606Y-98179920D01*
X196654394Y-98127259D01*
X196552661Y-98100000D01*
X196546448Y-98100000D01*
X197225472Y-97420974D01*
X197152478Y-97369863D01*
X196946331Y-97273735D01*
X196946317Y-97273730D01*
X196726610Y-97214860D01*
X196726599Y-97214858D01*
X196500002Y-97195034D01*
X196499998Y-97195034D01*
X196273400Y-97214858D01*
X196273389Y-97214860D01*
X196053682Y-97273730D01*
X196053673Y-97273734D01*
X195847516Y-97369866D01*
X195847512Y-97369868D01*
X195774526Y-97420973D01*
X195774526Y-97420974D01*
X196453553Y-98100000D01*
X196447339Y-98100000D01*
X196345606Y-98127259D01*
X196254394Y-98179920D01*
X196179920Y-98254394D01*
X196127259Y-98345606D01*
X196100000Y-98447339D01*
X196100000Y-98453552D01*
X195420974Y-97774526D01*
X195420973Y-97774526D01*
X195369868Y-97847512D01*
X195369867Y-97847514D01*
X195362656Y-97862979D01*
X195316482Y-97915417D01*
X195249288Y-97934567D01*
X195182407Y-97914350D01*
X195137893Y-97862976D01*
X195130568Y-97847266D01*
X195012845Y-97679139D01*
X195000045Y-97660858D01*
X194839141Y-97499954D01*
X194652734Y-97369432D01*
X194652732Y-97369431D01*
X194446497Y-97273261D01*
X194446488Y-97273258D01*
X194226697Y-97214366D01*
X194226693Y-97214365D01*
X194226692Y-97214365D01*
X194226691Y-97214364D01*
X194226686Y-97214364D01*
X194000002Y-97194532D01*
X193999998Y-97194532D01*
X193773313Y-97214364D01*
X193773302Y-97214366D01*
X193553511Y-97273258D01*
X193553502Y-97273261D01*
X193347267Y-97369431D01*
X193347265Y-97369432D01*
X193160858Y-97499954D01*
X192999954Y-97660858D01*
X192869432Y-97847265D01*
X192869431Y-97847267D01*
X192773261Y-98053502D01*
X192773258Y-98053511D01*
X192714366Y-98273302D01*
X192714364Y-98273313D01*
X192694532Y-98499998D01*
X180624305Y-98499998D01*
X180869493Y-98459083D01*
X181104603Y-98378369D01*
X181104614Y-98378364D01*
X181323228Y-98260057D01*
X181323231Y-98260055D01*
X181370056Y-98223609D01*
X180629409Y-97482962D01*
X180692993Y-97465925D01*
X180807007Y-97400099D01*
X180900099Y-97307007D01*
X180965925Y-97192993D01*
X180982962Y-97129409D01*
X181723434Y-97869882D01*
X181823731Y-97716369D01*
X181923587Y-97488717D01*
X181984612Y-97247738D01*
X181984614Y-97247729D01*
X182005141Y-97000005D01*
X182005141Y-96999994D01*
X181984614Y-96752270D01*
X181984612Y-96752261D01*
X181923587Y-96511282D01*
X181823731Y-96283630D01*
X181723434Y-96130116D01*
X180982962Y-96870589D01*
X180965925Y-96807007D01*
X180900099Y-96692993D01*
X180807007Y-96599901D01*
X180692993Y-96534075D01*
X180629410Y-96517037D01*
X181370057Y-95776390D01*
X181370056Y-95776389D01*
X181323229Y-95739943D01*
X181104614Y-95621635D01*
X181104603Y-95621630D01*
X180869493Y-95540916D01*
X180624293Y-95500000D01*
X180375707Y-95500000D01*
X180130506Y-95540916D01*
X179895396Y-95621630D01*
X179895390Y-95621632D01*
X179676761Y-95739949D01*
X179629942Y-95776388D01*
X179629942Y-95776390D01*
X180370590Y-96517037D01*
X180307007Y-96534075D01*
X180192993Y-96599901D01*
X180099901Y-96692993D01*
X180034075Y-96807007D01*
X180017037Y-96870589D01*
X179276564Y-96130116D01*
X179176267Y-96283632D01*
X179076412Y-96511282D01*
X179015387Y-96752261D01*
X179015385Y-96752270D01*
X178994859Y-96999994D01*
X174505643Y-96999994D01*
X174485109Y-96752187D01*
X174485107Y-96752175D01*
X174424063Y-96511118D01*
X174324173Y-96283393D01*
X174188166Y-96075217D01*
X174137505Y-96020185D01*
X174019744Y-95892262D01*
X173823509Y-95739526D01*
X173823507Y-95739525D01*
X173823506Y-95739524D01*
X173604811Y-95621172D01*
X173604802Y-95621169D01*
X173369616Y-95540429D01*
X173124335Y-95499500D01*
X172875665Y-95499500D01*
X172630383Y-95540429D01*
X172395197Y-95621169D01*
X172395188Y-95621172D01*
X172176493Y-95739524D01*
X171980257Y-95892261D01*
X171811833Y-96075217D01*
X171675826Y-96283393D01*
X171575936Y-96511118D01*
X171514892Y-96752175D01*
X171514890Y-96752187D01*
X171494357Y-96999994D01*
X163263454Y-96999994D01*
X166495932Y-93767516D01*
X170119271Y-90144177D01*
X170120133Y-90143315D01*
X170132366Y-90132579D01*
X170195718Y-90083970D01*
X170223744Y-90067790D01*
X170289936Y-90040373D01*
X170321197Y-90031998D01*
X170400505Y-90021559D01*
X170416679Y-90020500D01*
X170481325Y-90020501D01*
X170481329Y-90020500D01*
X185088308Y-90020500D01*
X185155347Y-90040185D01*
X185189880Y-90073374D01*
X185239459Y-90144180D01*
X185319954Y-90259141D01*
X185480858Y-90420045D01*
X185480861Y-90420047D01*
X185667266Y-90550568D01*
X185873504Y-90646739D01*
X186093308Y-90705635D01*
X186255230Y-90719801D01*
X186319998Y-90725468D01*
X186320000Y-90725468D01*
X186320002Y-90725468D01*
X186376673Y-90720509D01*
X186546692Y-90705635D01*
X186766496Y-90646739D01*
X186972734Y-90550568D01*
X187159139Y-90420047D01*
X187320047Y-90259139D01*
X187450568Y-90072734D01*
X187546739Y-89866496D01*
X187605635Y-89646692D01*
X187625468Y-89420000D01*
X187625468Y-89419998D01*
X190014532Y-89419998D01*
X190014532Y-89420001D01*
X190034364Y-89646686D01*
X190034366Y-89646697D01*
X190093258Y-89866488D01*
X190093261Y-89866497D01*
X190189431Y-90072732D01*
X190189432Y-90072734D01*
X190319954Y-90259141D01*
X190480858Y-90420045D01*
X190480861Y-90420047D01*
X190667266Y-90550568D01*
X190873504Y-90646739D01*
X191093308Y-90705635D01*
X191255230Y-90719801D01*
X191319998Y-90725468D01*
X191320000Y-90725468D01*
X191320002Y-90725468D01*
X191376673Y-90720509D01*
X191546692Y-90705635D01*
X191766496Y-90646739D01*
X191972734Y-90550568D01*
X192159139Y-90420047D01*
X192320047Y-90259139D01*
X192450118Y-90073375D01*
X192504693Y-90029752D01*
X192551692Y-90020500D01*
X195088308Y-90020500D01*
X195155347Y-90040185D01*
X195189880Y-90073374D01*
X195239459Y-90144180D01*
X195319954Y-90259141D01*
X195480858Y-90420045D01*
X195480861Y-90420047D01*
X195667266Y-90550568D01*
X195873504Y-90646739D01*
X196093308Y-90705635D01*
X196255230Y-90719801D01*
X196319998Y-90725468D01*
X196320000Y-90725468D01*
X196320002Y-90725468D01*
X196376673Y-90720509D01*
X196546692Y-90705635D01*
X196766496Y-90646739D01*
X196972734Y-90550568D01*
X197159139Y-90420047D01*
X197320047Y-90259139D01*
X197450568Y-90072734D01*
X197546739Y-89866496D01*
X197605635Y-89646692D01*
X197625468Y-89420000D01*
X197605635Y-89193308D01*
X197546739Y-88973504D01*
X197450568Y-88767266D01*
X197320047Y-88580861D01*
X197320045Y-88580858D01*
X197159141Y-88419954D01*
X196972734Y-88289432D01*
X196972732Y-88289431D01*
X196766497Y-88193261D01*
X196766488Y-88193258D01*
X196546697Y-88134366D01*
X196546693Y-88134365D01*
X196546692Y-88134365D01*
X196546691Y-88134364D01*
X196546686Y-88134364D01*
X196320002Y-88114532D01*
X196319998Y-88114532D01*
X196093313Y-88134364D01*
X196093302Y-88134366D01*
X195873511Y-88193258D01*
X195873502Y-88193261D01*
X195667267Y-88289431D01*
X195667265Y-88289432D01*
X195480858Y-88419954D01*
X195319954Y-88580858D01*
X195262798Y-88662487D01*
X195189881Y-88766624D01*
X195135307Y-88810248D01*
X195088308Y-88819500D01*
X192551692Y-88819500D01*
X192484653Y-88799815D01*
X192450119Y-88766625D01*
X192320047Y-88580861D01*
X192320045Y-88580858D01*
X192159141Y-88419954D01*
X191972734Y-88289432D01*
X191972732Y-88289431D01*
X191766497Y-88193261D01*
X191766488Y-88193258D01*
X191546697Y-88134366D01*
X191546693Y-88134365D01*
X191546692Y-88134365D01*
X191546691Y-88134364D01*
X191546686Y-88134364D01*
X191320002Y-88114532D01*
X191319998Y-88114532D01*
X191093313Y-88134364D01*
X191093302Y-88134366D01*
X190873511Y-88193258D01*
X190873502Y-88193261D01*
X190667267Y-88289431D01*
X190667265Y-88289432D01*
X190480858Y-88419954D01*
X190319954Y-88580858D01*
X190189432Y-88767265D01*
X190189431Y-88767267D01*
X190093261Y-88973502D01*
X190093258Y-88973511D01*
X190034366Y-89193302D01*
X190034364Y-89193313D01*
X190014532Y-89419998D01*
X187625468Y-89419998D01*
X187605635Y-89193308D01*
X187546739Y-88973504D01*
X187450568Y-88767266D01*
X187320047Y-88580861D01*
X187320045Y-88580858D01*
X187159141Y-88419954D01*
X186972734Y-88289432D01*
X186972732Y-88289431D01*
X186766497Y-88193261D01*
X186766488Y-88193258D01*
X186546697Y-88134366D01*
X186546693Y-88134365D01*
X186546692Y-88134365D01*
X186546691Y-88134364D01*
X186546686Y-88134364D01*
X186320002Y-88114532D01*
X186319998Y-88114532D01*
X186093313Y-88134364D01*
X186093302Y-88134366D01*
X185873511Y-88193258D01*
X185873502Y-88193261D01*
X185667267Y-88289431D01*
X185667265Y-88289432D01*
X185480858Y-88419954D01*
X185319954Y-88580858D01*
X185262798Y-88662487D01*
X185189881Y-88766624D01*
X185135307Y-88810248D01*
X185088308Y-88819500D01*
X170409096Y-88819500D01*
X170342057Y-88799815D01*
X170296302Y-88747011D01*
X170286358Y-88677853D01*
X170315383Y-88614297D01*
X170321415Y-88607819D01*
X172539618Y-86389616D01*
X174817294Y-84111939D01*
X174878615Y-84078456D01*
X174937066Y-84079847D01*
X174943273Y-84081510D01*
X175033308Y-84105635D01*
X175175361Y-84118063D01*
X175259998Y-84125468D01*
X175260000Y-84125468D01*
X175260002Y-84125468D01*
X175316673Y-84120509D01*
X175486692Y-84105635D01*
X175582932Y-84079847D01*
X175652781Y-84081510D01*
X175702706Y-84111941D01*
X178408124Y-86817360D01*
X178408140Y-86817390D01*
X178516660Y-86925908D01*
X178516664Y-86925912D01*
X178653880Y-87031198D01*
X178683117Y-87053632D01*
X178864815Y-87158533D01*
X179058651Y-87238820D01*
X179261308Y-87293119D01*
X179261309Y-87293119D01*
X179261312Y-87293120D01*
X179352620Y-87305139D01*
X179469320Y-87320501D01*
X179574222Y-87320500D01*
X206065778Y-87320500D01*
X206144843Y-87320500D01*
X206153664Y-87320500D01*
X206153794Y-87320490D01*
X206170680Y-87320491D01*
X206299142Y-87303580D01*
X206378685Y-87293110D01*
X206378686Y-87293109D01*
X206378690Y-87293109D01*
X206495677Y-87261763D01*
X206581340Y-87238812D01*
X206581342Y-87238810D01*
X206581346Y-87238810D01*
X206775181Y-87158524D01*
X206956878Y-87053624D01*
X207123328Y-86925905D01*
X207134532Y-86914701D01*
X207134544Y-86914691D01*
X207137278Y-86911957D01*
X207139836Y-86910559D01*
X207158416Y-86896052D01*
X207158426Y-86896046D01*
X207160395Y-86899328D01*
X207198595Y-86878461D01*
X207257066Y-86879846D01*
X207353308Y-86905635D01*
X207515230Y-86919801D01*
X207579998Y-86925468D01*
X207580000Y-86925468D01*
X207580002Y-86925468D01*
X207636673Y-86920509D01*
X207806692Y-86905635D01*
X208026496Y-86846739D01*
X208232734Y-86750568D01*
X208419139Y-86620047D01*
X208580047Y-86459139D01*
X208710568Y-86272734D01*
X208737618Y-86214724D01*
X208783790Y-86162285D01*
X208850983Y-86143133D01*
X208917865Y-86163348D01*
X208962382Y-86214725D01*
X208989429Y-86272728D01*
X208989432Y-86272734D01*
X209119954Y-86459141D01*
X209280858Y-86620045D01*
X209280861Y-86620047D01*
X209467266Y-86750568D01*
X209673504Y-86846739D01*
X209893308Y-86905635D01*
X210055230Y-86919801D01*
X210119998Y-86925468D01*
X210120000Y-86925468D01*
X210120002Y-86925468D01*
X210176673Y-86920509D01*
X210346692Y-86905635D01*
X210566496Y-86846739D01*
X210772734Y-86750568D01*
X210959139Y-86620047D01*
X211120047Y-86459139D01*
X211250568Y-86272734D01*
X211346739Y-86066496D01*
X211405635Y-85846692D01*
X211425468Y-85620000D01*
X211405635Y-85393308D01*
X211346739Y-85173504D01*
X211250568Y-84967266D01*
X211120047Y-84780861D01*
X211120045Y-84780858D01*
X210959141Y-84619954D01*
X210772734Y-84489432D01*
X210772732Y-84489431D01*
X210566497Y-84393261D01*
X210566488Y-84393258D01*
X210346697Y-84334366D01*
X210346693Y-84334365D01*
X210346692Y-84334365D01*
X210346691Y-84334364D01*
X210346686Y-84334364D01*
X210120002Y-84314532D01*
X210119998Y-84314532D01*
X209893313Y-84334364D01*
X209893302Y-84334366D01*
X209673511Y-84393258D01*
X209673502Y-84393261D01*
X209467267Y-84489431D01*
X209467265Y-84489432D01*
X209280858Y-84619954D01*
X209119954Y-84780858D01*
X208989432Y-84967265D01*
X208989431Y-84967267D01*
X208962382Y-85025275D01*
X208916209Y-85077714D01*
X208849016Y-85096866D01*
X208782135Y-85076650D01*
X208737618Y-85025275D01*
X208733301Y-85016017D01*
X208710568Y-84967266D01*
X208580047Y-84780861D01*
X208580045Y-84780858D01*
X208419141Y-84619954D01*
X208232734Y-84489432D01*
X208232732Y-84489431D01*
X208026497Y-84393261D01*
X208026488Y-84393258D01*
X207806697Y-84334366D01*
X207806693Y-84334365D01*
X207806692Y-84334365D01*
X207806691Y-84334364D01*
X207806686Y-84334364D01*
X207580002Y-84314532D01*
X207579998Y-84314532D01*
X207353313Y-84334364D01*
X207353302Y-84334366D01*
X207133511Y-84393258D01*
X207133502Y-84393261D01*
X206927267Y-84489431D01*
X206927265Y-84489432D01*
X206740858Y-84619954D01*
X206579954Y-84780858D01*
X206449432Y-84967265D01*
X206449431Y-84967267D01*
X206422382Y-85025275D01*
X206376209Y-85077714D01*
X206309016Y-85096866D01*
X206242135Y-85076650D01*
X206197618Y-85025275D01*
X206193301Y-85016017D01*
X206170568Y-84967266D01*
X206040047Y-84780861D01*
X206040045Y-84780858D01*
X205879141Y-84619954D01*
X205692734Y-84489432D01*
X205692732Y-84489431D01*
X205486497Y-84393261D01*
X205486488Y-84393258D01*
X205266697Y-84334366D01*
X205266693Y-84334365D01*
X205266692Y-84334365D01*
X205266691Y-84334364D01*
X205266686Y-84334364D01*
X205040002Y-84314532D01*
X205039998Y-84314532D01*
X204813313Y-84334364D01*
X204813302Y-84334366D01*
X204593511Y-84393258D01*
X204593502Y-84393261D01*
X204387267Y-84489431D01*
X204387265Y-84489432D01*
X204200858Y-84619954D01*
X204039954Y-84780858D01*
X203909432Y-84967265D01*
X203909431Y-84967267D01*
X203882382Y-85025275D01*
X203836209Y-85077714D01*
X203769016Y-85096866D01*
X203702135Y-85076650D01*
X203657618Y-85025275D01*
X203653301Y-85016017D01*
X203630568Y-84967266D01*
X203500047Y-84780861D01*
X203500045Y-84780858D01*
X203339141Y-84619954D01*
X203152734Y-84489432D01*
X203152732Y-84489431D01*
X202946497Y-84393261D01*
X202946488Y-84393258D01*
X202726697Y-84334366D01*
X202726693Y-84334365D01*
X202726692Y-84334365D01*
X202726691Y-84334364D01*
X202726686Y-84334364D01*
X202500002Y-84314532D01*
X202499998Y-84314532D01*
X202273313Y-84334364D01*
X202273302Y-84334366D01*
X202053511Y-84393258D01*
X202053502Y-84393261D01*
X201847267Y-84489431D01*
X201847265Y-84489432D01*
X201660858Y-84619954D01*
X201499954Y-84780858D01*
X201369432Y-84967265D01*
X201369431Y-84967267D01*
X201273261Y-85173502D01*
X201273258Y-85173511D01*
X201214366Y-85393302D01*
X201214364Y-85393313D01*
X201194532Y-85619998D01*
X201194532Y-85620001D01*
X201214364Y-85846686D01*
X201214366Y-85846697D01*
X201245638Y-85963407D01*
X201243975Y-86033257D01*
X201204812Y-86091119D01*
X201140583Y-86118623D01*
X201125863Y-86119500D01*
X179654730Y-86119500D01*
X179654714Y-86119499D01*
X179582328Y-86119499D01*
X179566145Y-86118438D01*
X179486993Y-86108019D01*
X179455724Y-86099641D01*
X179389537Y-86072226D01*
X179361504Y-86056042D01*
X179298220Y-86007484D01*
X179286024Y-85996788D01*
X177618664Y-84329428D01*
X177585179Y-84268105D01*
X177590163Y-84198413D01*
X177632035Y-84142480D01*
X177697499Y-84118063D01*
X177717142Y-84118218D01*
X177800000Y-84125468D01*
X177800000Y-84125467D01*
X177800001Y-84125468D01*
X177800002Y-84125468D01*
X177856673Y-84120509D01*
X178026692Y-84105635D01*
X178246496Y-84046739D01*
X178452734Y-83950568D01*
X178639139Y-83820047D01*
X178800047Y-83659139D01*
X178930568Y-83472734D01*
X179026739Y-83266496D01*
X179085635Y-83046692D01*
X179102658Y-82852123D01*
X179105468Y-82820001D01*
X179105468Y-82819998D01*
X179094965Y-82699953D01*
X179085635Y-82593308D01*
X179035422Y-82405908D01*
X179026741Y-82373511D01*
X179026738Y-82373502D01*
X178979112Y-82271369D01*
X178930568Y-82167266D01*
X178800047Y-81980861D01*
X178800045Y-81980858D01*
X178639141Y-81819954D01*
X178452734Y-81689432D01*
X178452732Y-81689431D01*
X178246497Y-81593261D01*
X178246488Y-81593258D01*
X178026697Y-81534366D01*
X178026693Y-81534365D01*
X178026692Y-81534365D01*
X178026691Y-81534364D01*
X178026686Y-81534364D01*
X177800002Y-81514532D01*
X177799998Y-81514532D01*
X177573313Y-81534364D01*
X177573302Y-81534366D01*
X177353511Y-81593258D01*
X177353502Y-81593261D01*
X177147267Y-81689431D01*
X177147265Y-81689432D01*
X176960858Y-81819954D01*
X176799954Y-81980858D01*
X176669432Y-82167265D01*
X176669431Y-82167267D01*
X176642382Y-82225275D01*
X176596209Y-82277714D01*
X176529016Y-82296866D01*
X176462135Y-82276650D01*
X176417618Y-82225275D01*
X176390568Y-82167267D01*
X176390567Y-82167265D01*
X176260045Y-81980858D01*
X176099141Y-81819954D01*
X175912734Y-81689432D01*
X175912732Y-81689431D01*
X175706497Y-81593261D01*
X175706488Y-81593258D01*
X175486697Y-81534366D01*
X175486693Y-81534365D01*
X175486692Y-81534365D01*
X175486691Y-81534364D01*
X175486686Y-81534364D01*
X175260002Y-81514532D01*
X175259998Y-81514532D01*
X175033313Y-81534364D01*
X175033302Y-81534366D01*
X174813511Y-81593258D01*
X174813502Y-81593261D01*
X174607267Y-81689431D01*
X174607265Y-81689432D01*
X174420858Y-81819954D01*
X174259954Y-81980858D01*
X174129432Y-82167265D01*
X174129431Y-82167267D01*
X174102382Y-82225275D01*
X174056209Y-82277714D01*
X173989016Y-82296866D01*
X173922135Y-82276650D01*
X173877618Y-82225275D01*
X173850568Y-82167267D01*
X173850567Y-82167265D01*
X173720045Y-81980858D01*
X173559141Y-81819954D01*
X173372734Y-81689432D01*
X173372732Y-81689431D01*
X173166497Y-81593261D01*
X173166488Y-81593258D01*
X172946697Y-81534366D01*
X172946693Y-81534365D01*
X172946692Y-81534365D01*
X172946691Y-81534364D01*
X172946686Y-81534364D01*
X172720002Y-81514532D01*
X172719998Y-81514532D01*
X172493313Y-81534364D01*
X172493302Y-81534366D01*
X172273511Y-81593258D01*
X172273502Y-81593261D01*
X172067267Y-81689431D01*
X172067265Y-81689432D01*
X171880858Y-81819954D01*
X171719954Y-81980858D01*
X171589432Y-82167265D01*
X171589431Y-82167267D01*
X171562382Y-82225275D01*
X171516209Y-82277714D01*
X171449016Y-82296866D01*
X171382135Y-82276650D01*
X171337618Y-82225275D01*
X171310568Y-82167267D01*
X171310567Y-82167265D01*
X171180045Y-81980858D01*
X171019141Y-81819954D01*
X170832734Y-81689432D01*
X170832732Y-81689431D01*
X170626497Y-81593261D01*
X170626488Y-81593258D01*
X170406697Y-81534366D01*
X170406693Y-81534365D01*
X170406692Y-81534365D01*
X170406691Y-81534364D01*
X170406686Y-81534364D01*
X170180002Y-81514532D01*
X170179998Y-81514532D01*
X169953313Y-81534364D01*
X169953302Y-81534366D01*
X169733511Y-81593258D01*
X169733502Y-81593261D01*
X169527267Y-81689431D01*
X169527265Y-81689432D01*
X169340858Y-81819954D01*
X169179954Y-81980858D01*
X169049432Y-82167265D01*
X169049431Y-82167267D01*
X168953261Y-82373502D01*
X168953258Y-82373511D01*
X168894366Y-82593302D01*
X168894364Y-82593313D01*
X168874532Y-82819998D01*
X168874532Y-82820001D01*
X168894364Y-83046686D01*
X168894366Y-83046697D01*
X168953258Y-83266488D01*
X168953261Y-83266497D01*
X169049431Y-83472732D01*
X169049432Y-83472734D01*
X169179954Y-83659141D01*
X169340858Y-83820045D01*
X169340861Y-83820047D01*
X169527266Y-83950568D01*
X169733504Y-84046739D01*
X169953308Y-84105635D01*
X170095361Y-84118063D01*
X170179998Y-84125468D01*
X170180000Y-84125468D01*
X170180002Y-84125468D01*
X170236673Y-84120509D01*
X170406692Y-84105635D01*
X170626496Y-84046739D01*
X170832734Y-83950568D01*
X171019139Y-83820047D01*
X171180047Y-83659139D01*
X171310568Y-83472734D01*
X171337618Y-83414724D01*
X171383790Y-83362285D01*
X171450983Y-83343133D01*
X171517865Y-83363348D01*
X171562382Y-83414725D01*
X171589429Y-83472728D01*
X171589432Y-83472734D01*
X171719954Y-83659141D01*
X171880858Y-83820045D01*
X171880861Y-83820047D01*
X172067266Y-83950568D01*
X172273504Y-84046739D01*
X172493308Y-84105635D01*
X172635361Y-84118063D01*
X172719998Y-84125468D01*
X172719999Y-84125468D01*
X172719999Y-84125467D01*
X172720000Y-84125468D01*
X172802848Y-84118219D01*
X172871345Y-84131985D01*
X172921529Y-84180600D01*
X172937463Y-84248628D01*
X172914088Y-84314472D01*
X172901335Y-84329428D01*
X167734032Y-89496732D01*
X167721837Y-89507427D01*
X167658494Y-89556031D01*
X167630459Y-89572217D01*
X167564271Y-89599632D01*
X167533003Y-89608009D01*
X167453777Y-89618438D01*
X167437594Y-89619499D01*
X167365286Y-89619499D01*
X167365270Y-89619500D01*
X139607416Y-89619500D01*
X139607273Y-89619509D01*
X139589318Y-89619509D01*
X139381314Y-89646889D01*
X139381311Y-89646890D01*
X139178659Y-89701187D01*
X138984818Y-89781476D01*
X138984814Y-89781478D01*
X138908520Y-89825526D01*
X138803122Y-89886376D01*
X138803119Y-89886378D01*
X138803116Y-89886380D01*
X138636674Y-90014092D01*
X138630266Y-90020500D01*
X138620823Y-90029941D01*
X138620793Y-90029970D01*
X138507271Y-90143492D01*
X138445948Y-90176976D01*
X138376256Y-90171992D01*
X138367185Y-90168192D01*
X138314216Y-90143492D01*
X138206496Y-90093261D01*
X138206492Y-90093260D01*
X138206488Y-90093258D01*
X137986697Y-90034366D01*
X137986693Y-90034365D01*
X137986692Y-90034365D01*
X137986691Y-90034364D01*
X137986686Y-90034364D01*
X137760002Y-90014532D01*
X137759998Y-90014532D01*
X137677150Y-90021780D01*
X137608650Y-90008013D01*
X137558467Y-89959398D01*
X137542534Y-89891369D01*
X137565910Y-89825526D01*
X137578656Y-89810577D01*
X149165975Y-78223259D01*
X149178155Y-78212577D01*
X149241509Y-78163965D01*
X149269537Y-78147783D01*
X149335731Y-78120366D01*
X149366994Y-78111990D01*
X149446222Y-78101561D01*
X149462405Y-78100500D01*
X149527119Y-78100501D01*
X149527123Y-78100500D01*
X152043884Y-78100500D01*
X152110923Y-78120185D01*
X152156678Y-78172989D01*
X152157440Y-78174689D01*
X152175827Y-78216608D01*
X152311833Y-78424782D01*
X152331722Y-78446387D01*
X152480256Y-78607738D01*
X152676491Y-78760474D01*
X152695781Y-78770913D01*
X152852024Y-78855468D01*
X152895190Y-78878828D01*
X153130386Y-78959571D01*
X153375665Y-79000500D01*
X153624335Y-79000500D01*
X153869614Y-78959571D01*
X154104810Y-78878828D01*
X154323509Y-78760474D01*
X154519744Y-78607738D01*
X154688164Y-78424785D01*
X154824173Y-78216607D01*
X154924063Y-77988881D01*
X154985108Y-77747821D01*
X154996759Y-77607217D01*
X155005643Y-77500005D01*
X155005643Y-77499994D01*
X154985109Y-77252187D01*
X154985107Y-77252175D01*
X154971599Y-77198834D01*
X154924063Y-77011119D01*
X154907916Y-76974309D01*
X154899014Y-76905011D01*
X154928991Y-76841898D01*
X154988330Y-76805011D01*
X155021473Y-76800500D01*
X159478527Y-76800500D01*
X159545566Y-76820185D01*
X159591321Y-76872989D01*
X159601265Y-76942147D01*
X159592083Y-76974307D01*
X159589065Y-76981190D01*
X159575936Y-77011121D01*
X159514892Y-77252175D01*
X159514890Y-77252187D01*
X159494357Y-77499994D01*
X159494357Y-77500005D01*
X159514890Y-77747812D01*
X159514892Y-77747824D01*
X159575936Y-77988881D01*
X159675826Y-78216606D01*
X159811833Y-78424782D01*
X159831722Y-78446387D01*
X159980256Y-78607738D01*
X160176491Y-78760474D01*
X160195781Y-78770913D01*
X160352024Y-78855468D01*
X160395190Y-78878828D01*
X160630386Y-78959571D01*
X160875665Y-79000500D01*
X161124335Y-79000500D01*
X161369614Y-78959571D01*
X161604810Y-78878828D01*
X161823509Y-78760474D01*
X162019744Y-78607738D01*
X162188164Y-78424785D01*
X162324173Y-78216607D01*
X162419187Y-77999998D01*
X201194532Y-77999998D01*
X201194532Y-78000001D01*
X201214364Y-78226686D01*
X201214366Y-78226697D01*
X201273258Y-78446488D01*
X201273261Y-78446497D01*
X201369431Y-78652732D01*
X201369432Y-78652734D01*
X201499954Y-78839141D01*
X201660858Y-79000045D01*
X201660861Y-79000047D01*
X201847266Y-79130568D01*
X202053504Y-79226739D01*
X202053509Y-79226740D01*
X202053511Y-79226741D01*
X202106415Y-79240916D01*
X202273308Y-79285635D01*
X202435230Y-79299801D01*
X202499998Y-79305468D01*
X202500000Y-79305468D01*
X202500002Y-79305468D01*
X202556807Y-79300498D01*
X202726692Y-79285635D01*
X202946496Y-79226739D01*
X203152734Y-79130568D01*
X203339139Y-79000047D01*
X203500047Y-78839139D01*
X203630568Y-78652734D01*
X203657618Y-78594724D01*
X203703790Y-78542285D01*
X203770983Y-78523133D01*
X203837865Y-78543348D01*
X203882382Y-78594725D01*
X203909429Y-78652728D01*
X203909432Y-78652734D01*
X204039954Y-78839141D01*
X204200858Y-79000045D01*
X204200861Y-79000047D01*
X204387266Y-79130568D01*
X204593504Y-79226739D01*
X204593509Y-79226740D01*
X204593511Y-79226741D01*
X204646415Y-79240916D01*
X204813308Y-79285635D01*
X204975230Y-79299801D01*
X205039998Y-79305468D01*
X205040000Y-79305468D01*
X205040002Y-79305468D01*
X205096807Y-79300498D01*
X205266692Y-79285635D01*
X205486496Y-79226739D01*
X205692734Y-79130568D01*
X205879139Y-79000047D01*
X206040047Y-78839139D01*
X206170568Y-78652734D01*
X206197618Y-78594724D01*
X206243790Y-78542285D01*
X206310983Y-78523133D01*
X206377865Y-78543348D01*
X206422382Y-78594725D01*
X206449429Y-78652728D01*
X206449432Y-78652734D01*
X206579954Y-78839141D01*
X206740858Y-79000045D01*
X206740861Y-79000047D01*
X206927266Y-79130568D01*
X207133504Y-79226739D01*
X207133509Y-79226740D01*
X207133511Y-79226741D01*
X207186415Y-79240916D01*
X207353308Y-79285635D01*
X207515230Y-79299801D01*
X207579998Y-79305468D01*
X207580000Y-79305468D01*
X207580002Y-79305468D01*
X207636807Y-79300498D01*
X207806692Y-79285635D01*
X208026496Y-79226739D01*
X208232734Y-79130568D01*
X208419139Y-79000047D01*
X208580047Y-78839139D01*
X208597272Y-78814539D01*
X208651848Y-78770913D01*
X208721346Y-78763718D01*
X208783701Y-78795239D01*
X208819116Y-78855468D01*
X208822138Y-78872406D01*
X208825908Y-78907483D01*
X208876202Y-79042328D01*
X208876206Y-79042335D01*
X208962452Y-79157544D01*
X208962455Y-79157547D01*
X209077664Y-79243793D01*
X209077671Y-79243797D01*
X209212517Y-79294091D01*
X209212516Y-79294091D01*
X209219444Y-79294835D01*
X209272127Y-79300500D01*
X210967872Y-79300499D01*
X211027483Y-79294091D01*
X211162331Y-79243796D01*
X211277546Y-79157546D01*
X211363796Y-79042331D01*
X211414091Y-78907483D01*
X211420500Y-78847873D01*
X211420499Y-77152128D01*
X211414091Y-77092517D01*
X211402514Y-77061478D01*
X211363797Y-76957671D01*
X211363793Y-76957664D01*
X211277547Y-76842455D01*
X211277544Y-76842452D01*
X211162335Y-76756206D01*
X211162328Y-76756202D01*
X211027482Y-76705908D01*
X211027483Y-76705908D01*
X210967883Y-76699501D01*
X210967881Y-76699500D01*
X210967873Y-76699500D01*
X210967864Y-76699500D01*
X209272129Y-76699500D01*
X209272123Y-76699501D01*
X209212516Y-76705908D01*
X209077671Y-76756202D01*
X209077664Y-76756206D01*
X208962455Y-76842452D01*
X208962452Y-76842455D01*
X208876206Y-76957664D01*
X208876202Y-76957671D01*
X208825908Y-77092516D01*
X208822137Y-77127596D01*
X208795398Y-77192146D01*
X208738006Y-77231994D01*
X208668180Y-77234487D01*
X208608092Y-77198834D01*
X208597273Y-77185462D01*
X208580045Y-77160858D01*
X208419141Y-76999954D01*
X208232734Y-76869432D01*
X208232732Y-76869431D01*
X208026497Y-76773261D01*
X208026488Y-76773258D01*
X207806697Y-76714366D01*
X207806693Y-76714365D01*
X207806692Y-76714365D01*
X207806691Y-76714364D01*
X207806686Y-76714364D01*
X207580002Y-76694532D01*
X207579998Y-76694532D01*
X207353313Y-76714364D01*
X207353302Y-76714366D01*
X207133511Y-76773258D01*
X207133502Y-76773261D01*
X206927267Y-76869431D01*
X206927265Y-76869432D01*
X206740858Y-76999954D01*
X206579954Y-77160858D01*
X206449432Y-77347265D01*
X206449431Y-77347267D01*
X206422382Y-77405275D01*
X206376209Y-77457714D01*
X206309016Y-77476866D01*
X206242135Y-77456650D01*
X206197618Y-77405275D01*
X206170568Y-77347267D01*
X206170567Y-77347265D01*
X206146136Y-77312374D01*
X206040047Y-77160861D01*
X206040045Y-77160858D01*
X205879141Y-76999954D01*
X205692734Y-76869432D01*
X205692732Y-76869431D01*
X205486497Y-76773261D01*
X205486488Y-76773258D01*
X205266697Y-76714366D01*
X205266693Y-76714365D01*
X205266692Y-76714365D01*
X205266691Y-76714364D01*
X205266686Y-76714364D01*
X205040002Y-76694532D01*
X205039998Y-76694532D01*
X204813313Y-76714364D01*
X204813302Y-76714366D01*
X204593511Y-76773258D01*
X204593502Y-76773261D01*
X204387267Y-76869431D01*
X204387265Y-76869432D01*
X204200858Y-76999954D01*
X204039954Y-77160858D01*
X203909432Y-77347265D01*
X203909431Y-77347267D01*
X203882382Y-77405275D01*
X203836209Y-77457714D01*
X203769016Y-77476866D01*
X203702135Y-77456650D01*
X203657618Y-77405275D01*
X203630568Y-77347267D01*
X203630567Y-77347265D01*
X203606136Y-77312374D01*
X203500047Y-77160861D01*
X203500045Y-77160858D01*
X203339141Y-76999954D01*
X203152734Y-76869432D01*
X203152732Y-76869431D01*
X202946497Y-76773261D01*
X202946488Y-76773258D01*
X202726697Y-76714366D01*
X202726693Y-76714365D01*
X202726692Y-76714365D01*
X202726691Y-76714364D01*
X202726686Y-76714364D01*
X202500002Y-76694532D01*
X202499998Y-76694532D01*
X202273313Y-76714364D01*
X202273302Y-76714366D01*
X202053511Y-76773258D01*
X202053502Y-76773261D01*
X201847267Y-76869431D01*
X201847265Y-76869432D01*
X201660858Y-76999954D01*
X201499954Y-77160858D01*
X201369432Y-77347265D01*
X201369431Y-77347267D01*
X201273261Y-77553502D01*
X201273258Y-77553511D01*
X201214366Y-77773302D01*
X201214364Y-77773313D01*
X201194532Y-77999998D01*
X162419187Y-77999998D01*
X162424063Y-77988881D01*
X162485108Y-77747821D01*
X162496759Y-77607217D01*
X162505643Y-77500005D01*
X162505643Y-77499994D01*
X162485109Y-77252187D01*
X162485107Y-77252175D01*
X162471599Y-77198834D01*
X162424063Y-77011119D01*
X162407916Y-76974309D01*
X162399014Y-76905011D01*
X162428991Y-76841898D01*
X162488330Y-76805011D01*
X162521473Y-76800500D01*
X169357031Y-76800500D01*
X169419030Y-76817112D01*
X169492581Y-76859577D01*
X169604384Y-76889534D01*
X169645307Y-76900500D01*
X169645308Y-76900500D01*
X169645309Y-76900500D01*
X171293664Y-76900500D01*
X171293794Y-76900490D01*
X171310680Y-76900491D01*
X171439142Y-76883580D01*
X171518685Y-76873110D01*
X171518686Y-76873109D01*
X171518690Y-76873109D01*
X171635677Y-76841763D01*
X171721340Y-76818812D01*
X171721342Y-76818810D01*
X171721346Y-76818810D01*
X171915181Y-76738524D01*
X172096878Y-76633624D01*
X172263328Y-76505905D01*
X172274532Y-76494701D01*
X172274544Y-76494691D01*
X172277278Y-76491957D01*
X172279836Y-76490559D01*
X172298416Y-76476052D01*
X172298426Y-76476046D01*
X172300395Y-76479328D01*
X172338595Y-76458461D01*
X172397066Y-76459846D01*
X172493308Y-76485635D01*
X172655230Y-76499801D01*
X172719998Y-76505468D01*
X172720000Y-76505468D01*
X172720002Y-76505468D01*
X172776807Y-76500498D01*
X172946692Y-76485635D01*
X173166496Y-76426739D01*
X173372734Y-76330568D01*
X173559139Y-76200047D01*
X173720047Y-76039139D01*
X173850568Y-75852734D01*
X173877618Y-75794724D01*
X173923790Y-75742285D01*
X173990983Y-75723133D01*
X174057865Y-75743348D01*
X174102381Y-75794724D01*
X174110433Y-75811990D01*
X174129429Y-75852728D01*
X174129432Y-75852734D01*
X174259954Y-76039141D01*
X174420858Y-76200045D01*
X174420861Y-76200047D01*
X174607266Y-76330568D01*
X174813504Y-76426739D01*
X175033308Y-76485635D01*
X175195230Y-76499801D01*
X175259998Y-76505468D01*
X175260000Y-76505468D01*
X175260002Y-76505468D01*
X175316807Y-76500498D01*
X175486692Y-76485635D01*
X175706496Y-76426739D01*
X175912734Y-76330568D01*
X176099139Y-76200047D01*
X176260047Y-76039139D01*
X176277272Y-76014539D01*
X176331848Y-75970913D01*
X176401346Y-75963718D01*
X176463701Y-75995239D01*
X176499116Y-76055468D01*
X176502138Y-76072406D01*
X176505908Y-76107483D01*
X176556202Y-76242328D01*
X176556206Y-76242335D01*
X176642452Y-76357544D01*
X176642455Y-76357547D01*
X176757664Y-76443793D01*
X176757671Y-76443797D01*
X176892517Y-76494091D01*
X176892516Y-76494091D01*
X176898237Y-76494706D01*
X176952127Y-76500500D01*
X178647872Y-76500499D01*
X178707483Y-76494091D01*
X178842331Y-76443796D01*
X178957546Y-76357546D01*
X179043796Y-76242331D01*
X179094091Y-76107483D01*
X179100500Y-76047873D01*
X179100499Y-74352128D01*
X179094091Y-74292517D01*
X179059567Y-74199954D01*
X179052124Y-74179998D01*
X185014532Y-74179998D01*
X185014532Y-74180001D01*
X185034364Y-74406686D01*
X185034366Y-74406697D01*
X185093258Y-74626488D01*
X185093261Y-74626497D01*
X185189431Y-74832732D01*
X185189432Y-74832734D01*
X185319954Y-75019141D01*
X185480858Y-75180045D01*
X185480861Y-75180047D01*
X185667266Y-75310568D01*
X185873504Y-75406739D01*
X186093308Y-75465635D01*
X186255230Y-75479801D01*
X186319998Y-75485468D01*
X186320000Y-75485468D01*
X186320002Y-75485468D01*
X186376673Y-75480509D01*
X186546692Y-75465635D01*
X186766496Y-75406739D01*
X186972734Y-75310568D01*
X187159139Y-75180047D01*
X187320047Y-75019139D01*
X187450568Y-74832734D01*
X187546739Y-74626496D01*
X187605635Y-74406692D01*
X187625468Y-74180000D01*
X187625468Y-74179998D01*
X190014532Y-74179998D01*
X190014532Y-74180001D01*
X190034364Y-74406686D01*
X190034366Y-74406697D01*
X190093258Y-74626488D01*
X190093261Y-74626497D01*
X190189431Y-74832732D01*
X190189432Y-74832734D01*
X190319954Y-75019141D01*
X190480858Y-75180045D01*
X190480861Y-75180047D01*
X190667266Y-75310568D01*
X190873504Y-75406739D01*
X191093308Y-75465635D01*
X191255230Y-75479801D01*
X191319998Y-75485468D01*
X191320000Y-75485468D01*
X191320002Y-75485468D01*
X191376673Y-75480509D01*
X191546692Y-75465635D01*
X191766496Y-75406739D01*
X191972734Y-75310568D01*
X192159139Y-75180047D01*
X192320047Y-75019139D01*
X192450568Y-74832734D01*
X192546739Y-74626496D01*
X192605635Y-74406692D01*
X192625468Y-74180000D01*
X192625468Y-74179998D01*
X195014532Y-74179998D01*
X195014532Y-74180001D01*
X195034364Y-74406686D01*
X195034366Y-74406697D01*
X195093258Y-74626488D01*
X195093261Y-74626497D01*
X195189431Y-74832732D01*
X195189432Y-74832734D01*
X195319954Y-75019141D01*
X195480858Y-75180045D01*
X195480861Y-75180047D01*
X195667266Y-75310568D01*
X195873504Y-75406739D01*
X196093308Y-75465635D01*
X196255230Y-75479801D01*
X196319998Y-75485468D01*
X196320000Y-75485468D01*
X196320002Y-75485468D01*
X196376673Y-75480509D01*
X196546692Y-75465635D01*
X196766496Y-75406739D01*
X196972734Y-75310568D01*
X197159139Y-75180047D01*
X197320047Y-75019139D01*
X197450568Y-74832734D01*
X197546739Y-74626496D01*
X197605635Y-74406692D01*
X197625468Y-74180000D01*
X197623514Y-74157671D01*
X197619801Y-74115230D01*
X197605635Y-73953308D01*
X197546739Y-73733504D01*
X197450568Y-73527266D01*
X197320047Y-73340861D01*
X197320045Y-73340858D01*
X197159141Y-73179954D01*
X196972734Y-73049432D01*
X196972732Y-73049431D01*
X196766497Y-72953261D01*
X196766488Y-72953258D01*
X196546697Y-72894366D01*
X196546693Y-72894365D01*
X196546692Y-72894365D01*
X196546691Y-72894364D01*
X196546686Y-72894364D01*
X196320002Y-72874532D01*
X196319998Y-72874532D01*
X196093313Y-72894364D01*
X196093302Y-72894366D01*
X195873511Y-72953258D01*
X195873502Y-72953261D01*
X195667267Y-73049431D01*
X195667265Y-73049432D01*
X195480858Y-73179954D01*
X195319954Y-73340858D01*
X195189432Y-73527265D01*
X195189431Y-73527267D01*
X195093261Y-73733502D01*
X195093258Y-73733511D01*
X195034366Y-73953302D01*
X195034364Y-73953313D01*
X195014532Y-74179998D01*
X192625468Y-74179998D01*
X192623514Y-74157671D01*
X192619801Y-74115230D01*
X192605635Y-73953308D01*
X192546739Y-73733504D01*
X192450568Y-73527266D01*
X192320047Y-73340861D01*
X192320045Y-73340858D01*
X192159141Y-73179954D01*
X191972734Y-73049432D01*
X191972732Y-73049431D01*
X191766497Y-72953261D01*
X191766488Y-72953258D01*
X191546697Y-72894366D01*
X191546693Y-72894365D01*
X191546692Y-72894365D01*
X191546691Y-72894364D01*
X191546686Y-72894364D01*
X191320002Y-72874532D01*
X191319998Y-72874532D01*
X191093313Y-72894364D01*
X191093302Y-72894366D01*
X190873511Y-72953258D01*
X190873502Y-72953261D01*
X190667267Y-73049431D01*
X190667265Y-73049432D01*
X190480858Y-73179954D01*
X190319954Y-73340858D01*
X190189432Y-73527265D01*
X190189431Y-73527267D01*
X190093261Y-73733502D01*
X190093258Y-73733511D01*
X190034366Y-73953302D01*
X190034364Y-73953313D01*
X190014532Y-74179998D01*
X187625468Y-74179998D01*
X187623514Y-74157671D01*
X187619801Y-74115230D01*
X187605635Y-73953308D01*
X187546739Y-73733504D01*
X187450568Y-73527266D01*
X187320047Y-73340861D01*
X187320045Y-73340858D01*
X187159141Y-73179954D01*
X186972734Y-73049432D01*
X186972732Y-73049431D01*
X186766497Y-72953261D01*
X186766488Y-72953258D01*
X186546697Y-72894366D01*
X186546693Y-72894365D01*
X186546692Y-72894365D01*
X186546691Y-72894364D01*
X186546686Y-72894364D01*
X186320002Y-72874532D01*
X186319998Y-72874532D01*
X186093313Y-72894364D01*
X186093302Y-72894366D01*
X185873511Y-72953258D01*
X185873502Y-72953261D01*
X185667267Y-73049431D01*
X185667265Y-73049432D01*
X185480858Y-73179954D01*
X185319954Y-73340858D01*
X185189432Y-73527265D01*
X185189431Y-73527267D01*
X185093261Y-73733502D01*
X185093258Y-73733511D01*
X185034366Y-73953302D01*
X185034364Y-73953313D01*
X185014532Y-74179998D01*
X179052124Y-74179998D01*
X179043797Y-74157671D01*
X179043793Y-74157664D01*
X178957547Y-74042455D01*
X178957544Y-74042452D01*
X178842335Y-73956206D01*
X178842328Y-73956202D01*
X178707482Y-73905908D01*
X178707483Y-73905908D01*
X178647883Y-73899501D01*
X178647881Y-73899500D01*
X178647873Y-73899500D01*
X178647864Y-73899500D01*
X176952129Y-73899500D01*
X176952123Y-73899501D01*
X176892516Y-73905908D01*
X176757671Y-73956202D01*
X176757664Y-73956206D01*
X176642455Y-74042452D01*
X176642452Y-74042455D01*
X176556206Y-74157664D01*
X176556202Y-74157671D01*
X176505908Y-74292516D01*
X176502137Y-74327596D01*
X176475398Y-74392146D01*
X176418006Y-74431994D01*
X176348180Y-74434487D01*
X176288092Y-74398834D01*
X176277273Y-74385462D01*
X176260045Y-74360858D01*
X176099141Y-74199954D01*
X175912734Y-74069432D01*
X175912732Y-74069431D01*
X175706497Y-73973261D01*
X175706488Y-73973258D01*
X175486697Y-73914366D01*
X175486693Y-73914365D01*
X175486692Y-73914365D01*
X175486691Y-73914364D01*
X175486686Y-73914364D01*
X175260002Y-73894532D01*
X175259998Y-73894532D01*
X175033313Y-73914364D01*
X175033302Y-73914366D01*
X174813511Y-73973258D01*
X174813502Y-73973261D01*
X174607267Y-74069431D01*
X174607265Y-74069432D01*
X174420858Y-74199954D01*
X174259954Y-74360858D01*
X174129432Y-74547265D01*
X174129431Y-74547267D01*
X174102382Y-74605275D01*
X174056209Y-74657714D01*
X173989016Y-74676866D01*
X173922135Y-74656650D01*
X173877618Y-74605275D01*
X173850568Y-74547267D01*
X173850567Y-74547265D01*
X173850117Y-74546623D01*
X173720047Y-74360861D01*
X173720045Y-74360858D01*
X173559141Y-74199954D01*
X173372734Y-74069432D01*
X173372732Y-74069431D01*
X173166497Y-73973261D01*
X173166488Y-73973258D01*
X172946697Y-73914366D01*
X172946693Y-73914365D01*
X172946692Y-73914365D01*
X172946691Y-73914364D01*
X172946686Y-73914364D01*
X172720002Y-73894532D01*
X172719998Y-73894532D01*
X172493313Y-73914364D01*
X172493302Y-73914366D01*
X172273511Y-73973258D01*
X172273502Y-73973261D01*
X172067267Y-74069431D01*
X172067265Y-74069432D01*
X171880858Y-74199954D01*
X171719954Y-74360858D01*
X171589432Y-74547265D01*
X171589431Y-74547267D01*
X171562382Y-74605275D01*
X171516209Y-74657714D01*
X171449016Y-74676866D01*
X171382135Y-74656650D01*
X171337618Y-74605275D01*
X171310568Y-74547267D01*
X171310567Y-74547265D01*
X171310117Y-74546623D01*
X171180047Y-74360861D01*
X171180045Y-74360858D01*
X171019141Y-74199954D01*
X170832734Y-74069432D01*
X170832732Y-74069431D01*
X170626497Y-73973261D01*
X170626488Y-73973258D01*
X170406697Y-73914366D01*
X170406693Y-73914365D01*
X170406692Y-73914365D01*
X170406691Y-73914364D01*
X170406686Y-73914364D01*
X170180002Y-73894532D01*
X170179998Y-73894532D01*
X169953313Y-73914364D01*
X169953302Y-73914366D01*
X169733511Y-73973258D01*
X169733502Y-73973261D01*
X169527267Y-74069431D01*
X169527265Y-74069432D01*
X169340858Y-74199954D01*
X169179954Y-74360858D01*
X169128400Y-74434487D01*
X169049881Y-74546624D01*
X168995307Y-74590248D01*
X168948308Y-74599500D01*
X141507416Y-74599500D01*
X141507273Y-74599509D01*
X141489318Y-74599509D01*
X141281314Y-74626889D01*
X141281311Y-74626890D01*
X141078659Y-74681187D01*
X140884818Y-74761476D01*
X140884814Y-74761478D01*
X140816136Y-74801129D01*
X140703122Y-74866376D01*
X140703119Y-74866378D01*
X140703116Y-74866380D01*
X140536670Y-74994096D01*
X140518401Y-75012362D01*
X140518391Y-75012374D01*
X133122705Y-82408058D01*
X133061382Y-82441543D01*
X133002931Y-82440152D01*
X132906697Y-82414366D01*
X132906693Y-82414365D01*
X132906692Y-82414365D01*
X132906691Y-82414364D01*
X132906686Y-82414364D01*
X132680002Y-82394532D01*
X132679998Y-82394532D01*
X132453313Y-82414364D01*
X132453302Y-82414366D01*
X132357067Y-82440152D01*
X132287217Y-82438489D01*
X132237293Y-82408058D01*
X129342469Y-79513234D01*
X129308984Y-79451911D01*
X129313968Y-79382219D01*
X129355840Y-79326286D01*
X129419339Y-79302026D01*
X129606692Y-79285635D01*
X129826496Y-79226739D01*
X130032734Y-79130568D01*
X130219139Y-79000047D01*
X130380047Y-78839139D01*
X130510568Y-78652734D01*
X130606739Y-78446496D01*
X130665635Y-78226692D01*
X130685468Y-78000000D01*
X130665635Y-77773308D01*
X130606739Y-77553504D01*
X130510568Y-77347266D01*
X130380047Y-77160861D01*
X130380045Y-77160858D01*
X130219141Y-76999954D01*
X130032734Y-76869432D01*
X130032732Y-76869431D01*
X129826497Y-76773261D01*
X129826488Y-76773258D01*
X129606697Y-76714366D01*
X129606693Y-76714365D01*
X129606692Y-76714365D01*
X129606691Y-76714364D01*
X129606686Y-76714364D01*
X129380002Y-76694532D01*
X129379998Y-76694532D01*
X129153313Y-76714364D01*
X129153302Y-76714366D01*
X128933511Y-76773258D01*
X128933502Y-76773261D01*
X128727267Y-76869431D01*
X128727265Y-76869432D01*
X128540858Y-76999954D01*
X128379954Y-77160858D01*
X128249432Y-77347265D01*
X128249431Y-77347267D01*
X128153261Y-77553502D01*
X128153258Y-77553511D01*
X128094366Y-77773302D01*
X128094364Y-77773313D01*
X128074532Y-77999998D01*
X128074532Y-78000002D01*
X128088447Y-78159056D01*
X128074680Y-78227556D01*
X128026065Y-78277739D01*
X127958036Y-78293672D01*
X127917467Y-78284424D01*
X127861349Y-78261179D01*
X127861345Y-78261178D01*
X127658690Y-78206880D01*
X127658687Y-78206879D01*
X127450682Y-78179499D01*
X127450680Y-78179499D01*
X127345778Y-78179500D01*
X114039091Y-78179500D01*
X114039075Y-78179499D01*
X114009942Y-78179499D01*
X114009890Y-78179484D01*
X113853664Y-78179486D01*
X113645656Y-78206876D01*
X113645642Y-78206879D01*
X113443004Y-78261179D01*
X113249170Y-78341471D01*
X113249166Y-78341473D01*
X113067460Y-78446387D01*
X112901029Y-78574099D01*
X112901026Y-78574102D01*
X112841023Y-78634107D01*
X112841022Y-78634107D01*
X106518409Y-84956720D01*
X106506212Y-84967417D01*
X106502533Y-84970240D01*
X106442869Y-85016018D01*
X106414836Y-85032201D01*
X106408220Y-85034942D01*
X106348655Y-85059611D01*
X106317389Y-85067987D01*
X106237971Y-85078439D01*
X106221788Y-85079499D01*
X106172945Y-85079497D01*
X106157267Y-85079497D01*
X106157266Y-85079497D01*
X106149691Y-85079497D01*
X106149643Y-85079500D01*
X100994137Y-85079500D01*
X100927098Y-85059815D01*
X100881343Y-85007011D01*
X100871399Y-84937853D01*
X100874362Y-84923407D01*
X100888263Y-84871524D01*
X100905635Y-84806692D01*
X100925468Y-84580000D01*
X100905635Y-84353308D01*
X100859358Y-84180600D01*
X100846741Y-84133511D01*
X100846738Y-84133502D01*
X100826576Y-84090265D01*
X100750568Y-83927266D01*
X100620047Y-83740861D01*
X100620045Y-83740858D01*
X100459141Y-83579954D01*
X100272734Y-83449432D01*
X100272728Y-83449429D01*
X100214725Y-83422382D01*
X100162285Y-83376210D01*
X100143133Y-83309017D01*
X100163348Y-83242135D01*
X100214725Y-83197618D01*
X100272734Y-83170568D01*
X100459139Y-83040047D01*
X100620047Y-82879139D01*
X100750568Y-82692734D01*
X100846739Y-82486496D01*
X100905635Y-82266692D01*
X100925468Y-82040000D01*
X100905635Y-81813308D01*
X100846739Y-81593504D01*
X100750568Y-81387266D01*
X100620047Y-81200861D01*
X100620045Y-81200858D01*
X100459141Y-81039954D01*
X100272734Y-80909432D01*
X100272728Y-80909429D01*
X100214725Y-80882382D01*
X100162285Y-80836210D01*
X100143133Y-80769017D01*
X100163348Y-80702135D01*
X100214725Y-80657618D01*
X100272734Y-80630568D01*
X100459139Y-80500047D01*
X100620047Y-80339139D01*
X100750568Y-80152734D01*
X100846739Y-79946496D01*
X100864557Y-79879998D01*
X103194532Y-79879998D01*
X103194532Y-79880001D01*
X103214364Y-80106686D01*
X103214366Y-80106697D01*
X103273258Y-80326488D01*
X103273261Y-80326497D01*
X103369431Y-80532732D01*
X103369432Y-80532734D01*
X103499954Y-80719141D01*
X103660858Y-80880045D01*
X103707693Y-80912839D01*
X103847266Y-81010568D01*
X104053504Y-81106739D01*
X104273308Y-81165635D01*
X104435230Y-81179801D01*
X104499998Y-81185468D01*
X104500000Y-81185468D01*
X104500002Y-81185468D01*
X104556673Y-81180509D01*
X104726692Y-81165635D01*
X104946496Y-81106739D01*
X105152734Y-81010568D01*
X105339139Y-80880047D01*
X105500047Y-80719139D01*
X105630568Y-80532734D01*
X105726739Y-80326496D01*
X105785635Y-80106692D01*
X105805468Y-79880000D01*
X105805468Y-79879998D01*
X107944532Y-79879998D01*
X107944532Y-79880001D01*
X107964364Y-80106686D01*
X107964366Y-80106697D01*
X108023258Y-80326488D01*
X108023261Y-80326497D01*
X108119431Y-80532732D01*
X108119432Y-80532734D01*
X108249954Y-80719141D01*
X108410858Y-80880045D01*
X108457693Y-80912839D01*
X108597266Y-81010568D01*
X108803504Y-81106739D01*
X109023308Y-81165635D01*
X109185230Y-81179801D01*
X109249998Y-81185468D01*
X109250000Y-81185468D01*
X109250002Y-81185468D01*
X109306673Y-81180509D01*
X109476692Y-81165635D01*
X109696496Y-81106739D01*
X109902734Y-81010568D01*
X110089139Y-80880047D01*
X110250047Y-80719139D01*
X110380568Y-80532734D01*
X110476739Y-80326496D01*
X110535635Y-80106692D01*
X110555468Y-79880000D01*
X110535635Y-79653308D01*
X110476739Y-79433504D01*
X110380568Y-79227266D01*
X110250047Y-79040861D01*
X110250045Y-79040858D01*
X110089141Y-78879954D01*
X109902734Y-78749432D01*
X109902732Y-78749431D01*
X109696497Y-78653261D01*
X109696488Y-78653258D01*
X109476697Y-78594366D01*
X109476693Y-78594365D01*
X109476692Y-78594365D01*
X109476691Y-78594364D01*
X109476686Y-78594364D01*
X109250002Y-78574532D01*
X109249998Y-78574532D01*
X109023313Y-78594364D01*
X109023302Y-78594366D01*
X108803511Y-78653258D01*
X108803502Y-78653261D01*
X108597267Y-78749431D01*
X108597265Y-78749432D01*
X108410858Y-78879954D01*
X108249954Y-79040858D01*
X108119432Y-79227265D01*
X108119431Y-79227267D01*
X108023261Y-79433502D01*
X108023258Y-79433511D01*
X107964366Y-79653302D01*
X107964364Y-79653313D01*
X107944532Y-79879998D01*
X105805468Y-79879998D01*
X105785635Y-79653308D01*
X105726739Y-79433504D01*
X105630568Y-79227266D01*
X105500047Y-79040861D01*
X105500045Y-79040858D01*
X105339141Y-78879954D01*
X105152734Y-78749432D01*
X105152732Y-78749431D01*
X104946497Y-78653261D01*
X104946488Y-78653258D01*
X104726697Y-78594366D01*
X104726693Y-78594365D01*
X104726692Y-78594365D01*
X104726691Y-78594364D01*
X104726686Y-78594364D01*
X104500002Y-78574532D01*
X104499998Y-78574532D01*
X104273313Y-78594364D01*
X104273302Y-78594366D01*
X104053511Y-78653258D01*
X104053502Y-78653261D01*
X103847267Y-78749431D01*
X103847265Y-78749432D01*
X103660858Y-78879954D01*
X103499954Y-79040858D01*
X103369432Y-79227265D01*
X103369431Y-79227267D01*
X103273261Y-79433502D01*
X103273258Y-79433511D01*
X103214366Y-79653302D01*
X103214364Y-79653313D01*
X103194532Y-79879998D01*
X100864557Y-79879998D01*
X100905635Y-79726692D01*
X100925468Y-79500000D01*
X100924813Y-79492518D01*
X100910270Y-79326286D01*
X100905635Y-79273308D01*
X100846739Y-79053504D01*
X100750568Y-78847266D01*
X100620047Y-78660861D01*
X100620045Y-78660858D01*
X100459141Y-78499954D01*
X100272734Y-78369432D01*
X100272728Y-78369429D01*
X100214725Y-78342382D01*
X100162285Y-78296210D01*
X100143133Y-78229017D01*
X100163348Y-78162135D01*
X100214725Y-78117618D01*
X100272734Y-78090568D01*
X100459139Y-77960047D01*
X100620047Y-77799139D01*
X100750568Y-77612734D01*
X100846739Y-77406496D01*
X100905635Y-77186692D01*
X100925468Y-76960000D01*
X100905635Y-76733308D01*
X100846739Y-76513504D01*
X100750568Y-76307266D01*
X100620047Y-76120861D01*
X100620045Y-76120858D01*
X100459141Y-75959954D01*
X100272734Y-75829432D01*
X100272732Y-75829431D01*
X100066497Y-75733261D01*
X100066488Y-75733258D01*
X99846697Y-75674366D01*
X99846693Y-75674365D01*
X99846692Y-75674365D01*
X99846691Y-75674364D01*
X99846686Y-75674364D01*
X99620002Y-75654532D01*
X99619998Y-75654532D01*
X99393313Y-75674364D01*
X99393302Y-75674366D01*
X99173511Y-75733258D01*
X99173502Y-75733261D01*
X98967267Y-75829431D01*
X98967265Y-75829432D01*
X98780858Y-75959954D01*
X98619954Y-76120858D01*
X98489432Y-76307265D01*
X98489431Y-76307267D01*
X98393261Y-76513502D01*
X98393258Y-76513511D01*
X98334366Y-76733302D01*
X98334364Y-76733313D01*
X98314532Y-76959998D01*
X98314532Y-76960001D01*
X98334364Y-77186686D01*
X98334366Y-77186697D01*
X98393258Y-77406488D01*
X98393261Y-77406497D01*
X98489431Y-77612732D01*
X98489432Y-77612734D01*
X98619954Y-77799141D01*
X98780858Y-77960045D01*
X98780861Y-77960047D01*
X98967266Y-78090568D01*
X99025275Y-78117618D01*
X99077714Y-78163791D01*
X99096866Y-78230984D01*
X99076650Y-78297865D01*
X99025275Y-78342382D01*
X98967267Y-78369431D01*
X98967265Y-78369432D01*
X98780858Y-78499954D01*
X98619954Y-78660858D01*
X98489432Y-78847265D01*
X98489431Y-78847267D01*
X98393261Y-79053502D01*
X98393258Y-79053511D01*
X98334366Y-79273302D01*
X98334364Y-79273313D01*
X98314532Y-79499998D01*
X98314532Y-79500001D01*
X98334364Y-79726686D01*
X98334366Y-79726697D01*
X98393258Y-79946488D01*
X98393261Y-79946497D01*
X98489431Y-80152732D01*
X98489432Y-80152734D01*
X98619954Y-80339141D01*
X98780858Y-80500045D01*
X98780861Y-80500047D01*
X98967266Y-80630568D01*
X99025275Y-80657618D01*
X99077714Y-80703791D01*
X99096866Y-80770984D01*
X99076650Y-80837865D01*
X99025275Y-80882382D01*
X98967267Y-80909431D01*
X98967265Y-80909432D01*
X98780858Y-81039954D01*
X98619954Y-81200858D01*
X98489432Y-81387265D01*
X98489431Y-81387267D01*
X98393261Y-81593502D01*
X98393258Y-81593511D01*
X98334366Y-81813302D01*
X98334364Y-81813313D01*
X98314532Y-82039998D01*
X98314532Y-82040001D01*
X98334364Y-82266686D01*
X98334366Y-82266697D01*
X98393258Y-82486488D01*
X98393261Y-82486497D01*
X98489431Y-82692732D01*
X98489432Y-82692734D01*
X98619954Y-82879141D01*
X98780858Y-83040045D01*
X98790351Y-83046692D01*
X98967266Y-83170568D01*
X99025275Y-83197618D01*
X99077714Y-83243791D01*
X99096866Y-83310984D01*
X99076650Y-83377865D01*
X99025275Y-83422382D01*
X98967267Y-83449431D01*
X98967265Y-83449432D01*
X98780858Y-83579954D01*
X98619954Y-83740858D01*
X98489432Y-83927265D01*
X98489431Y-83927267D01*
X98393261Y-84133502D01*
X98393258Y-84133511D01*
X98334366Y-84353302D01*
X98334364Y-84353313D01*
X98314532Y-84579998D01*
X98314532Y-84580001D01*
X98334364Y-84806686D01*
X98334366Y-84806697D01*
X98365638Y-84923407D01*
X98363975Y-84993257D01*
X98324812Y-85051119D01*
X98260583Y-85078623D01*
X98245863Y-85079500D01*
X93594730Y-85079500D01*
X93594714Y-85079499D01*
X93522328Y-85079499D01*
X93506145Y-85078438D01*
X93426993Y-85068019D01*
X93395724Y-85059641D01*
X93336094Y-85034942D01*
X93281690Y-84991102D01*
X93259625Y-84924808D01*
X93263771Y-84888287D01*
X93272008Y-84857547D01*
X93285635Y-84806692D01*
X93305468Y-84580000D01*
X93285635Y-84353308D01*
X93239358Y-84180600D01*
X93226741Y-84133511D01*
X93226738Y-84133502D01*
X93206576Y-84090265D01*
X93130568Y-83927266D01*
X93000047Y-83740861D01*
X93000045Y-83740858D01*
X92839141Y-83579954D01*
X92652734Y-83449432D01*
X92652728Y-83449429D01*
X92594725Y-83422382D01*
X92542285Y-83376210D01*
X92523133Y-83309017D01*
X92543348Y-83242135D01*
X92594725Y-83197618D01*
X92652734Y-83170568D01*
X92839139Y-83040047D01*
X93000047Y-82879139D01*
X93130568Y-82692734D01*
X93226739Y-82486496D01*
X93285635Y-82266692D01*
X93305468Y-82040000D01*
X93285635Y-81813308D01*
X93226739Y-81593504D01*
X93130568Y-81387266D01*
X93000047Y-81200861D01*
X93000045Y-81200858D01*
X92839141Y-81039954D01*
X92652734Y-80909432D01*
X92652728Y-80909429D01*
X92594725Y-80882382D01*
X92542285Y-80836210D01*
X92523133Y-80769017D01*
X92543348Y-80702135D01*
X92594725Y-80657618D01*
X92652734Y-80630568D01*
X92839139Y-80500047D01*
X93000047Y-80339139D01*
X93130568Y-80152734D01*
X93226739Y-79946496D01*
X93285635Y-79726692D01*
X93305468Y-79500000D01*
X93304813Y-79492518D01*
X93290270Y-79326286D01*
X93285635Y-79273308D01*
X93226739Y-79053504D01*
X93130568Y-78847266D01*
X93000047Y-78660861D01*
X93000045Y-78660858D01*
X92839143Y-78499956D01*
X92814536Y-78482726D01*
X92770912Y-78428149D01*
X92763719Y-78358650D01*
X92795241Y-78296296D01*
X92855471Y-78260882D01*
X92872404Y-78257861D01*
X92907483Y-78254091D01*
X93042331Y-78203796D01*
X93157546Y-78117546D01*
X93243796Y-78002331D01*
X93294091Y-77867483D01*
X93300500Y-77807873D01*
X93300499Y-76112128D01*
X93294091Y-76052517D01*
X93289101Y-76039139D01*
X93243797Y-75917671D01*
X93243793Y-75917664D01*
X93157547Y-75802455D01*
X93157544Y-75802452D01*
X93042335Y-75716206D01*
X93042328Y-75716202D01*
X92907482Y-75665908D01*
X92907483Y-75665908D01*
X92847883Y-75659501D01*
X92847881Y-75659500D01*
X92847873Y-75659500D01*
X92847864Y-75659500D01*
X91152129Y-75659500D01*
X91152123Y-75659501D01*
X91092516Y-75665908D01*
X90957671Y-75716202D01*
X90957664Y-75716206D01*
X90842455Y-75802452D01*
X90842452Y-75802455D01*
X90756206Y-75917664D01*
X90756202Y-75917671D01*
X90705908Y-76052517D01*
X90699999Y-76107482D01*
X90699501Y-76112123D01*
X90699500Y-76112135D01*
X90699500Y-77807870D01*
X90699501Y-77807876D01*
X90705908Y-77867483D01*
X90756202Y-78002328D01*
X90756206Y-78002335D01*
X90842452Y-78117544D01*
X90842455Y-78117547D01*
X90957664Y-78203793D01*
X90957671Y-78203797D01*
X91002618Y-78220561D01*
X91092517Y-78254091D01*
X91127596Y-78257862D01*
X91192144Y-78284599D01*
X91231993Y-78341991D01*
X91234488Y-78411816D01*
X91198836Y-78471905D01*
X91185464Y-78482725D01*
X91160858Y-78499954D01*
X90999954Y-78660858D01*
X90869432Y-78847265D01*
X90869431Y-78847267D01*
X90773261Y-79053502D01*
X90773258Y-79053511D01*
X90714366Y-79273302D01*
X90714364Y-79273313D01*
X90694532Y-79499998D01*
X90694532Y-79500001D01*
X90714364Y-79726686D01*
X90714366Y-79726697D01*
X90773258Y-79946488D01*
X90773261Y-79946497D01*
X90869431Y-80152732D01*
X90869432Y-80152734D01*
X90999954Y-80339141D01*
X91160858Y-80500045D01*
X91160861Y-80500047D01*
X91347266Y-80630568D01*
X91405275Y-80657618D01*
X91457714Y-80703791D01*
X91476866Y-80770984D01*
X91456650Y-80837865D01*
X91405275Y-80882382D01*
X91347267Y-80909431D01*
X91347265Y-80909432D01*
X91160858Y-81039954D01*
X90999954Y-81200858D01*
X90869432Y-81387265D01*
X90869431Y-81387267D01*
X90773261Y-81593502D01*
X90773258Y-81593511D01*
X90714366Y-81813302D01*
X90714364Y-81813313D01*
X90694532Y-82039998D01*
X90694532Y-82040001D01*
X90714364Y-82266686D01*
X90714366Y-82266697D01*
X90773258Y-82486488D01*
X90773261Y-82486497D01*
X90869431Y-82692732D01*
X90869432Y-82692734D01*
X90999954Y-82879141D01*
X91160858Y-83040045D01*
X91170351Y-83046692D01*
X91347266Y-83170568D01*
X91405275Y-83197618D01*
X91457714Y-83243791D01*
X91476866Y-83310984D01*
X91456650Y-83377865D01*
X91405275Y-83422382D01*
X91347267Y-83449431D01*
X91347265Y-83449432D01*
X91160858Y-83579954D01*
X90999954Y-83740858D01*
X90869432Y-83927265D01*
X90869431Y-83927267D01*
X90773261Y-84133502D01*
X90773258Y-84133511D01*
X90714366Y-84353302D01*
X90714364Y-84353313D01*
X90694532Y-84579998D01*
X90694532Y-84580001D01*
X90714364Y-84806686D01*
X90714366Y-84806697D01*
X90773258Y-85026488D01*
X90773261Y-85026497D01*
X90869431Y-85232732D01*
X90869432Y-85232734D01*
X90999954Y-85419141D01*
X91160858Y-85580045D01*
X91160861Y-85580047D01*
X91347266Y-85710568D01*
X91553504Y-85806739D01*
X91773308Y-85865635D01*
X91935230Y-85879801D01*
X91999998Y-85885468D01*
X92000000Y-85885468D01*
X92000002Y-85885468D01*
X92056673Y-85880509D01*
X92226692Y-85865635D01*
X92322921Y-85839850D01*
X92392770Y-85841513D01*
X92442693Y-85871941D01*
X92456221Y-85885468D01*
X92456665Y-85885912D01*
X92623117Y-86013632D01*
X92804815Y-86118533D01*
X92998651Y-86198820D01*
X93201308Y-86253119D01*
X93201309Y-86253119D01*
X93201312Y-86253120D01*
X93292620Y-86265139D01*
X93409320Y-86280501D01*
X93514222Y-86280500D01*
X106230122Y-86280500D01*
X106309208Y-86280500D01*
X106317342Y-86280500D01*
X106317799Y-86280468D01*
X106335024Y-86280470D01*
X106451088Y-86265195D01*
X106520121Y-86275964D01*
X106572374Y-86322346D01*
X106591257Y-86389616D01*
X106570774Y-86456415D01*
X106554947Y-86475816D01*
X104404597Y-88626168D01*
X104404561Y-88626187D01*
X104294091Y-88736660D01*
X104294087Y-88736664D01*
X104166371Y-88903112D01*
X104166368Y-88903116D01*
X104166368Y-88903117D01*
X104061467Y-89084815D01*
X104061467Y-89084816D01*
X103981177Y-89278659D01*
X103926880Y-89481309D01*
X103926879Y-89481312D01*
X103899500Y-89689306D01*
X103899499Y-89689327D01*
X103899500Y-89747150D01*
X103899500Y-93888306D01*
X103879815Y-93955345D01*
X103846623Y-93989881D01*
X103660859Y-94119953D01*
X103499954Y-94280858D01*
X103369432Y-94467265D01*
X103369431Y-94467267D01*
X103273261Y-94673502D01*
X103273257Y-94673513D01*
X103264127Y-94707592D01*
X103227763Y-94767253D01*
X103164916Y-94797783D01*
X103144352Y-94799500D01*
X100694137Y-94799500D01*
X100627098Y-94779815D01*
X100581343Y-94727011D01*
X100571399Y-94657853D01*
X100574362Y-94643407D01*
X100588263Y-94591524D01*
X100605635Y-94526692D01*
X100625468Y-94300000D01*
X100605635Y-94073308D01*
X100546739Y-93853504D01*
X100450568Y-93647266D01*
X100320047Y-93460861D01*
X100320045Y-93460858D01*
X100159141Y-93299954D01*
X99972734Y-93169432D01*
X99972732Y-93169431D01*
X99766497Y-93073261D01*
X99766488Y-93073258D01*
X99546697Y-93014366D01*
X99546693Y-93014365D01*
X99546692Y-93014365D01*
X99546691Y-93014364D01*
X99546686Y-93014364D01*
X99320002Y-92994532D01*
X99319998Y-92994532D01*
X99093313Y-93014364D01*
X99093302Y-93014366D01*
X98873511Y-93073258D01*
X98873502Y-93073261D01*
X98667267Y-93169431D01*
X98667265Y-93169432D01*
X98480858Y-93299954D01*
X98319954Y-93460858D01*
X98189432Y-93647265D01*
X98189431Y-93647267D01*
X98093261Y-93853502D01*
X98093258Y-93853511D01*
X98034366Y-94073302D01*
X98034364Y-94073313D01*
X98014532Y-94299998D01*
X98014532Y-94300001D01*
X98034364Y-94526686D01*
X98034366Y-94526697D01*
X98065638Y-94643407D01*
X98063975Y-94713257D01*
X98024812Y-94771119D01*
X97960583Y-94798623D01*
X97945863Y-94799500D01*
X93467416Y-94799500D01*
X93467273Y-94799509D01*
X93449318Y-94799509D01*
X93241314Y-94826889D01*
X93241306Y-94826891D01*
X93156590Y-94849589D01*
X93086740Y-94847925D01*
X93028878Y-94808762D01*
X93001376Y-94744533D01*
X93000499Y-94729814D01*
X93000499Y-93452129D01*
X93000498Y-93452123D01*
X93000497Y-93452116D01*
X92994091Y-93392517D01*
X92987371Y-93374501D01*
X92943797Y-93257671D01*
X92943793Y-93257664D01*
X92857547Y-93142455D01*
X92857544Y-93142452D01*
X92742335Y-93056206D01*
X92742328Y-93056202D01*
X92607482Y-93005908D01*
X92607483Y-93005908D01*
X92547883Y-92999501D01*
X92547881Y-92999500D01*
X92547873Y-92999500D01*
X92547864Y-92999500D01*
X90852129Y-92999500D01*
X90852123Y-92999501D01*
X90792516Y-93005908D01*
X90657671Y-93056202D01*
X90657664Y-93056206D01*
X90542455Y-93142452D01*
X90542452Y-93142455D01*
X90456206Y-93257664D01*
X90456202Y-93257671D01*
X90405908Y-93392517D01*
X90401749Y-93431206D01*
X90399501Y-93452123D01*
X90399500Y-93452135D01*
X90399500Y-95147870D01*
X90399501Y-95147876D01*
X90405908Y-95207483D01*
X90456202Y-95342328D01*
X90456206Y-95342335D01*
X90542452Y-95457544D01*
X90542455Y-95457547D01*
X90657664Y-95543793D01*
X90657671Y-95543797D01*
X90702618Y-95560561D01*
X90792517Y-95594091D01*
X90827596Y-95597862D01*
X90892144Y-95624599D01*
X90931993Y-95681991D01*
X90934488Y-95751816D01*
X90898836Y-95811905D01*
X90885464Y-95822725D01*
X90860858Y-95839954D01*
X90699954Y-96000858D01*
X90569432Y-96187265D01*
X90569431Y-96187267D01*
X90473261Y-96393502D01*
X90473258Y-96393511D01*
X90414366Y-96613302D01*
X90414364Y-96613313D01*
X90394532Y-96839998D01*
X87283744Y-96839998D01*
X87273432Y-96801513D01*
X87273429Y-96801507D01*
X87173600Y-96587422D01*
X87173599Y-96587420D01*
X87038113Y-96393926D01*
X87038108Y-96393920D01*
X86916053Y-96271865D01*
X86882568Y-96210542D01*
X86887552Y-96140850D01*
X86929424Y-96084917D01*
X86960400Y-96068002D01*
X87092331Y-96018796D01*
X87207546Y-95932546D01*
X87293796Y-95817331D01*
X87344091Y-95682483D01*
X87350500Y-95622873D01*
X87350499Y-93827128D01*
X87344091Y-93767517D01*
X87299240Y-93647266D01*
X87293797Y-93632671D01*
X87293793Y-93632664D01*
X87207547Y-93517455D01*
X87207544Y-93517452D01*
X87092335Y-93431206D01*
X87092328Y-93431202D01*
X86957482Y-93380908D01*
X86957483Y-93380908D01*
X86897883Y-93374501D01*
X86897881Y-93374500D01*
X86897873Y-93374500D01*
X86897864Y-93374500D01*
X85102129Y-93374500D01*
X85102123Y-93374501D01*
X85042516Y-93380908D01*
X84907671Y-93431202D01*
X84907664Y-93431206D01*
X84792455Y-93517452D01*
X84792452Y-93517455D01*
X84706206Y-93632664D01*
X84706202Y-93632671D01*
X84655908Y-93767517D01*
X84650854Y-93814532D01*
X84649501Y-93827123D01*
X84649500Y-93827135D01*
X79000500Y-93827135D01*
X79000500Y-72499998D01*
X128074532Y-72499998D01*
X128074532Y-72500001D01*
X128094364Y-72726686D01*
X128094366Y-72726697D01*
X128153258Y-72946488D01*
X128153261Y-72946497D01*
X128249431Y-73152732D01*
X128249432Y-73152734D01*
X128379954Y-73339141D01*
X128540858Y-73500045D01*
X128540861Y-73500047D01*
X128727266Y-73630568D01*
X128933504Y-73726739D01*
X128933509Y-73726740D01*
X128933511Y-73726741D01*
X128986415Y-73740916D01*
X129153308Y-73785635D01*
X129315230Y-73799801D01*
X129379998Y-73805468D01*
X129380000Y-73805468D01*
X129380002Y-73805468D01*
X129436673Y-73800509D01*
X129606692Y-73785635D01*
X129826496Y-73726739D01*
X130032734Y-73630568D01*
X130219139Y-73500047D01*
X130380047Y-73339139D01*
X130510568Y-73152734D01*
X130606739Y-72946496D01*
X130665635Y-72726692D01*
X130685468Y-72500000D01*
X130665635Y-72273308D01*
X130643773Y-72191717D01*
X130645436Y-72121873D01*
X130684598Y-72064010D01*
X130716093Y-72045067D01*
X130775731Y-72020366D01*
X130806994Y-72011990D01*
X130886222Y-72001561D01*
X130902405Y-72000500D01*
X130967119Y-72000501D01*
X130967123Y-72000500D01*
X143245863Y-72000500D01*
X143312902Y-72020185D01*
X143358657Y-72072989D01*
X143368601Y-72142147D01*
X143365638Y-72156593D01*
X143334366Y-72273302D01*
X143334364Y-72273313D01*
X143314532Y-72499998D01*
X143314532Y-72500001D01*
X143334364Y-72726686D01*
X143334366Y-72726697D01*
X143393258Y-72946488D01*
X143393261Y-72946497D01*
X143489431Y-73152732D01*
X143489432Y-73152734D01*
X143619954Y-73339141D01*
X143780858Y-73500045D01*
X143780861Y-73500047D01*
X143967266Y-73630568D01*
X144173504Y-73726739D01*
X144173509Y-73726740D01*
X144173511Y-73726741D01*
X144226415Y-73740916D01*
X144393308Y-73785635D01*
X144555230Y-73799801D01*
X144619998Y-73805468D01*
X144620000Y-73805468D01*
X144620002Y-73805468D01*
X144676673Y-73800509D01*
X144846692Y-73785635D01*
X145066496Y-73726739D01*
X145272734Y-73630568D01*
X145459139Y-73500047D01*
X145620047Y-73339139D01*
X145750568Y-73152734D01*
X145846739Y-72946496D01*
X145905635Y-72726692D01*
X145925468Y-72500000D01*
X145905635Y-72273308D01*
X145883774Y-72191722D01*
X145874362Y-72156593D01*
X145876025Y-72086743D01*
X145915188Y-72028881D01*
X145979417Y-72001377D01*
X145994137Y-72000500D01*
X150912877Y-72000500D01*
X150912881Y-72000501D01*
X150977670Y-72000500D01*
X150993854Y-72001561D01*
X151073007Y-72011980D01*
X151104274Y-72020357D01*
X151163926Y-72045066D01*
X151170462Y-72047773D01*
X151198495Y-72063957D01*
X151261783Y-72112518D01*
X151273979Y-72123214D01*
X152669298Y-73518533D01*
X152702783Y-73579856D01*
X152704837Y-73592330D01*
X152714630Y-73679249D01*
X152774210Y-73849521D01*
X152851961Y-73973261D01*
X152870184Y-74002262D01*
X152997738Y-74129816D01*
X153150478Y-74225789D01*
X153320745Y-74285368D01*
X153320750Y-74285369D01*
X153499996Y-74305565D01*
X153500000Y-74305565D01*
X153500004Y-74305565D01*
X153679249Y-74285369D01*
X153679252Y-74285368D01*
X153679255Y-74285368D01*
X153849522Y-74225789D01*
X154002262Y-74129816D01*
X154129816Y-74002262D01*
X154225789Y-73849522D01*
X154285368Y-73679255D01*
X154295162Y-73592330D01*
X154305565Y-73500003D01*
X154305565Y-73499996D01*
X154285369Y-73320750D01*
X154285368Y-73320745D01*
X154226578Y-73152734D01*
X154225789Y-73150478D01*
X154129816Y-72997738D01*
X154002262Y-72870184D01*
X153849521Y-72774210D01*
X153679249Y-72714630D01*
X153592330Y-72704837D01*
X153527916Y-72677770D01*
X153518533Y-72669298D01*
X152153832Y-71304597D01*
X152153812Y-71304561D01*
X152043339Y-71194091D01*
X152043335Y-71194087D01*
X151876887Y-71066371D01*
X151876886Y-71066370D01*
X151876883Y-71066368D01*
X151695185Y-70961467D01*
X151501349Y-70881180D01*
X151501344Y-70881178D01*
X151501340Y-70881177D01*
X151298690Y-70826880D01*
X151298687Y-70826879D01*
X151090682Y-70799499D01*
X151090680Y-70799499D01*
X150985778Y-70799500D01*
X130807416Y-70799500D01*
X130807273Y-70799509D01*
X130789318Y-70799509D01*
X130581314Y-70826889D01*
X130581311Y-70826890D01*
X130378659Y-70881187D01*
X130184818Y-70961476D01*
X130184814Y-70961478D01*
X130071570Y-71026858D01*
X130003122Y-71066376D01*
X130003119Y-71066378D01*
X130003116Y-71066380D01*
X129836669Y-71194096D01*
X129822698Y-71208066D01*
X129761372Y-71241546D01*
X129702932Y-71240152D01*
X129606697Y-71214366D01*
X129606693Y-71214365D01*
X129606692Y-71214365D01*
X129606691Y-71214364D01*
X129606686Y-71214364D01*
X129380002Y-71194532D01*
X129379998Y-71194532D01*
X129153313Y-71214364D01*
X129153302Y-71214366D01*
X128933511Y-71273258D01*
X128933502Y-71273261D01*
X128727267Y-71369431D01*
X128727265Y-71369432D01*
X128540858Y-71499954D01*
X128379954Y-71660858D01*
X128249432Y-71847265D01*
X128249431Y-71847267D01*
X128153261Y-72053502D01*
X128153258Y-72053511D01*
X128094366Y-72273302D01*
X128094364Y-72273313D01*
X128074532Y-72499998D01*
X79000500Y-72499998D01*
X79000500Y-67003750D01*
X79000726Y-66996263D01*
X79018271Y-66706205D01*
X79020076Y-66691340D01*
X79071780Y-66409201D01*
X79075364Y-66394663D01*
X79152096Y-66148422D01*
X79160696Y-66120822D01*
X79165998Y-66106841D01*
X79283731Y-65845249D01*
X79290676Y-65832016D01*
X79439080Y-65586526D01*
X79447567Y-65574230D01*
X79624480Y-65348417D01*
X79634395Y-65337226D01*
X79837226Y-65134395D01*
X79848417Y-65124480D01*
X80074230Y-64947567D01*
X80086526Y-64939080D01*
X80332016Y-64790676D01*
X80345249Y-64783731D01*
X80606841Y-64665998D01*
X80620822Y-64660696D01*
X80894668Y-64575362D01*
X80909197Y-64571780D01*
X81191344Y-64520075D01*
X81206201Y-64518271D01*
X81496264Y-64500726D01*
X81503751Y-64500500D01*
X81565892Y-64500500D01*
X215934108Y-64500500D01*
X215996249Y-64500500D01*
X216003736Y-64500726D01*
G37*
%TD.AperFunction*%
%TD*%
M02*
